<svg width="31" height="33" viewBox="0 0 31 33" fill="none" xmlns="http://www.w3.org/2000/svg">
<path fill-rule="evenodd" clip-rule="evenodd" d="M6.78579 24.8051C6.21779 24.0871 5.52779 22.6191 4.29979 20.8371C3.60379 19.8291 1.87779 17.9311 1.36379 16.9671C0.917794 16.1151 0.965794 15.7331 1.07179 15.0271C1.25979 13.7711 2.54779 12.7931 3.92179 12.9251C4.95979 13.0231 5.83979 13.7091 6.63179 14.3571C7.10979 14.7471 7.69779 15.5051 8.05179 15.9331C8.37779 16.3251 8.45779 16.4871 8.80579 16.9511C9.26579 17.5651 9.40979 17.8691 9.23379 17.1931C9.09179 16.2011 8.85979 14.5071 8.52379 13.0091C8.26779 11.8731 8.20579 11.6951 7.96179 10.8231C7.70379 9.89506 7.57179 9.24506 7.32979 8.26106C7.16179 7.56506 6.85979 6.14306 6.77779 5.34306C6.66379 4.24906 6.60379 2.46506 7.30579 1.64506C7.85579 1.00306 9.11779 0.809063 9.89979 1.20506C10.9238 1.72306 11.5058 3.21106 11.7718 3.80506C12.2498 4.87306 12.5458 6.10706 12.8038 7.72706C13.1318 9.78906 13.7358 12.6511 13.7558 13.2531C13.8038 12.5151 13.6198 10.9611 13.7478 10.2531C13.8638 9.61106 14.4038 8.86506 15.0798 8.66306C15.6518 8.49306 16.3218 8.43106 16.9118 8.55306C17.5378 8.68106 18.1978 9.12906 18.4438 9.55106C19.1678 10.7991 19.1818 13.3491 19.2118 13.2131C19.3838 12.4611 19.3538 10.7551 19.7798 10.0451C20.0598 9.57706 20.7738 9.15506 21.1538 9.08706C21.7418 8.98306 22.4638 8.95106 23.0818 9.07106C23.5798 9.16906 24.2538 9.76106 24.4358 10.0451C24.8718 10.7331 25.1198 12.6791 25.1938 13.3611C25.2238 13.6431 25.3418 12.5771 25.7798 11.8891C26.5918 10.6111 29.4658 10.3631 29.5758 13.1671C29.6258 14.4751 29.6158 14.4151 29.6158 15.2951C29.6158 16.3291 29.5918 16.9511 29.5358 17.6991C29.4738 18.4991 29.3018 20.3071 29.0518 21.1831C28.8798 21.7851 28.3098 23.1391 27.7478 23.9511C27.7478 23.9511 25.5998 26.4511 25.3658 27.5771C25.1298 28.7011 25.2078 28.7091 25.1618 29.5071C25.1158 30.3031 25.4038 31.3511 25.4038 31.3511C25.4038 31.3511 23.7998 31.5591 22.9358 31.4211C22.1538 31.2951 21.1858 29.7391 20.9358 29.2631C20.5918 28.6071 19.8578 28.7331 19.5718 29.2171C19.1218 29.9831 18.1538 31.3571 17.4698 31.4431C16.1338 31.6111 13.3618 31.5051 11.1918 31.4831C11.1918 31.4831 11.5618 29.4611 10.7378 28.7671C10.1278 28.2491 9.07779 27.1991 8.44979 26.6471L6.78579 24.8051Z" fill="white" stroke="black" stroke-width="1.5" stroke-linecap="round" stroke-linejoin="round"/>
</svg>
