<svg width="34" height="76" viewBox="0 0 34 76" fill="none" xmlns="http://www.w3.org/2000/svg">
<path d="M32.5408 67.2393L31.5072 71.4934C28.42 72.7298 25.9448 73.6603 24.0952 74.3118C22.2592 74.9632 20.1104 75.2822 17.676 75.2822C13.9224 75.2822 10.9984 74.3517 8.91761 72.5171C6.85041 70.6692 5.8032 68.3294 5.8032 65.4978C5.8032 64.3944 5.88482 63.2644 6.03442 62.1211C6.19762 60.9645 6.44242 59.6617 6.79602 58.2126L10.6584 44.4133C11.012 43.0972 11.2976 41.8343 11.5288 40.6511C11.7736 39.4812 11.8824 38.3911 11.8824 37.4206C11.8824 35.6525 11.5288 34.4294 10.808 33.7381C10.0872 33.0468 8.70001 32.6879 6.66001 32.6879C5.66721 32.6879 4.63359 32.8474 3.58639 33.1665C2.52559 33.4723 1.62801 33.778 0.880005 34.0572L1.91362 29.8031C4.44322 28.7661 6.86399 27.8754 9.18959 27.131C11.5016 26.3998 13.6912 26.0276 15.772 26.0276C19.4984 26.0276 22.368 26.9315 24.3808 28.7395C26.4072 30.5608 27.4136 32.9139 27.4136 35.812C27.4136 36.4102 27.3456 37.4605 27.196 38.976C27.06 40.4915 26.8016 41.8741 26.4208 43.1371L22.572 56.8832C22.2592 57.9866 21.9736 59.2495 21.7288 60.672C21.4704 62.0812 21.348 63.158 21.348 63.8892C21.348 65.7105 21.756 66.9601 22.5584 67.6248C23.3744 68.2895 24.7888 68.6086 26.7744 68.6086C27.7128 68.6086 28.7872 68.449 29.9704 68.1167C31.1536 67.7843 32.0104 67.5052 32.5408 67.2393ZM33.52 9.52957C33.52 11.9225 32.6224 13.9698 30.8272 15.6581C29.032 17.3465 26.8696 18.184 24.34 18.184C21.7968 18.184 19.6208 17.3465 17.812 15.6581C15.9896 13.9698 15.092 11.9225 15.092 9.52957C15.092 7.13663 15.9896 5.08934 17.812 3.38769C19.6208 1.68605 21.7968 0.835205 24.34 0.835205C26.8696 0.835205 29.032 1.68605 30.8272 3.38769C32.6224 5.08934 33.52 7.13663 33.52 9.52957Z" fill="white"/>
</svg>
