<svg width="26" height="15" viewBox="0 0 26 15" fill="none" xmlns="http://www.w3.org/2000/svg">
<path d="M24.7333 1.31992C24.9066 0.759918 24.7333 0.333252 23.9066 0.333252H21.2133C20.52 0.333252 20.2133 0.693252 20.04 1.09325C20.04 1.09325 18.6666 4.43992 16.72 6.62659C16.08 7.25325 15.8 7.45325 15.4533 7.45325C15.28 7.45325 15 7.25325 15 6.67992V1.31992C15 0.639918 14.84 0.333252 14.2666 0.333252H10.0133C9.58664 0.333252 9.33331 0.653252 9.33331 0.959918C9.33331 1.59992 10.3333 1.75992 10.4 3.58658V7.55992C10.4 8.43992 10.24 8.59992 9.90664 8.59992C8.99998 8.59992 6.75997 5.22659 5.43998 1.38659C5.17331 0.639919 4.91998 0.333252 4.22664 0.333252H1.51998C0.759976 0.333252 0.599976 0.693252 0.599976 1.09325C0.599976 1.81325 1.51998 5.35992 4.86664 10.0533C7.09331 13.2666 10.24 14.9999 13.1066 14.9999C14.8266 14.9999 15.04 14.6133 15.04 13.9466V11.5199C15.04 10.7599 15.2 10.5999 15.7466 10.5999C16.1466 10.5999 16.8266 10.7999 18.4266 12.3333C20.2666 14.1733 20.56 14.9999 21.6 14.9999H24.2933C25.0666 14.9999 25.4533 14.6133 25.24 13.8533C25 13.0933 24.12 11.9866 22.96 10.6799C22.3333 9.94659 21.3866 9.14659 21.0933 8.73325C20.6933 8.22659 20.8133 7.99992 21.0933 7.53325C21.0933 7.53325 24.3866 2.90659 24.7333 1.31992Z" fill="#2B2B2B"/>
</svg>
