<svg width="480" height="42" viewBox="0 0 480 42" fill="none" xmlns="http://www.w3.org/2000/svg">
<path d="M0.15625 33H12.125C19.4688 33 23.875 28.9219 23.875 23.0312C23.875 17.1562 19.4688 13.3594 12.125 13.3594H5.95313V5.85938H20.7344V0.999999H0.15625V33ZM5.95313 28.25V18.0781H12.125C16 18.0781 18.1406 20.2656 18.1406 22.9687C18.1406 25.7812 16 28.25 12.125 28.25H5.95313ZM32.2109 41.9531C36.6172 41.9531 39.1641 39.6719 40.5234 35.9063L50.1641 9.03125L44.1172 9L38.5703 27.125H38.3203L32.7891 9H26.7891L35.4922 33.5L35.0078 34.7969C33.9297 37.4531 32.3047 37.6563 29.8359 36.9531L28.5234 41.3438C29.2891 41.6719 30.6641 41.9531 32.2109 41.9531ZM50.0312 39.9688H55.5938V33H71.2969V39.9688H76.7656V28.3437H73.0469V9H55.7031L55.0156 17.4063C54.5625 22.7812 53.9688 26.7656 51.9375 28.3437H50.0312V39.9688ZM57.75 28.3437C59.2656 26.1094 59.8281 22.4844 60.2344 17.4063L60.6094 13.5625H67.6406V28.3437H57.75ZM86.4414 16.8125V9H80.9883V33H91.8945C98.0039 33 101.52 29.625 101.535 24.9062C101.52 20.0625 98.0039 16.8125 91.8945 16.8125H86.4414ZM86.4414 21.4531H91.8945C94.3477 21.4531 96.1133 22.9062 96.1133 24.9844C96.1133 26.9687 94.3477 28.3594 91.8945 28.3594H86.4414V21.4531ZM117.297 33H128.922C134.547 33 137.766 30.4531 137.766 26.4844C137.766 23.125 135.156 20.7812 131.391 20.4531C134.594 19.8594 136.594 18.1562 136.594 15.4531C136.594 11.4062 133.047 9 127.375 9H117.297V33ZM122.594 28.5469V22.5937H128.922C131 22.5937 132.266 23.7969 132.266 25.7812C132.266 27.5 131 28.5469 128.922 28.5469H122.594ZM122.594 18.9375V13.5312H127.375C129.734 13.5312 131.172 14.5312 131.172 16.1719C131.172 17.8906 129.781 18.9375 127.484 18.9375H122.594ZM153.348 33H159.004V23.9531H161.77L168.348 33H175.191L166.207 20.7812L175.098 9H168.285L161.066 18.6875H159.004V9H153.348V33ZM182.172 41.9531C186.578 41.9531 189.125 39.6719 190.484 35.9063L200.125 9.03125L194.078 9L188.531 27.125H188.281L182.75 9H176.75L185.453 33.5L184.969 34.7969C183.891 37.4531 182.266 37.6563 179.797 36.9531L178.484 41.3438C179.25 41.6719 180.625 41.9531 182.172 41.9531ZM204.051 42H209.707V29.2188H209.941C210.832 30.9687 212.691 33.4219 216.816 33.4219C222.473 33.4219 226.707 28.9375 226.707 21.0312C226.707 13.0312 222.348 8.6875 216.801 8.6875C212.566 8.6875 210.801 11.2344 209.941 12.9687H209.613V9H204.051V42ZM209.598 21C209.598 16.3437 211.598 13.3281 215.238 13.3281C219.004 13.3281 220.941 16.5312 220.941 21C220.941 25.5 218.973 28.7812 215.238 28.7812C211.629 28.7812 209.598 25.6562 209.598 21ZM242.02 33.4688C248.051 33.4688 251.895 29.8906 252.301 24.7969H246.895C246.41 27.375 244.551 28.8594 242.066 28.8594C238.535 28.8594 236.254 25.9062 236.254 21C236.254 16.1562 238.582 13.25 242.066 13.25C244.785 13.25 246.457 15 246.895 17.3125H252.301C251.91 12.1094 247.848 8.6875 241.988 8.6875C234.957 8.6875 230.52 13.7656 230.52 21.0937C230.52 28.3594 234.848 33.4688 242.02 33.4688ZM267.57 33.4688C273.164 33.4688 277.008 30.7344 278.008 26.5625L272.727 25.9687C271.961 28 270.086 29.0625 267.648 29.0625C263.992 29.0625 261.57 26.6562 261.523 22.5469H278.242V20.8125C278.242 12.3906 273.18 8.6875 267.273 8.6875C260.398 8.6875 255.914 13.7344 255.914 21.1406C255.914 28.6719 260.336 33.4688 267.57 33.4688ZM261.539 18.7344C261.711 15.6719 263.977 13.0937 267.352 13.0937C270.602 13.0937 272.789 15.4688 272.82 18.7344H261.539ZM304.41 33.4688C310.441 33.4688 314.285 29.8906 314.691 24.7969H309.285C308.801 27.375 306.941 28.8594 304.457 28.8594C300.926 28.8594 298.645 25.9062 298.645 21C298.645 16.1562 300.973 13.25 304.457 13.25C307.176 13.25 308.848 15 309.285 17.3125H314.691C314.301 12.1094 310.238 8.6875 304.379 8.6875C297.348 8.6875 292.91 13.7656 292.91 21.0937C292.91 28.3594 297.238 33.4688 304.41 33.4688ZM329.805 33.4688C336.836 33.4688 341.305 28.5156 341.305 21.0937C341.305 13.6562 336.836 8.6875 329.805 8.6875C322.773 8.6875 318.305 13.6562 318.305 21.0937C318.305 28.5156 322.773 33.4688 329.805 33.4688ZM329.836 28.9375C325.945 28.9375 324.039 25.4687 324.039 21.0781C324.039 16.6875 325.945 13.1719 329.836 13.1719C333.664 13.1719 335.57 16.6875 335.57 21.0781C335.57 25.4687 333.664 28.9375 329.836 28.9375ZM365.34 0.124999C364.184 0.999999 362.355 0.984374 359.871 0.984374C359.168 0.984374 358.434 0.984374 357.637 0.999999C349.371 1.10937 345.121 6.60937 345.121 17.8906V20.0469C345.121 28.8281 349.559 33.4688 356.543 33.4688C363.527 33.4688 367.934 28.8125 367.934 21.4063C367.934 14.2187 363.746 10.0781 357.793 10.0781C354.137 10.0781 351.371 11.6562 349.871 14.5937H349.605C350.168 8.60938 352.418 5.90625 357.793 5.78125C362.559 5.67188 365.23 5.59375 367.309 3.78125L365.34 0.124999ZM356.574 28.9375C353.027 28.9375 350.855 26.0937 350.855 21.5625C350.902 17.0937 353.043 14.5312 356.543 14.5312C360.043 14.5312 362.199 17.0937 362.199 21.5625C362.199 26.1094 360.059 28.9375 356.574 28.9375ZM378.199 16.8125V9H372.746V33H383.652C389.762 33 393.277 29.625 393.293 24.9062C393.277 20.0625 389.762 16.8125 383.652 16.8125H378.199ZM396.277 33H401.934V9H396.277V33ZM378.199 21.4531H383.652C386.105 21.4531 387.871 22.9062 387.871 24.9844C387.871 26.9687 386.105 28.3594 383.652 28.3594H378.199V21.4531ZM406.453 13.6406H414.219V33H419.688V13.6406H427.453V9H406.453V13.6406ZM437.41 25.3437V9H431.957V33H437.785L447.363 16.6406V33H452.832V9H447.02L437.41 25.3437ZM464.094 25.3437V9H458.641V33H464.469L474.047 16.6406V33H479.516V9H473.703L464.094 25.3437ZM472.156 0.749999C472.141 2.28125 471.266 3.64062 469.063 3.64062C466.828 3.64062 465.984 2.25 465.984 0.749999H461.781C461.766 4.40625 464.594 6.875 469.063 6.875C473.562 6.875 476.391 4.40625 476.391 0.749999H472.156Z" fill="black"/>
</svg>
