<svg width="296" height="16" viewBox="0 0 296 16" fill="none" xmlns="http://www.w3.org/2000/svg">
<path d="M0.278409 12H2.03409V6.92614H7.83523V12H9.59659V0.363636H7.83523V5.42045H2.03409V0.363636H0.278409V12ZM14.5568 12.1932C16 12.1932 16.8125 11.4602 17.1364 10.8068H17.2045V12H18.8636V6.20455C18.8636 3.66477 16.8636 3.15909 15.4773 3.15909C13.8977 3.15909 12.4432 3.79545 11.875 5.38636L13.4716 5.75C13.7216 5.13068 14.358 4.53409 15.5 4.53409C16.5966 4.53409 17.1591 5.10795 17.1591 6.09659V6.13636C17.1591 6.75568 16.5227 6.74432 14.9545 6.92614C13.3011 7.11932 11.608 7.55114 11.608 9.53409C11.608 11.25 12.8977 12.1932 14.5568 12.1932ZM14.9261 10.8295C13.9659 10.8295 13.2727 10.3977 13.2727 9.55682C13.2727 8.64773 14.0795 8.32386 15.0625 8.19318C15.6136 8.11932 16.9205 7.97159 17.1648 7.72727V8.85227C17.1648 9.88636 16.3409 10.8295 14.9261 10.8295ZM21.1264 3.27273V12H32.1548V3.27273H30.4901V10.5284H27.473V3.27273H25.8082V10.5284H22.7912V3.27273H21.1264ZM38.1847 12.1761C40.0881 12.1761 41.4347 11.2386 41.821 9.81818L40.2131 9.52841C39.9062 10.3523 39.1676 10.7727 38.2017 10.7727C36.7472 10.7727 35.7699 9.82955 35.7244 8.14773H41.929V7.54545C41.929 4.39205 40.0426 3.15909 38.0653 3.15909C35.6335 3.15909 34.0312 5.01136 34.0312 7.69318C34.0312 10.4034 35.6108 12.1761 38.1847 12.1761ZM35.7301 6.875C35.7983 5.63636 36.696 4.5625 38.0767 4.5625C39.3949 4.5625 40.2585 5.53977 40.2642 6.875H35.7301ZM51.7244 12.1761C53.7869 12.1761 55.1222 10.9375 55.3097 9.23864H53.6562C53.4403 10.1818 52.7074 10.7386 51.7358 10.7386C50.2983 10.7386 49.3722 9.53977 49.3722 7.63636C49.3722 5.76705 50.3153 4.59091 51.7358 4.59091C52.8153 4.59091 53.4744 5.27273 53.6562 6.09091H55.3097C55.1278 4.32955 53.6903 3.15909 51.7074 3.15909C49.2472 3.15909 47.6562 5.01136 47.6562 7.67614C47.6562 10.3068 49.1903 12.1761 51.7244 12.1761ZM60.8026 12.1761C63.2628 12.1761 64.8707 10.375 64.8707 7.67614C64.8707 4.96023 63.2628 3.15909 60.8026 3.15909C58.3423 3.15909 56.7344 4.96023 56.7344 7.67614C56.7344 10.375 58.3423 12.1761 60.8026 12.1761ZM60.8082 10.75C59.2003 10.75 58.4503 9.34659 58.4503 7.67045C58.4503 6 59.2003 4.57955 60.8082 4.57955C62.4048 4.57955 63.1548 6 63.1548 7.67045C63.1548 9.34659 62.4048 10.75 60.8082 10.75ZM70.4432 12.1761C72.9034 12.1761 74.5114 10.375 74.5114 7.67614C74.5114 4.96023 72.9034 3.15909 70.4432 3.15909C67.983 3.15909 66.375 4.96023 66.375 7.67614C66.375 10.375 67.983 12.1761 70.4432 12.1761ZM70.4489 10.75C68.8409 10.75 68.0909 9.34659 68.0909 7.67045C68.0909 6 68.8409 4.57955 70.4489 4.57955C72.0455 4.57955 72.7955 6 72.7955 7.67045C72.7955 9.34659 72.0455 10.75 70.4489 10.75ZM83.1406 0.022727C82.7145 0.363636 82.0668 0.363636 81.1634 0.357954C80.8963 0.357954 80.6065 0.357954 80.2884 0.363636C77.4588 0.420454 76.027 2.43182 76.027 6.42045V7.28409C76.027 10.4886 77.6179 12.1761 80.0554 12.1761C82.4929 12.1761 84.0724 10.483 84.0724 7.76705C84.0724 5.08523 82.5213 3.60227 80.419 3.60227C79.152 3.60227 78.0952 4.14205 77.527 5.22159H77.419C77.6122 3.01136 78.4418 1.91477 80.3281 1.85795C82.0043 1.80682 83.0668 1.8125 83.8452 1.09659L83.1406 0.022727ZM80.0611 10.75C78.6179 10.75 77.7372 9.59659 77.7372 7.79545C77.7599 6.02841 78.6293 5.01705 80.044 5.01705C81.4815 5.01705 82.3565 6.02841 82.3565 7.79545C82.3565 9.60227 81.4815 10.75 80.0611 10.75ZM98.4759 10.5341H96.9986V3.27273H95.3338V10.5284H92.3168V3.27273H90.652V10.5284H87.6349V3.27273H85.9702V12H96.652V14.5H98.3168L98.4759 10.5341ZM103.935 12.1761C105.838 12.1761 107.185 11.2386 107.571 9.81818L105.963 9.52841C105.656 10.3523 104.918 10.7727 103.952 10.7727C102.497 10.7727 101.52 9.82955 101.474 8.14773H107.679V7.54545C107.679 4.39205 105.793 3.15909 103.815 3.15909C101.384 3.15909 99.7812 5.01136 99.7812 7.69318C99.7812 10.4034 101.361 12.1761 103.935 12.1761ZM101.48 6.875C101.548 5.63636 102.446 4.5625 103.827 4.5625C105.145 4.5625 106.009 5.53977 106.014 6.875H101.48ZM113.24 12.1761C115.303 12.1761 116.638 10.9375 116.825 9.23864H115.172C114.956 10.1818 114.223 10.7386 113.251 10.7386C111.814 10.7386 110.888 9.53977 110.888 7.63636C110.888 5.76705 111.831 4.59091 113.251 4.59091C114.331 4.59091 114.99 5.27273 115.172 6.09091H116.825C116.643 4.32955 115.206 3.15909 113.223 3.15909C110.763 3.15909 109.172 5.01136 109.172 7.67614C109.172 10.3068 110.706 12.1761 113.24 12.1761ZM117.982 4.73864H120.839V12H122.499V4.73864H125.345V3.27273H117.982V4.73864ZM127.142 12H131.312C133.222 12 134.341 11.0341 134.341 9.64773C134.341 8.35227 133.347 7.55682 132.182 7.42045C133.256 7.21591 133.966 6.625 133.966 5.60227C133.966 4.17045 132.727 3.27273 130.761 3.27273H127.142V12ZM128.739 10.5795V8.15341H131.312C132.153 8.15341 132.659 8.64773 132.659 9.46023C132.659 10.1534 132.153 10.5795 131.312 10.5795H128.739ZM128.739 6.90909V4.71023H130.761C131.727 4.71023 132.312 5.11364 132.312 5.78409C132.312 6.48295 131.733 6.90909 130.778 6.90909H128.739ZM139.881 12.1761C142.341 12.1761 143.949 10.375 143.949 7.67614C143.949 4.96023 142.341 3.15909 139.881 3.15909C137.42 3.15909 135.812 4.96023 135.812 7.67614C135.812 10.375 137.42 12.1761 139.881 12.1761ZM139.886 10.75C138.278 10.75 137.528 9.34659 137.528 7.67045C137.528 6 138.278 4.57955 139.886 4.57955C141.483 4.57955 142.233 6 142.233 7.67045C142.233 9.34659 141.483 10.75 139.886 10.75ZM151.42 3.27273H149.557L152.239 7.63636L149.523 12H151.386L153.347 8.73864L155.312 12H157.17L154.426 7.63636L157.148 3.27273H155.29L153.347 6.67045L151.42 3.27273ZM162.209 12.1761C164.669 12.1761 166.277 10.375 166.277 7.67614C166.277 4.96023 164.669 3.15909 162.209 3.15909C159.749 3.15909 158.141 4.96023 158.141 7.67614C158.141 10.375 159.749 12.1761 162.209 12.1761ZM162.214 10.75C160.607 10.75 159.857 9.34659 159.857 7.67045C159.857 6 160.607 4.57955 162.214 4.57955C163.811 4.57955 164.561 6 164.561 7.67045C164.561 9.34659 163.811 10.75 162.214 10.75ZM175.179 3.27273H173.52V7.61932C172.946 7.77273 172.366 7.86364 171.702 7.86364C170.543 7.86364 169.827 7.34091 169.827 6.10795V3.25568H168.173V6.10795C168.173 8.28977 169.543 9.32955 171.702 9.32955C172.361 9.32955 172.963 9.23864 173.52 9.09659V12H175.179V3.27273ZM181.2 12.1761C183.104 12.1761 184.45 11.2386 184.837 9.81818L183.229 9.52841C182.922 10.3523 182.183 10.7727 181.217 10.7727C179.763 10.7727 178.786 9.82955 178.74 8.14773H184.945V7.54545C184.945 4.39205 183.058 3.15909 181.081 3.15909C178.649 3.15909 177.047 5.01136 177.047 7.69318C177.047 10.4034 178.626 12.1761 181.2 12.1761ZM178.746 6.875C178.814 5.63636 179.712 4.5625 181.092 4.5625C182.411 4.5625 183.274 5.53977 183.28 6.875H178.746ZM186.06 4.73864H188.918V12H190.577V4.73864H193.423V3.27273H186.06V4.73864ZM201.119 9.61932V3.27273H199.455V12H201.301L205.131 5.64773V12H206.795V3.27273H204.966L201.119 9.61932ZM214.659 3.27273H209.08V12H210.756V4.73864H214.659V3.27273ZM216.455 15.2727H218.153V10.642H218.256C218.562 11.1989 219.188 12.1705 220.778 12.1705C222.892 12.1705 224.426 10.4773 224.426 7.65341C224.426 4.82386 222.869 3.15909 220.761 3.15909C219.142 3.15909 218.557 4.14773 218.256 4.6875H218.114V3.27273H216.455V15.2727ZM218.119 7.63636C218.119 5.8125 218.915 4.60227 220.398 4.60227C221.938 4.60227 222.71 5.90341 222.71 7.63636C222.71 9.38636 221.915 10.7216 220.398 10.7216C218.938 10.7216 218.119 9.47159 218.119 7.63636ZM228.869 12.1932C230.312 12.1932 231.125 11.4602 231.449 10.8068H231.517V12H233.176V6.20455C233.176 3.66477 231.176 3.15909 229.79 3.15909C228.21 3.15909 226.756 3.79545 226.188 5.38636L227.784 5.75C228.034 5.13068 228.67 4.53409 229.812 4.53409C230.909 4.53409 231.472 5.10795 231.472 6.09659V6.13636C231.472 6.75568 230.835 6.74432 229.267 6.92614C227.614 7.11932 225.92 7.55114 225.92 9.53409C225.92 11.25 227.21 12.1932 228.869 12.1932ZM229.239 10.8295C228.278 10.8295 227.585 10.3977 227.585 9.55682C227.585 8.64773 228.392 8.32386 229.375 8.19318C229.926 8.11932 231.233 7.97159 231.477 7.72727V8.85227C231.477 9.88636 230.653 10.8295 229.239 10.8295ZM234.357 4.73864H237.214V12H238.874V4.73864H241.72V3.27273H234.357V4.73864ZM245.182 6.27273V3.27273H243.517V12H247.33C249.466 12 250.659 10.7614 250.659 9.11932C250.659 7.44318 249.466 6.27273 247.33 6.27273H245.182ZM245.182 7.73864H247.33C248.307 7.73864 249.006 8.32955 249.006 9.17045C249.006 9.96591 248.307 10.5341 247.33 10.5341H245.182V7.73864ZM257.872 15.25C259.276 15.25 260.168 14.517 260.668 13.1648L264.276 3.28977L262.44 3.27273L260.23 10.0455H260.139L257.929 3.27273H256.111L259.304 12.1136L259.094 12.6932C258.662 13.8239 258.054 13.9261 257.122 13.6705L256.713 15.0625C256.918 15.1591 257.361 15.25 257.872 15.25ZM270.111 12H274.281C276.19 12 277.31 11.0341 277.31 9.64773C277.31 8.35227 276.315 7.55682 275.151 7.42045C276.224 7.21591 276.935 6.625 276.935 5.60227C276.935 4.17045 275.696 3.27273 273.73 3.27273H270.111V12ZM271.707 10.5795V8.15341H274.281C275.122 8.15341 275.628 8.64773 275.628 9.46023C275.628 10.1534 275.122 10.5795 274.281 10.5795H271.707ZM271.707 6.90909V4.71023H273.73C274.696 4.71023 275.281 5.11364 275.281 5.78409C275.281 6.48295 274.702 6.90909 273.747 6.90909H271.707ZM281.713 12.1932C283.156 12.1932 283.969 11.4602 284.293 10.8068H284.361V12H286.02V6.20455C286.02 3.66477 284.02 3.15909 282.634 3.15909C281.054 3.15909 279.599 3.79545 279.031 5.38636L280.628 5.75C280.878 5.13068 281.514 4.53409 282.656 4.53409C283.753 4.53409 284.315 5.10795 284.315 6.09659V6.13636C284.315 6.75568 283.679 6.74432 282.111 6.92614C280.457 7.11932 278.764 7.55114 278.764 9.53409C278.764 11.25 280.054 12.1932 281.713 12.1932ZM282.082 10.8295C281.122 10.8295 280.429 10.3977 280.429 9.55682C280.429 8.64773 281.236 8.32386 282.219 8.19318C282.77 8.11932 284.077 7.97159 284.321 7.72727V8.85227C284.321 9.88636 283.497 10.8295 282.082 10.8295ZM291.959 12.1761C294.021 12.1761 295.357 10.9375 295.544 9.23864H293.891C293.675 10.1818 292.942 10.7386 291.97 10.7386C290.533 10.7386 289.607 9.53977 289.607 7.63636C289.607 5.76705 290.55 4.59091 291.97 4.59091C293.05 4.59091 293.709 5.27273 293.891 6.09091H295.544C295.362 4.32955 293.925 3.15909 291.942 3.15909C289.482 3.15909 287.891 5.01136 287.891 7.67614C287.891 10.3068 289.425 12.1761 291.959 12.1761Z" fill="#0094FF"/>
</svg>
