<svg width="323" height="102" viewBox="0 0 323 102" fill="none" xmlns="http://www.w3.org/2000/svg">
<path d="M12.1193 5C11.6335 2.31534 9.4858 0.730113 6.85227 0.730113C3.50284 0.730113 1.07386 3.3125 1.07386 7.45455C1.07386 11.5966 3.50284 14.179 6.85227 14.179C9.4858 14.179 11.6335 12.5938 12.1193 9.90909H10.5341C10.1506 11.7244 8.59091 12.696 6.85227 12.696C4.47443 12.696 2.60795 10.8551 2.60795 7.45455C2.60795 4.05398 4.47443 2.21307 6.85227 2.21307C8.59091 2.21307 10.1506 3.18466 10.5341 5H12.1193ZM18.465 14.2045C21.1241 14.2045 22.9139 12.1847 22.9139 9.14205C22.9139 6.07386 21.1241 4.05398 18.465 4.05398C15.8059 4.05398 14.0162 6.07386 14.0162 9.14205C14.0162 12.1847 15.8059 14.2045 18.465 14.2045ZM18.465 12.8494C16.4451 12.8494 15.5247 11.1108 15.5247 9.14205C15.5247 7.1733 16.4451 5.40909 18.465 5.40909C20.4849 5.40909 21.4054 7.1733 21.4054 9.14205C21.4054 11.1108 20.4849 12.8494 18.465 12.8494ZM29.2053 14.2045C31.8643 14.2045 33.6541 12.1847 33.6541 9.14205C33.6541 6.07386 31.8643 4.05398 29.2053 4.05398C26.5462 4.05398 24.7564 6.07386 24.7564 9.14205C24.7564 12.1847 26.5462 14.2045 29.2053 14.2045ZM29.2053 12.8494C27.1854 12.8494 26.2649 11.1108 26.2649 9.14205C26.2649 7.1733 27.1854 5.40909 29.2053 5.40909C31.2251 5.40909 32.1456 7.1733 32.1456 9.14205C32.1456 11.1108 31.2251 12.8494 29.2053 12.8494ZM43.2438 0.5C42.7644 0.902698 42.0485 0.902698 41.0449 0.896306C40.7189 0.896306 40.361 0.896306 39.9711 0.909091C36.9796 0.985795 35.4966 3.26136 35.4966 7.63352V8.68182C35.4966 12.3125 37.2608 14.2045 39.8944 14.2045C42.5215 14.2045 44.2665 12.2997 44.2665 9.21875C44.2665 6.125 42.4959 4.48864 40.2012 4.48864C38.8525 4.48864 37.5932 5.05114 36.9284 6.27841H36.8006C37.0051 3.74716 37.9512 2.39205 39.9966 2.31534C41.812 2.23864 43.1159 2.28977 44.0108 1.42045L43.2438 0.5ZM39.8944 12.8494C38.1046 12.8494 37.0051 11.4176 37.0051 9.21875C37.0371 7.07102 38.1174 5.84375 39.8688 5.84375C41.665 5.84375 42.758 7.07102 42.758 9.21875C42.758 11.4304 41.6713 12.8494 39.8944 12.8494ZM59.9718 12.5938H58.5144V4.18182H57.0059V12.5938H53.2985V4.18182H51.79V12.5938H48.0826V4.18182H46.574V14H58.2331V16.8125H59.7928L59.9718 12.5938ZM66.1768 14.2045C68.1712 14.2045 69.6286 13.2074 70.0888 11.7244L68.6314 11.3153C68.2479 12.3381 67.3594 12.8494 66.1768 12.8494C64.4062 12.8494 63.1854 11.7053 63.1151 9.60227H70.2422V8.96307C70.2422 5.30682 68.0689 4.05398 66.0234 4.05398C63.3643 4.05398 61.6001 6.15057 61.6001 9.16761C61.6001 12.1847 63.3388 14.2045 66.1768 14.2045ZM63.1151 8.2983C63.2173 6.7706 64.2976 5.40909 66.0234 5.40909C67.6598 5.40909 68.7081 6.63636 68.7081 8.2983H63.1151ZM76.5256 14.2045C78.6989 14.2045 80.1307 12.875 80.3864 11.1364H78.8778C78.5966 12.2102 77.7017 12.8494 76.5256 12.8494C74.7358 12.8494 73.5852 11.3665 73.5852 9.09091C73.5852 6.86648 74.7614 5.40909 76.5256 5.40909C77.8551 5.40909 78.6477 6.22727 78.8778 7.12216H80.3864C80.1307 5.28125 78.571 4.05398 76.5 4.05398C73.8409 4.05398 72.0767 6.15057 72.0767 9.14205C72.0767 12.0824 73.7642 14.2045 76.5256 14.2045ZM81.8182 5.58807H85.0653V14H86.5739V5.58807H89.7955V4.18182H81.8182V5.58807ZM91.9959 14H96.6238C98.6181 14 99.8198 12.875 99.8198 11.3665C99.8198 9.82599 98.65 8.99503 97.5698 8.83523C98.6756 8.60511 99.4618 7.98509 99.4618 6.78977C99.4618 5.22372 98.1195 4.18182 96.0101 4.18182H91.9959V14ZM93.4277 12.6193V9.60227H96.6238C97.6593 9.60227 98.2857 10.2223 98.2857 11.2386C98.2857 12.0952 97.6593 12.6193 96.6238 12.6193H93.4277ZM93.4277 8.2983V5.5625H96.0101C97.2182 5.5625 97.9533 6.06747 97.9533 6.89205C97.9533 7.76776 97.2182 8.2983 96.0101 8.2983H93.4277ZM106.092 14.2045C108.751 14.2045 110.541 12.1847 110.541 9.14205C110.541 6.07386 108.751 4.05398 106.092 4.05398C103.433 4.05398 101.643 6.07386 101.643 9.14205C101.643 12.1847 103.433 14.2045 106.092 14.2045ZM106.092 12.8494C104.072 12.8494 103.152 11.1108 103.152 9.14205C103.152 7.1733 104.072 5.40909 106.092 5.40909C108.112 5.40909 109.032 7.1733 109.032 9.14205C109.032 11.1108 108.112 12.8494 106.092 12.8494ZM117.906 14H119.415V5.58807H124.119V14H125.628V4.18182H117.906V14ZM132.371 14.2045C135.03 14.2045 136.82 12.1847 136.82 9.14205C136.82 6.07386 135.03 4.05398 132.371 4.05398C129.712 4.05398 127.922 6.07386 127.922 9.14205C127.922 12.1847 129.712 14.2045 132.371 14.2045ZM132.371 12.8494C130.351 12.8494 129.431 11.1108 129.431 9.14205C129.431 7.1733 130.351 5.40909 132.371 5.40909C134.391 5.40909 135.312 7.1733 135.312 9.14205C135.312 11.1108 134.391 12.8494 132.371 12.8494ZM138.254 14H138.765C140.938 14 141.565 12.3125 141.705 9.09091L141.859 5.58807H145.464V14H146.972V4.18182H140.427L140.248 8.52841C140.12 11.8267 139.788 12.5938 138.612 12.5938H138.254V14ZM151.249 11.7756V4.18182H149.74V14H151.504L156.209 6.40625V14H157.717V4.18182H155.979L151.249 11.7756ZM168.202 4.18182H166.693V12.5938H161.989V4.18182H160.48V14H168.202V17.1705H169.71V12.5938H168.202V4.18182ZM173.415 11.7756V4.18182H171.906V14H173.67L178.375 6.40625V14H179.883V4.18182H178.145L173.415 11.7756ZM184.155 11.7756V4.18182H182.646V14H184.411L189.115 6.40625V14H190.624V4.18182H188.885L184.155 11.7756ZM198.449 4.18182V14H210.389V4.18182H208.881V12.5938H205.173V4.18182H203.665V12.5938H199.958V4.18182H198.449ZM211.808 5.58807H215.056V14H216.564V5.58807H219.786V4.18182H211.808V5.58807ZM224.366 14.2301C226.079 14.2301 226.974 13.3097 227.28 12.6705H227.357V14H228.866V7.53125C228.866 4.41193 226.488 4.05398 225.235 4.05398C223.752 4.05398 222.064 4.56534 221.297 6.35511L222.729 6.86648C223.062 6.15057 223.848 5.38352 225.286 5.38352C226.673 5.38352 227.357 6.11861 227.357 7.37784V7.42898C227.357 8.15767 226.616 8.09375 224.826 8.32386C223.004 8.56037 221.016 8.96307 221.016 11.2131C221.016 13.1307 222.499 14.2301 224.366 14.2301ZM224.596 12.875C223.394 12.875 222.525 12.3381 222.525 11.2898C222.525 10.1392 223.573 9.78125 224.749 9.62784C225.388 9.55114 227.101 9.37216 227.357 9.06534V10.446C227.357 11.6733 226.385 12.875 224.596 12.875ZM230.283 5.58807H233.53V14H235.039V5.58807H238.26V4.18182H230.283V5.58807ZM242.84 14.2301C244.553 14.2301 245.448 13.3097 245.755 12.6705H245.832V14H247.34V7.53125C247.34 4.41193 244.962 4.05398 243.71 4.05398C242.227 4.05398 240.539 4.56534 239.772 6.35511L241.204 6.86648C241.536 6.15057 242.322 5.38352 243.761 5.38352C245.148 5.38352 245.832 6.11861 245.832 7.37784V7.42898C245.832 8.15767 245.09 8.09375 243.3 8.32386C241.479 8.56037 239.491 8.96307 239.491 11.2131C239.491 13.1307 240.974 14.2301 242.84 14.2301ZM243.07 12.875C241.869 12.875 240.999 12.3381 240.999 11.2898C240.999 10.1392 242.048 9.78125 243.224 9.62784C243.863 9.55114 245.576 9.37216 245.832 9.06534V10.446C245.832 11.6733 244.86 12.875 243.07 12.875ZM251.193 14.1023C251.826 14.1023 252.344 13.5845 252.344 12.9517C252.344 12.3189 251.826 11.8011 251.193 11.8011C250.56 11.8011 250.042 12.3189 250.042 12.9517C250.042 13.5845 250.56 14.1023 251.193 14.1023ZM270.852 5C270.366 2.31534 268.218 0.730113 265.585 0.730113C262.235 0.730113 259.806 3.3125 259.806 7.45455C259.806 11.5966 262.235 14.179 265.585 14.179C268.218 14.179 270.366 12.5938 270.852 9.90909H269.267C268.883 11.7244 267.323 12.696 265.585 12.696C263.207 12.696 261.34 10.8551 261.34 7.45455C261.34 4.05398 263.207 2.21307 265.585 2.21307C267.323 2.21307 268.883 3.18466 269.267 5H270.852ZM272.339 14H272.851C275.024 14 275.651 12.3125 275.791 9.09091L275.945 5.58807H279.55V14H281.058V4.18182H274.513L274.334 8.52841C274.206 11.8267 273.874 12.5938 272.697 12.5938H272.339V14ZM287.942 14.2045C289.937 14.2045 291.394 13.2074 291.854 11.7244L290.397 11.3153C290.013 12.3381 289.125 12.8494 287.942 12.8494C286.172 12.8494 284.951 11.7053 284.881 9.60227H292.008V8.96307C292.008 5.30682 289.835 4.05398 287.789 4.05398C285.13 4.05398 283.366 6.15057 283.366 9.16761C283.366 12.1847 285.104 14.2045 287.942 14.2045ZM284.881 8.2983C284.983 6.7706 286.063 5.40909 287.789 5.40909C289.425 5.40909 290.474 6.63636 290.474 8.2983H284.881ZM293.254 16.8125H294.763V14H302.024V16.8125H303.533V12.5938H302.024V4.18182H295.786L295.453 8.06818C295.217 10.8168 294.865 11.7628 294.072 12.5938H293.254V16.8125ZM295.786 12.5938C296.476 11.6861 296.725 10.12 296.936 8.06818L297.192 5.58807H300.516V12.5938H295.786ZM307.044 11.7756V4.18182H305.535V14H307.299L312.004 6.40625V14H313.512V4.18182H311.774L307.044 11.7756ZM314.939 5.58807H318.186V14H319.695V5.58807H322.917V4.18182H314.939V5.58807ZM0.767045 39.4943C0.818182 41.1051 2.35866 42.2045 4.44886 42.2045C6.59659 42.2045 8.15625 41.054 8.15625 39.2642C8.15625 38.0369 7.42116 37.0398 6.31534 36.9631V36.8608C7.24858 36.5732 7.9517 35.8956 7.9517 34.7898C7.9517 33.2365 6.62216 32.054 4.55114 32.054C2.50568 32.054 1.0483 33.179 0.997159 34.7642H2.58239C2.62713 33.9524 3.47727 33.3835 4.62784 33.3835C5.77202 33.3835 6.41761 33.9652 6.41761 34.8409C6.41761 35.6591 5.85511 36.2727 4.65341 36.2727H2.96591V37.6278H4.65341C5.85511 37.6278 6.62216 38.2862 6.62216 39.2642C6.62216 40.3828 5.63139 40.8494 4.4233 40.8494C3.24077 40.8494 2.44815 40.3828 2.37784 39.4943H0.767045ZM13.1644 42.2301C14.8775 42.2301 15.7724 41.3097 16.0792 40.6705H16.1559V42H17.6644V35.5312C17.6644 32.4119 15.2866 32.054 14.0337 32.054C12.5508 32.054 10.8633 32.5653 10.0962 34.3551L11.5281 34.8665C11.8604 34.1506 12.6467 33.3835 14.0849 33.3835C15.4719 33.3835 16.1559 34.1186 16.1559 35.3778V35.429C16.1559 36.1577 15.4144 36.0938 13.6246 36.3239C11.8029 36.5604 9.81499 36.9631 9.81499 39.2131C9.81499 41.1307 11.2979 42.2301 13.1644 42.2301ZM13.3945 40.875C12.1928 40.875 11.3235 40.3381 11.3235 39.2898C11.3235 38.1392 12.3718 37.7812 13.5479 37.6278C14.1871 37.5511 15.9002 37.3722 16.1559 37.0653V38.446C16.1559 39.6733 15.1843 40.875 13.3945 40.875ZM29.4689 42.2045C31.6422 42.2045 33.074 40.875 33.3297 39.1364H31.8212C31.54 40.2102 30.6451 40.8494 29.4689 40.8494C27.6792 40.8494 26.5286 39.3665 26.5286 37.0909C26.5286 34.8665 27.7047 33.4091 29.4689 33.4091C30.7985 33.4091 31.5911 34.2273 31.8212 35.1222H33.3297C33.074 33.2812 31.5144 32.054 29.4434 32.054C26.7843 32.054 25.0201 34.1506 25.0201 37.142C25.0201 40.0824 26.7076 42.2045 29.4689 42.2045ZM39.5236 42.2045C42.1827 42.2045 43.9725 40.1847 43.9725 37.142C43.9725 34.0739 42.1827 32.054 39.5236 32.054C36.8645 32.054 35.0748 34.0739 35.0748 37.142C35.0748 40.1847 36.8645 42.2045 39.5236 42.2045ZM39.5236 40.8494C37.5037 40.8494 36.5833 39.1108 36.5833 37.142C36.5833 35.1733 37.5037 33.4091 39.5236 33.4091C41.5435 33.4091 42.464 35.1733 42.464 37.142C42.464 39.1108 41.5435 40.8494 39.5236 40.8494ZM53.5621 28.5C53.0827 28.9027 52.3668 28.9027 51.3633 28.8963C51.0373 28.8963 50.6793 28.8963 50.2894 28.9091C47.2979 28.9858 45.815 31.2614 45.815 35.6335V36.6818C45.815 40.3125 47.5792 42.2045 50.2127 42.2045C52.8398 42.2045 54.5849 40.2997 54.5849 37.2188C54.5849 34.125 52.8143 32.4886 50.5195 32.4886C49.1708 32.4886 47.9116 33.0511 47.2468 34.2784H47.119C47.3235 31.7472 48.2695 30.392 50.315 30.3153C52.1303 30.2386 53.4343 30.2898 54.3292 29.4205L53.5621 28.5ZM50.2127 40.8494C48.4229 40.8494 47.3235 39.4176 47.3235 37.2188C47.3555 35.071 48.4357 33.8438 50.1871 33.8438C51.9833 33.8438 53.0763 35.071 53.0763 37.2188C53.0763 39.4304 51.9897 40.8494 50.2127 40.8494ZM56.0231 42H56.5344C58.7077 42 59.3342 40.3125 59.4748 37.0909L59.6282 33.5881H63.2333V42H64.7418V32.1818H58.1964L58.0174 36.5284C57.8896 39.8267 57.5572 40.5938 56.381 40.5938H56.0231V42ZM68.3022 32.1818H66.7937V42H68.3022V37.8835H70.8207C71.0891 40.5107 72.7958 42.2045 75.2312 42.2045C77.8903 42.2045 79.68 40.1847 79.68 37.142C79.68 34.0739 77.8903 32.054 75.2312 32.054C72.7702 32.054 71.0508 33.7862 70.8143 36.4773H68.3022V32.1818ZM75.2312 40.8494C73.2113 40.8494 72.2908 39.1108 72.2908 37.142C72.2908 35.1733 73.2113 33.4091 75.2312 33.4091C77.2511 33.4091 78.1715 35.1733 78.1715 37.142C78.1715 39.1108 77.2511 40.8494 75.2312 40.8494ZM81.0863 44.8125H82.5948V42H89.8562V44.8125H91.3647V40.5938H89.8562V32.1818H83.6175L83.2852 36.0682C83.0487 38.8168 82.6971 39.7628 81.9045 40.5938H81.0863V44.8125ZM83.6175 40.5938C84.3079 39.6861 84.5572 38.12 84.7681 36.0682L85.0238 33.5881H88.3477V40.5938H83.6175ZM97.4835 42.2045C99.4778 42.2045 100.935 41.2074 101.395 39.7244L99.938 39.3153C99.5545 40.3381 98.666 40.8494 97.4835 40.8494C95.7129 40.8494 94.492 39.7053 94.4217 37.6023H101.549V36.9631C101.549 33.3068 99.3755 32.054 97.3301 32.054C94.671 32.054 92.9068 34.1506 92.9068 37.1676C92.9068 40.1847 94.6454 42.2045 97.4835 42.2045ZM94.4217 36.2983C94.524 34.7706 95.6042 33.4091 97.3301 33.4091C98.9664 33.4091 100.015 34.6364 100.015 36.2983H94.4217ZM105.352 32.1818H103.844V42H105.352V37.8068H110.057V42H111.565V32.1818H110.057V36.4006H105.352V32.1818ZM115.829 39.7756V32.1818H114.32V42H116.084L120.789 34.4062V42H122.297V32.1818H120.559L115.829 39.7756ZM129.177 42.2045C131.171 42.2045 132.629 41.2074 133.089 39.7244L131.631 39.3153C131.248 40.3381 130.359 40.8494 129.177 40.8494C127.406 40.8494 126.185 39.7053 126.115 37.6023H133.242V36.9631C133.242 33.3068 131.069 32.054 129.023 32.054C126.364 32.054 124.6 34.1506 124.6 37.1676C124.6 40.1847 126.339 42.2045 129.177 42.2045ZM126.115 36.2983C126.217 34.7706 127.298 33.4091 129.023 33.4091C130.66 33.4091 131.708 34.6364 131.708 36.2983H126.115ZM140.906 39.9545L137.531 32.1818H135.537V42H137.045V34.3487L140.293 42H141.52L144.767 34.4893V42H146.276V32.1818H144.332L140.906 39.9545ZM153.486 39.4943C153.537 41.1051 155.077 42.2045 157.168 42.2045C159.315 42.2045 160.875 41.054 160.875 39.2642C160.875 38.0369 160.14 37.0398 159.034 36.9631V36.8608C159.967 36.5732 160.67 35.8956 160.67 34.7898C160.67 33.2365 159.341 32.054 157.27 32.054C155.224 32.054 153.767 33.179 153.716 34.7642H155.301C155.346 33.9524 156.196 33.3835 157.347 33.3835C158.491 33.3835 159.136 33.9652 159.136 34.8409C159.136 35.6591 158.574 36.2727 157.372 36.2727H155.685V37.6278H157.372C158.574 37.6278 159.341 38.2862 159.341 39.2642C159.341 40.3828 158.35 40.8494 157.142 40.8494C155.96 40.8494 155.167 40.3828 155.097 39.4943H153.486ZM165.883 42.2301C167.596 42.2301 168.491 41.3097 168.798 40.6705H168.875V42H170.383V35.5312C170.383 32.4119 168.005 32.054 166.752 32.054C165.27 32.054 163.582 32.5653 162.815 34.3551L164.247 34.8665C164.579 34.1506 165.365 33.3835 166.804 33.3835C168.191 33.3835 168.875 34.1186 168.875 35.3778V35.429C168.875 36.1577 168.133 36.0938 166.343 36.3239C164.522 36.5604 162.534 36.9631 162.534 39.2131C162.534 41.1307 164.017 42.2301 165.883 42.2301ZM166.113 40.875C164.912 40.875 164.042 40.3381 164.042 39.2898C164.042 38.1392 165.091 37.7812 166.267 37.6278C166.906 37.5511 168.619 37.3722 168.875 37.0653V38.446C168.875 39.6733 167.903 40.875 166.113 40.875ZM173.137 42H174.645V37.858H176L179.222 42H181.165L177.151 36.9119L181.114 32.1818H179.171L175.642 36.4517H174.645V32.1818H173.137V42ZM186.389 42.2045C189.048 42.2045 190.838 40.1847 190.838 37.142C190.838 34.0739 189.048 32.054 186.389 32.054C183.73 32.054 181.94 34.0739 181.94 37.142C181.94 40.1847 183.73 42.2045 186.389 42.2045ZM186.389 40.8494C184.369 40.8494 183.449 39.1108 183.449 37.142C183.449 35.1733 184.369 33.4091 186.389 33.4091C188.409 33.4091 189.329 35.1733 189.329 37.142C189.329 39.1108 188.409 40.8494 186.389 40.8494ZM194.649 32.1818H193.14V42H194.649V37.8068H199.354V42H200.862V32.1818H199.354V36.4006H194.649V32.1818ZM206.506 42.2301C208.219 42.2301 209.114 41.3097 209.421 40.6705H209.498V42H211.006V35.5312C211.006 32.4119 208.628 32.054 207.376 32.054C205.893 32.054 204.205 32.5653 203.438 34.3551L204.87 34.8665C205.202 34.1506 205.988 33.3835 207.427 33.3835C208.814 33.3835 209.498 34.1186 209.498 35.3778V35.429C209.498 36.1577 208.756 36.0938 206.966 36.3239C205.145 36.5604 203.157 36.9631 203.157 39.2131C203.157 41.1307 204.64 42.2301 206.506 42.2301ZM206.736 40.875C205.535 40.875 204.665 40.3381 204.665 39.2898C204.665 38.1392 205.714 37.7812 206.89 37.6278C207.529 37.5511 209.242 37.3722 209.498 37.0653V38.446C209.498 39.6733 208.526 40.875 206.736 40.875ZM220.331 39.7756V32.1818H218.822V42H220.586L225.291 34.4062V42H226.799V32.1818H225.061L220.331 39.7756ZM234.625 42H236.133V33.5881H240.838V42H242.346V32.1818H234.625V42ZM249.09 42.2045C251.749 42.2045 253.539 40.1847 253.539 37.142C253.539 34.0739 251.749 32.054 249.09 32.054C246.431 32.054 244.641 34.0739 244.641 37.142C244.641 40.1847 246.431 42.2045 249.09 42.2045ZM249.09 40.8494C247.07 40.8494 246.15 39.1108 246.15 37.142C246.15 35.1733 247.07 33.4091 249.09 33.4091C251.11 33.4091 252.03 35.1733 252.03 37.142C252.03 39.1108 251.11 40.8494 249.09 40.8494ZM255.842 45.6818H257.35V40.4915H257.478C257.81 41.0284 258.45 42.2045 260.342 42.2045C262.796 42.2045 264.509 40.2358 264.509 37.1165C264.509 34.0227 262.796 32.054 260.316 32.054C258.398 32.054 257.81 33.2301 257.478 33.7415H257.299V32.1818H255.842V45.6818ZM257.325 37.0909C257.325 34.892 258.296 33.4091 260.137 33.4091C262.055 33.4091 263.001 35.0199 263.001 37.0909C263.001 39.1875 262.029 40.8494 260.137 40.8494C258.322 40.8494 257.325 39.3153 257.325 37.0909ZM272.717 42H274.148V32.1818H270.109C267.993 32.1818 266.708 33.2876 266.708 35.0966C266.708 36.4453 267.386 37.4041 268.568 37.8068L266.171 42H267.808L270.083 38.0114H272.717V42ZM272.717 36.6051H269.93C268.862 36.6051 268.217 36.0362 268.217 35.0966C268.217 34.1442 268.933 33.5625 270.109 33.5625H272.717V36.6051ZM275.869 44.8125H277.378V42H284.639V44.8125H286.148V40.5938H284.639V32.1818H278.401L278.068 36.0682C277.832 38.8168 277.48 39.7628 276.688 40.5938H275.869V44.8125ZM278.401 40.5938C279.091 39.6861 279.34 38.12 279.551 36.0682L279.807 33.5881H283.131V40.5938H278.401ZM288.15 42H289.659V37.858H291.014L294.235 42H296.179L292.164 36.9119L296.127 32.1818H294.184L290.656 36.4517H289.659V32.1818H288.15V42ZM300.707 42.2301C302.42 42.2301 303.315 41.3097 303.622 40.6705H303.699V42H305.207V35.5312C305.207 32.4119 302.83 32.054 301.577 32.054C300.094 32.054 298.406 32.5653 297.639 34.3551L299.071 34.8665C299.403 34.1506 300.19 33.3835 301.628 33.3835C303.015 33.3835 303.699 34.1186 303.699 35.3778V35.429C303.699 36.1577 302.957 36.0938 301.168 36.3239C299.346 36.5604 297.358 36.9631 297.358 39.2131C297.358 41.1307 298.841 42.2301 300.707 42.2301ZM300.938 40.875C299.736 40.875 298.866 40.3381 298.866 39.2898C298.866 38.1392 299.915 37.7812 301.091 37.6278C301.73 37.5511 303.443 37.3722 303.699 37.0653V38.446C303.699 39.6733 302.727 40.875 300.938 40.875ZM309.06 42.1023C309.693 42.1023 310.211 41.5845 310.211 40.9517C310.211 40.3189 309.693 39.8011 309.06 39.8011C308.427 39.8011 307.91 40.3189 307.91 40.9517C307.91 41.5845 308.427 42.1023 309.06 42.1023ZM1.58523 56.9091V70H3.11932L10.2528 59.7216H10.3807V70H11.9659V56.9091H10.4318L3.27273 67.2131H3.14489V56.9091H1.58523ZM20.3027 67.9545L16.9277 60.1818H14.9334V70H16.4419V62.3487L19.6891 70H20.9164L24.1635 62.4893V70H25.6721V60.1818H23.7289L20.3027 67.9545ZM32.5499 70.2045C34.5442 70.2045 36.0016 69.2074 36.4618 67.7244L35.0044 67.3153C34.6209 68.3381 33.7324 68.8494 32.5499 68.8494C30.7793 68.8494 29.5584 67.7053 29.4881 65.6023H36.6152V64.9631C36.6152 61.3068 34.4419 60.054 32.3965 60.054C29.7374 60.054 27.9732 62.1506 27.9732 65.1676C27.9732 68.1847 29.7118 70.2045 32.5499 70.2045ZM29.4881 64.2983C29.5904 62.7706 30.6706 61.4091 32.3965 61.4091C34.0328 61.4091 35.0811 62.6364 35.0811 64.2983H29.4881ZM43.0265 70.2045C45.0208 70.2045 46.4782 69.2074 46.9384 67.7244L45.481 67.3153C45.0975 68.3381 44.209 68.8494 43.0265 68.8494C41.2559 68.8494 40.035 67.7053 39.9647 65.6023H47.0918V64.9631C47.0918 61.3068 44.9185 60.054 42.873 60.054C40.214 60.054 38.4498 62.1506 38.4498 65.1676C38.4498 68.1847 40.1884 70.2045 43.0265 70.2045ZM39.9647 64.2983C40.0669 62.7706 41.1472 61.4091 42.873 61.4091C44.5094 61.4091 45.5577 62.6364 45.5577 64.2983H39.9647ZM48.4725 61.5881H51.7196V70H53.2282V61.5881H56.4498V60.1818H48.4725V61.5881ZM66.6019 70.2301C68.315 70.2301 69.2099 69.3097 69.5167 68.6705H69.5934V70H71.1019V63.5312C71.1019 60.4119 68.7241 60.054 67.4712 60.054C65.9883 60.054 64.3008 60.5653 63.5337 62.3551L64.9656 62.8665C65.2979 62.1506 66.0842 61.3835 67.5224 61.3835C68.9094 61.3835 69.5934 62.1186 69.5934 63.3778V63.429C69.5934 64.1577 68.8519 64.0938 67.0621 64.3239C65.2404 64.5604 63.2525 64.9631 63.2525 67.2131C63.2525 69.1307 64.7354 70.2301 66.6019 70.2301ZM66.832 68.875C65.6303 68.875 64.761 68.3381 64.761 67.2898C64.761 66.1392 65.8093 65.7812 66.9854 65.6278C67.6246 65.5511 69.3377 65.3722 69.5934 65.0653V66.446C69.5934 67.6733 68.6218 68.875 66.832 68.875ZM73.8553 70H75.3638V65.858H76.7189L79.9405 70H81.8837L77.8695 64.9119L81.8326 60.1818H79.8894L76.361 64.4517H75.3638V60.1818H73.8553V70ZM86.4125 70.2301C88.1255 70.2301 89.0204 69.3097 89.3272 68.6705H89.4039V70H90.9125V63.5312C90.9125 60.4119 88.5346 60.054 87.2818 60.054C85.7988 60.054 84.1113 60.5653 83.3443 62.3551L84.7761 62.8665C85.1085 62.1506 85.8947 61.3835 87.3329 61.3835C88.72 61.3835 89.4039 62.1186 89.4039 63.3778V63.429C89.4039 64.1577 88.6625 64.0938 86.8727 64.3239C85.051 64.5604 83.063 64.9631 83.063 67.2131C83.063 69.1307 84.546 70.2301 86.4125 70.2301ZM86.6426 68.875C85.4409 68.875 84.5716 68.3381 84.5716 67.2898C84.5716 66.1392 85.6199 65.7812 86.796 65.6278C87.4352 65.5511 89.1483 65.3722 89.4039 65.0653V66.446C89.4039 67.6733 88.4324 68.875 86.6426 68.875ZM92.6175 72.8125H94.1261V70H101.387V72.8125H102.896V68.5938H101.387V60.1818H95.1488L94.8164 64.0682C94.5799 66.8168 94.2283 67.7628 93.4357 68.5938H92.6175V72.8125ZM95.1488 68.5938C95.8391 67.6861 96.0884 66.12 96.2994 64.0682L96.555 61.5881H99.8789V68.5938H95.1488ZM109.015 70.2045C111.009 70.2045 112.466 69.2074 112.927 67.7244L111.469 67.3153C111.086 68.3381 110.197 68.8494 109.015 68.8494C107.244 68.8494 106.023 67.7053 105.953 65.6023H113.08V64.9631C113.08 61.3068 110.907 60.054 108.861 60.054C106.202 60.054 104.438 62.1506 104.438 65.1676C104.438 68.1847 106.177 70.2045 109.015 70.2045ZM105.953 64.2983C106.055 62.7706 107.135 61.4091 108.861 61.4091C110.498 61.4091 111.546 62.6364 111.546 64.2983H105.953ZM120.744 67.9545L117.369 60.1818H115.375V70H116.883V62.3487L120.131 70H121.358L124.605 62.4893V70H126.113V60.1818H124.17L120.744 67.9545ZM130.383 67.7756V60.1818H128.875V70H130.639L135.344 62.4062V70H136.852V60.1818H135.113L130.383 67.7756ZM140.408 60.1818H138.899V70H140.408V65.8835H142.926C143.195 68.5107 144.901 70.2045 147.337 70.2045C149.996 70.2045 151.786 68.1847 151.786 65.142C151.786 62.0739 149.996 60.054 147.337 60.054C144.876 60.054 143.156 61.7862 142.92 64.4773H140.408V60.1818ZM147.337 68.8494C145.317 68.8494 144.396 67.1108 144.396 65.142C144.396 63.1733 145.317 61.4091 147.337 61.4091C149.357 61.4091 150.277 63.1733 150.277 65.142C150.277 67.1108 149.357 68.8494 147.337 68.8494ZM158.254 72.8125H159.763V70H167.024V72.8125H168.533V68.5938H167.024V60.1818H160.786L160.453 64.0682C160.217 66.8168 159.865 67.7628 159.072 68.5938H158.254V72.8125ZM160.786 68.5938C161.476 67.6861 161.725 66.12 161.936 64.0682L162.192 61.5881H165.516V68.5938H160.786ZM169.666 70H170.177C172.35 70 172.977 68.3125 173.117 65.0909L173.271 61.5881H176.876V70H178.384V60.1818H171.839L171.66 64.5284C171.532 67.8267 171.2 68.5938 170.024 68.5938H169.666V70ZM187.058 70H188.49V60.1818H184.45C182.335 60.1818 181.05 61.2876 181.05 63.0966C181.05 64.4453 181.727 65.4041 182.91 65.8068L180.513 70H182.149L184.425 66.0114H187.058V70ZM187.058 64.6051H184.271C183.204 64.6051 182.558 64.0362 182.558 63.0966C182.558 62.1442 183.274 61.5625 184.45 61.5625H187.058V64.6051ZM200.311 70.2045C202.97 70.2045 204.76 68.1847 204.76 65.142C204.76 62.0739 202.97 60.054 200.311 60.054C197.652 60.054 195.862 62.0739 195.862 65.142C195.862 68.1847 197.652 70.2045 200.311 70.2045ZM200.311 68.8494C198.291 68.8494 197.37 67.1108 197.37 65.142C197.37 63.1733 198.291 61.4091 200.311 61.4091C202.331 61.4091 203.251 63.1733 203.251 65.142C203.251 67.1108 202.331 68.8494 200.311 68.8494ZM214.349 56.5C213.87 56.9027 213.154 56.9027 212.15 56.8963C211.824 56.8963 211.466 56.8963 211.077 56.9091C208.085 56.9858 206.602 59.2614 206.602 63.6335V64.6818C206.602 68.3125 208.366 70.2045 211 70.2045C213.627 70.2045 215.372 68.2997 215.372 65.2188C215.372 62.125 213.601 60.4886 211.307 60.4886C209.958 60.4886 208.699 61.0511 208.034 62.2784H207.906C208.111 59.7472 209.057 58.392 211.102 58.3153C212.917 58.2386 214.221 58.2898 215.116 57.4205L214.349 56.5ZM211 68.8494C209.21 68.8494 208.111 67.4176 208.111 65.2188C208.143 63.071 209.223 61.8438 210.974 61.8438C212.77 61.8438 213.863 63.071 213.863 65.2188C213.863 67.4304 212.777 68.8494 211 68.8494ZM218.651 73.6562C220.013 73.6562 220.978 72.9339 221.54 71.4318L225.721 60.2074L224.072 60.1818L221.361 68.0057H221.259L218.549 60.1818H216.912L220.543 70.0511L220.262 70.8182C219.725 72.2884 219.035 72.429 217.935 72.1477L217.552 73.4773C217.705 73.554 218.14 73.6562 218.651 73.6562ZM234.986 60.1818H233.477V65.1612C232.749 65.3722 232.001 65.5 231.1 65.5C229.872 65.5 228.926 64.8097 228.926 63.3011V60.1562H227.418V63.3011C227.418 65.7045 228.875 66.9062 231.1 66.9062C232.026 66.9062 232.768 66.7848 233.477 66.5739V70H234.986V60.1818ZM241.87 70.2045C243.865 70.2045 245.322 69.2074 245.782 67.7244L244.325 67.3153C243.941 68.3381 243.053 68.8494 241.87 68.8494C240.1 68.8494 238.879 67.7053 238.808 65.6023H245.936V64.9631C245.936 61.3068 243.762 60.054 241.717 60.054C239.058 60.054 237.294 62.1506 237.294 65.1676C237.294 68.1847 239.032 70.2045 241.87 70.2045ZM238.808 64.2983C238.911 62.7706 239.991 61.4091 241.717 61.4091C243.353 61.4091 244.401 62.6364 244.401 64.2983H238.808ZM249.739 60.1818H248.23V70H249.739V65.8068H254.443V70H255.952V60.1818H254.443V64.4006H249.739V60.1818ZM260.215 67.7756V60.1818H258.707V70H260.471L265.176 62.4062V70H266.684V60.1818H264.945L260.215 67.7756ZM275.353 70H276.785V60.1818H272.745C270.63 60.1818 269.345 61.2876 269.345 63.0966C269.345 64.4453 270.022 65.4041 271.205 65.8068L268.808 70H270.444L272.72 66.0114H275.353V70ZM275.353 64.6051H272.566C271.499 64.6051 270.853 64.0362 270.853 63.0966C270.853 62.1442 271.569 61.5625 272.745 61.5625H275.353V64.6051ZM2.8892 88.1818H1.38068V98H2.8892V93.8068H7.59375V98H9.10227V88.1818H7.59375V92.4006H2.8892V88.1818ZM15.8459 98.2045C18.505 98.2045 20.2947 96.1847 20.2947 93.142C20.2947 90.0739 18.505 88.054 15.8459 88.054C13.1868 88.054 11.397 90.0739 11.397 93.142C11.397 96.1847 13.1868 98.2045 15.8459 98.2045ZM15.8459 96.8494C13.826 96.8494 12.9055 95.1108 12.9055 93.142C12.9055 91.1733 13.826 89.4091 15.8459 89.4091C17.8658 89.4091 18.7862 91.1733 18.7862 93.142C18.7862 95.1108 17.8658 96.8494 15.8459 96.8494ZM22.5975 98H27.2253C29.2196 98 30.4213 96.875 30.4213 95.3665C30.4213 93.826 29.2516 92.995 28.1713 92.8352C29.2772 92.6051 30.0634 91.9851 30.0634 90.7898C30.0634 89.2237 28.7211 88.1818 26.6117 88.1818H22.5975V98ZM24.0293 96.6193V93.6023H27.2253C28.2608 93.6023 28.8873 94.2223 28.8873 95.2386C28.8873 96.0952 28.2608 96.6193 27.2253 96.6193H24.0293ZM24.0293 92.2983V89.5625H26.6117C27.8198 89.5625 28.5549 90.0675 28.5549 90.892C28.5549 91.7678 27.8198 92.2983 26.6117 92.2983H24.0293ZM34.2134 91.7358V88.1818H32.7049V98H36.8214C39.1225 98 40.3754 96.5938 40.3754 94.8295C40.3754 93.0398 39.1225 91.7358 36.8214 91.7358H34.2134ZM41.935 98H43.4435V88.1818H41.935V98ZM34.2134 93.142H36.8214C38.0167 93.142 38.8668 93.8707 38.8668 94.9062C38.8668 95.897 38.0167 96.5938 36.8214 96.5938H34.2134V93.142ZM47.3299 88.1818H45.5913L48.7106 93.0909L45.5913 98H47.3299L49.6822 94.1903L52.0344 98H53.7731L50.6026 93.0909L53.7731 88.1818H52.0344L49.6822 92.196L47.3299 88.1818ZM64.9767 98.2045C67.15 98.2045 68.5819 96.875 68.8375 95.1364H67.329C67.0478 96.2102 66.1529 96.8494 64.9767 96.8494C63.187 96.8494 62.0364 95.3665 62.0364 93.0909C62.0364 90.8665 63.2125 89.4091 64.9767 89.4091C66.3063 89.4091 67.0989 90.2273 67.329 91.1222H68.8375C68.5819 89.2812 67.0222 88.054 64.9512 88.054C62.2921 88.054 60.5279 90.1506 60.5279 93.142C60.5279 96.0824 62.2154 98.2045 64.9767 98.2045ZM75.0314 98.2045C77.6905 98.2045 79.4803 96.1847 79.4803 93.142C79.4803 90.0739 77.6905 88.054 75.0314 88.054C72.3723 88.054 70.5826 90.0739 70.5826 93.142C70.5826 96.1847 72.3723 98.2045 75.0314 98.2045ZM75.0314 96.8494C73.0115 96.8494 72.0911 95.1108 72.0911 93.142C72.0911 91.1733 73.0115 89.4091 75.0314 89.4091C77.0513 89.4091 77.9718 91.1733 77.9718 93.142C77.9718 95.1108 77.0513 96.8494 75.0314 96.8494ZM80.4998 89.5881H83.747V98H85.2555V89.5881H88.4771V88.1818H80.4998V89.5881ZM90.6776 101.682H92.1861V96.4915H92.3139C92.6463 97.0284 93.2855 98.2045 95.1776 98.2045C97.6321 98.2045 99.3452 96.2358 99.3452 93.1165C99.3452 90.0227 97.6321 88.054 95.152 88.054C93.2344 88.054 92.6463 89.2301 92.3139 89.7415H92.1349V88.1818H90.6776V101.682ZM92.1605 93.0909C92.1605 90.892 93.1321 89.4091 94.973 89.4091C96.8906 89.4091 97.8366 91.0199 97.8366 93.0909C97.8366 95.1875 96.8651 96.8494 94.973 96.8494C93.1577 96.8494 92.1605 95.3153 92.1605 93.0909ZM102.266 101.656C103.628 101.656 104.593 100.934 105.156 99.4318L109.336 88.2074L107.687 88.1818L104.977 96.0057H104.874L102.164 88.1818H100.528L104.158 98.0511L103.877 98.8182C103.34 100.288 102.65 100.429 101.55 100.148L101.167 101.477C101.32 101.554 101.755 101.656 102.266 101.656ZM109.457 100.812H110.966V98H118.227V100.812H119.736V96.5938H118.227V88.1818H111.989L111.656 92.0682C111.42 94.8168 111.068 95.7628 110.276 96.5938H109.457V100.812ZM111.989 96.5938C112.679 95.6861 112.928 94.12 113.139 92.0682L113.395 89.5881H116.719V96.5938H111.989ZM123.247 88.1818H121.738V98H123.247V93.8068H127.951V98H129.46V88.1818H127.951V92.4006H123.247V88.1818ZM133.723 95.7756V88.1818H132.215V98H133.979L138.683 90.4062V98H140.192V88.1818H138.453L133.723 95.7756ZM142.955 98H144.463V93.858H145.819L149.04 98H150.983L146.969 92.9119L150.932 88.1818H148.989L145.461 92.4517H144.463V88.1818H142.955V98ZM156.207 98.2045C158.866 98.2045 160.656 96.1847 160.656 93.142C160.656 90.0739 158.866 88.054 156.207 88.054C153.548 88.054 151.758 90.0739 151.758 93.142C151.758 96.1847 153.548 98.2045 156.207 98.2045ZM156.207 96.8494C154.187 96.8494 153.267 95.1108 153.267 93.142C153.267 91.1733 154.187 89.4091 156.207 89.4091C158.227 89.4091 159.148 91.1733 159.148 93.142C159.148 95.1108 158.227 96.8494 156.207 96.8494ZM162.959 98H167.587C169.581 98 170.783 96.875 170.783 95.3665C170.783 93.826 169.613 92.995 168.533 92.8352C169.638 92.6051 170.425 91.9851 170.425 90.7898C170.425 89.2237 169.082 88.1818 166.973 88.1818H162.959V98ZM164.391 96.6193V93.6023H167.587C168.622 93.6023 169.249 94.2223 169.249 95.2386C169.249 96.0952 168.622 96.6193 167.587 96.6193H164.391ZM164.391 92.2983V89.5625H166.973C168.181 89.5625 168.916 90.0675 168.916 90.892C168.916 91.7678 168.181 92.2983 166.973 92.2983H164.391Z" fill="#2B2B2B"/>
</svg>
