<svg width="45" height="48" viewBox="0 0 45 48" fill="none" xmlns="http://www.w3.org/2000/svg">
<path d="M24.225 47.611L33.4756 42.98V26.543L23.4412 32.5208C22.8619 32.8659 22.1382 32.8659 21.5589 32.5208L11.5244 26.543V42.98L20.9526 47.6219C21.9843 48.1298 23.1967 48.1258 24.225 47.611Z" fill="url(#paint0_linear)"/>
<path d="M22.5 16.0996L8.78052 7.0184L20.7287 0.454128C21.8309 -0.151376 23.1692 -0.151376 24.2713 0.454129L36.2195 7.0184L22.5 16.0996Z" fill="url(#paint1_linear)"/>
<path d="M35.6707 6.65521L22.5 15.9181L9.32927 6.65521C9.32927 6.65521 0.93524 10.9621 0.550315 11.2496C0.165391 11.5371 0 12.0492 0 12.5284L0.203347 33.8739C0.440435 35.5927 0.922223 36.4018 2.33849 37.598L11.5244 42.9801C11.5244 42.9801 11.549 42.0458 11.549 41.3396L11.5566 26.5946L22.5 33.0816L33.4434 26.5946L33.451 41.3396C33.451 42.0458 33.4756 42.9801 33.4756 42.9801L42.6615 37.598C44.0778 36.4018 44.5596 35.5927 44.7967 33.8739L45 12.5284C45 12.0492 44.8346 11.5371 44.4497 11.2496C44.0648 10.9621 35.6707 6.65521 35.6707 6.65521Z" fill="white"/>
<defs>
<linearGradient id="paint0_linear" x1="22.5" y1="1.536" x2="22.5" y2="46.272" gradientUnits="userSpaceOnUse">
<stop stop-color="#0094FF"/>
<stop offset="0.994475" stop-color="#AD00FF"/>
</linearGradient>
<linearGradient id="paint1_linear" x1="22.5" y1="1.536" x2="22.5" y2="46.272" gradientUnits="userSpaceOnUse">
<stop stop-color="#0094FF"/>
<stop offset="0.994475" stop-color="#AD00FF"/>
</linearGradient>
</defs>
</svg>
