<svg width="122" height="26" viewBox="0 0 122 26" fill="none" xmlns="http://www.w3.org/2000/svg">
<path d="M19.4283 25.8196L28.082 6.55046V25.8196H32.9868V0.209142H25.9448L16.8007 20.4943L7.8318 0.209142H0.719714V25.8196H5.6246V6.55046L14.2081 25.8196H19.4283ZM45.8654 13.102C50.2798 13.102 51.2258 14.0479 51.2258 15.9048V16.15H42.6072C38.2629 16.15 37.0367 17.2361 37.0367 20.7746C37.0367 24.3131 38.2629 25.8196 42.6072 25.8196H55.6402V16.3252C55.6402 11.8057 53.2928 9.84373 46.0406 9.84373H39.2789V13.102H45.8654ZM43.5531 22.8767C41.8014 22.8767 41.3109 22.176 41.3109 20.6345C41.3109 19.163 41.8014 18.6725 43.5531 18.6725H51.2258V22.8767H43.5531ZM60.1808 25.8196H65.0506V9.84373H60.1808V25.8196ZM60.3559 7.00591H64.8754V2.20613H60.3559V7.00591ZM69.6922 25.8196H74.562V0.209142H69.6922V25.8196ZM88.1375 22.5614C83.9683 22.5614 82.9874 21.6505 82.8122 18.8827H97.6319V17.0609C97.6319 11.9108 95.9853 9.45835 88.0324 9.45835C79.7992 9.45835 78.3628 12.156 78.3628 17.6915C78.3628 23.4373 79.9043 25.8196 87.9623 25.8196H95.1094V22.5614H88.1375ZM88.2076 12.4714C92.0964 12.4714 93.3227 13.4173 93.3227 16.0449V16.3602H82.8122V16.0449C82.8122 13.4173 84.1435 12.4714 88.2076 12.4714ZM101.237 25.8196H106.107V13.8027H112.554C115.637 13.8027 116.688 14.6785 116.688 16.8507V25.8196H121.593V16.2551C121.593 11.8057 119.28 9.84373 112.554 9.84373H101.237V25.8196Z" fill="white"/>
</svg>
