<svg width="295" height="53" viewBox="0 0 295 53" fill="none" xmlns="http://www.w3.org/2000/svg">
<path d="M15.0653 1.54545H11.9205V13.4432H11.767L3.55114 1.54545H0.721591V19H3.88352V7.1108H4.02841L12.2528 19H15.0653V1.54545ZM24.1697 19.2557C27.2209 19.2557 29.3175 17.7642 29.8629 15.4886L26.9822 15.1648C26.5646 16.2727 25.5419 16.8523 24.2124 16.8523C22.218 16.8523 20.897 15.5398 20.8714 13.2983H29.9908V12.3523C29.9908 7.75852 27.2294 5.73864 24.0078 5.73864C20.2578 5.73864 17.8118 8.49148 17.8118 12.5312C17.8118 16.6392 20.2237 19.2557 24.1697 19.2557ZM20.88 11.2188C20.9737 9.5483 22.2095 8.14205 24.0504 8.14205C25.8232 8.14205 27.0163 9.4375 27.0334 11.2188H20.88ZM35.2322 19H38.4538L40.9084 10.1534H41.0874L43.5419 19H46.755L50.4624 5.90909H47.3089L45.0419 15.0625H44.9141L42.5618 5.90909H39.451L37.0987 15.1136H36.9794L34.6783 5.90909H31.5334L35.2322 19ZM57.5128 1.54545L63.8622 12.4886V19H67.0156V12.4886L73.3651 1.54545H69.794L65.5241 9.26705H65.3537L61.0838 1.54545H57.5128ZM78.7408 19.2557C82.576 19.2557 85.0135 16.554 85.0135 12.5057C85.0135 8.44886 82.576 5.73864 78.7408 5.73864C74.9055 5.73864 72.468 8.44886 72.468 12.5057C72.468 16.554 74.9055 19.2557 78.7408 19.2557ZM78.7578 16.7841C76.6357 16.7841 75.5959 14.892 75.5959 12.4972C75.5959 10.1023 76.6357 8.18466 78.7578 8.18466C80.8459 8.18466 81.8857 10.1023 81.8857 12.4972C81.8857 14.892 80.8459 16.7841 78.7578 16.7841ZM87.6321 19H90.7173V11.304C90.7173 9.64205 91.9702 8.46591 93.6662 8.46591C94.1861 8.46591 94.8338 8.55966 95.098 8.64489V5.80682C94.8168 5.75568 94.331 5.72159 93.9901 5.72159C92.4901 5.72159 91.2372 6.57386 90.7599 8.09091H90.6236V5.90909H87.6321V19ZM97.1477 19H100.233V14.6023L101.358 13.4006L105.364 19H109.054L103.685 11.5597L108.756 5.90909H105.151L100.446 11.1676H100.233V1.54545H97.1477V19ZM127.913 1.54545V13.0085C127.913 15.1648 126.183 16.4176 123.984 16.4176C121.793 16.4176 120.063 15.1648 120.063 13.0085V1.54545H116.901V13.0852C116.901 17.0398 119.935 19.2642 123.984 19.2642C128.015 19.2642 131.066 17.0398 131.066 13.0852V1.54545H127.913ZM137.452 11.3295C137.452 9.4375 138.594 8.34659 140.222 8.34659C141.815 8.34659 142.77 9.39489 142.77 11.142V19H145.855V10.6648C145.864 7.52841 144.074 5.73864 141.372 5.73864C139.412 5.73864 138.065 6.67614 137.469 8.13352H137.315V5.90909H134.366V19H137.452V11.3295ZM148.991 19H152.077V5.90909H148.991V19ZM150.543 4.05114C151.523 4.05114 152.324 3.30114 152.324 2.38068C152.324 1.4517 151.523 0.701704 150.543 0.701704C149.554 0.701704 148.753 1.4517 148.753 2.38068C148.753 3.30114 149.554 4.05114 150.543 4.05114ZM161.786 5.90909H159.204V2.77273H156.119V5.90909H154.261V8.29545H156.119V15.5739C156.102 18.0369 157.891 19.2472 160.21 19.179C161.087 19.1534 161.692 18.983 162.025 18.8722L161.505 16.4602C161.335 16.5028 160.985 16.5795 160.602 16.5795C159.826 16.5795 159.204 16.3068 159.204 15.0625V8.29545H161.786V5.90909ZM170.021 19.2557C173.072 19.2557 175.169 17.7642 175.714 15.4886L172.834 15.1648C172.416 16.2727 171.393 16.8523 170.064 16.8523C168.07 16.8523 166.749 15.5398 166.723 13.2983H175.842V12.3523C175.842 7.75852 173.081 5.73864 169.859 5.73864C166.109 5.73864 163.663 8.49148 163.663 12.5312C163.663 16.6392 166.075 19.2557 170.021 19.2557ZM166.732 11.2188C166.825 9.5483 168.061 8.14205 169.902 8.14205C171.675 8.14205 172.868 9.4375 172.885 11.2188H166.732ZM183.31 19.2301C185.56 19.2301 186.575 17.892 187.06 16.9375H187.248V19H190.282V1.54545H187.188V8.07386H187.06C186.592 7.12784 185.629 5.73864 183.319 5.73864C180.293 5.73864 177.915 8.10795 177.915 12.4716C177.915 16.7841 180.225 19.2301 183.31 19.2301ZM184.171 16.6989C182.134 16.6989 181.06 14.9091 181.06 12.4545C181.06 10.017 182.117 8.26989 184.171 8.26989C186.157 8.26989 187.248 9.91477 187.248 12.4545C187.248 14.9943 186.14 16.6989 184.171 16.6989ZM209.145 6.34375H212.188C212.128 3.39489 209.614 1.30682 205.898 1.30682C202.233 1.30682 199.48 3.36932 199.489 6.45454C199.489 8.96023 201.27 10.4006 204.142 11.142L206.128 11.6534C208.011 12.1307 209.256 12.7188 209.264 14.0739C209.256 15.5653 207.841 16.5625 205.778 16.5625C203.801 16.5625 202.267 15.6761 202.139 13.8438H199.028C199.156 17.3125 201.739 19.2642 205.804 19.2642C209.989 19.2642 212.418 17.1761 212.426 14.0994C212.418 11.0739 209.92 9.69318 207.295 9.07102L205.659 8.66193C204.227 8.32102 202.676 7.71591 202.693 6.25852C202.702 4.94602 203.878 3.98295 205.855 3.98295C207.739 3.98295 208.983 4.86079 209.145 6.34375ZM221.646 5.90909H219.063V2.77273H215.978V5.90909H214.12V8.29545H215.978V15.5739C215.961 18.0369 217.751 19.2472 220.069 19.179C220.947 19.1534 221.552 18.983 221.884 18.8722L221.364 16.4602C221.194 16.5028 220.844 16.5795 220.461 16.5795C219.685 16.5795 219.063 16.3068 219.063 15.0625V8.29545H221.646V5.90909ZM227.993 19.2642C230.047 19.2642 231.274 18.3011 231.837 17.2017H231.939V19H234.905V10.2386C234.905 6.77841 232.084 5.73864 229.587 5.73864C226.834 5.73864 224.72 6.96591 224.038 9.35227L226.919 9.76136C227.226 8.86648 228.095 8.09943 229.604 8.09943C231.036 8.09943 231.82 8.83239 231.82 10.1193V10.1705C231.82 11.0568 230.891 11.0994 228.581 11.3466C226.041 11.6193 223.612 12.3778 223.612 15.3267C223.612 17.9006 225.496 19.2642 227.993 19.2642ZM228.794 16.9972C227.507 16.9972 226.587 16.4091 226.587 15.2756C226.587 14.0909 227.618 13.5966 228.999 13.4006C229.808 13.2898 231.428 13.0852 231.828 12.7614V14.304C231.828 15.7614 230.652 16.9972 228.794 16.9972ZM244.544 5.90909H241.962V2.77273H238.876V5.90909H237.018V8.29545H238.876V15.5739C238.859 18.0369 240.649 19.2472 242.967 19.179C243.845 19.1534 244.45 18.983 244.783 18.8722L244.263 16.4602C244.092 16.5028 243.743 16.5795 243.359 16.5795C242.584 16.5795 241.962 16.3068 241.962 15.0625V8.29545H244.544V5.90909ZM252.779 19.2557C255.83 19.2557 257.927 17.7642 258.472 15.4886L255.592 15.1648C255.174 16.2727 254.151 16.8523 252.822 16.8523C250.827 16.8523 249.506 15.5398 249.481 13.2983H258.6V12.3523C258.6 7.75852 255.839 5.73864 252.617 5.73864C248.867 5.73864 246.421 8.49148 246.421 12.5312C246.421 16.6392 248.833 19.2557 252.779 19.2557ZM249.489 11.2188C249.583 9.5483 250.819 8.14205 252.66 8.14205C254.433 8.14205 255.626 9.4375 255.643 11.2188H249.489ZM271.557 9.36932C271.131 7.15341 269.358 5.73864 266.29 5.73864C263.136 5.73864 260.989 7.28977 260.997 9.71023C260.989 11.6193 262.165 12.8807 264.679 13.4006L266.912 13.8693C268.114 14.1335 268.676 14.6193 268.676 15.3608C268.676 16.2557 267.705 16.929 266.239 16.929C264.824 16.929 263.903 16.3153 263.639 15.1392L260.631 15.429C261.014 17.8324 263.034 19.2557 266.247 19.2557C269.52 19.2557 271.83 17.5597 271.838 15.0795C271.83 13.2131 270.628 12.071 268.156 11.5341L265.923 11.0568C264.594 10.7585 264.065 10.2983 264.074 9.53977C264.065 8.65341 265.045 8.03977 266.332 8.03977C267.756 8.03977 268.506 8.81534 268.744 9.67614L271.557 9.36932ZM285.551 19.2557C287.094 19.2557 288.807 18.7784 290.026 17.7216L291.142 19H294.483L291.926 16.0085C292.778 14.8665 293.443 13.1705 293.443 10.7756H290.793C290.793 11.9261 290.52 12.9574 290.06 13.8182L286.872 10.0852L287.972 9.27557C289.429 8.21875 290.29 6.94886 290.29 5.29545C290.29 3.16477 288.611 1.33239 285.858 1.33239C283.097 1.33239 281.281 3.16477 281.281 5.64489C281.281 7.20455 282.065 8.47443 283.071 9.71875C281.128 11.0568 279.798 12.3097 279.798 14.3636C279.798 17.142 281.98 19.2557 285.551 19.2557ZM288.347 15.7955C287.52 16.392 286.574 16.7159 285.645 16.7159C283.932 16.7159 282.824 15.608 282.824 14.2273C282.824 13.6222 283.284 12.7102 284.443 11.858L284.724 11.6534L288.347 15.7955ZM285.295 8.2017C284.562 7.2983 284.034 6.48864 284.034 5.6875C284.034 4.74148 284.784 3.86364 285.901 3.86364C287 3.86364 287.673 4.68182 287.673 5.43182C287.673 6.31818 287.196 6.94034 286.284 7.52841L285.295 8.2017ZM15.6619 36.4347C15.125 32.5568 12.142 30.3068 8.27273 30.3068C3.71307 30.3068 0.278409 33.6307 0.278409 39.2727C0.278409 44.9062 3.67045 48.2386 8.27273 48.2386C12.4233 48.2386 15.1761 45.554 15.6619 42.2216L12.4744 42.2045C12.0739 44.25 10.4034 45.4006 8.31534 45.4006C5.4858 45.4006 3.45739 43.2784 3.45739 39.2727C3.45739 35.3352 5.46875 33.1449 8.32386 33.1449C10.446 33.1449 12.108 34.3466 12.4744 36.4347H15.6619ZM18.4212 48H21.5064V34.9091H18.4212V48ZM19.9723 33.0511C20.9524 33.0511 21.7536 32.3011 21.7536 31.3807C21.7536 30.4517 20.9524 29.7017 19.9723 29.7017C18.9837 29.7017 18.1825 30.4517 18.1825 31.3807C18.1825 32.3011 18.9837 33.0511 19.9723 33.0511ZM31.2159 34.9091H28.6335V31.7727H25.5483V34.9091H23.6903V37.2955H25.5483V44.5739C25.5312 47.0369 27.321 48.2472 29.6392 48.179C30.517 48.1534 31.1222 47.983 31.4545 47.8722L30.9347 45.4602C30.7642 45.5028 30.4148 45.5795 30.0312 45.5795C29.2557 45.5795 28.6335 45.3068 28.6335 44.0625V37.2955H31.2159V34.9091ZM35.7138 52.8835C38.1172 52.8835 39.5064 51.6392 40.2479 49.5852L45.5064 34.9261L42.2081 34.9091L39.1825 44.7955H39.0462L36.0291 34.9091H32.7564L37.5036 48.2727L37.2393 48.9801C36.6513 50.429 35.7649 50.5398 34.4183 50.1562L33.7024 52.5511C34.12 52.7301 34.87 52.8835 35.7138 52.8835ZM59.3111 48.2557C62.6009 48.2557 64.6974 46.304 64.919 43.5256H61.9702C61.706 44.9318 60.6918 45.7415 59.3366 45.7415C57.4105 45.7415 56.1662 44.1307 56.1662 41.4545C56.1662 38.8125 57.4361 37.2273 59.3366 37.2273C60.8196 37.2273 61.7315 38.1818 61.9702 39.4432H64.919C64.706 36.6051 62.4901 34.7386 59.294 34.7386C55.4588 34.7386 53.0384 37.5085 53.0384 41.5057C53.0384 45.4688 55.3991 48.2557 59.3111 48.2557ZM73.1626 48.2557C76.9979 48.2557 79.4354 45.554 79.4354 41.5057C79.4354 37.4489 76.9979 34.7386 73.1626 34.7386C69.3274 34.7386 66.8899 37.4489 66.8899 41.5057C66.8899 45.554 69.3274 48.2557 73.1626 48.2557ZM73.1797 45.7841C71.0575 45.7841 70.0178 43.892 70.0178 41.4972C70.0178 39.1023 71.0575 37.1847 73.1797 37.1847C75.2678 37.1847 76.3075 39.1023 76.3075 41.4972C76.3075 43.892 75.2678 45.7841 73.1797 45.7841ZM90.3977 42.4943C90.3977 44.4886 88.9744 45.4773 87.6108 45.4773C86.1278 45.4773 85.1392 44.429 85.1392 42.767V34.9091H82.054V43.2443C82.054 46.3892 83.8438 48.1705 86.4176 48.1705C88.3778 48.1705 89.7585 47.1392 90.3551 45.6733H90.4915V48H93.483V34.9091H90.3977V42.4943ZM96.6555 48H99.7408V40.304C99.7408 38.642 100.994 37.4659 102.69 37.4659C103.21 37.4659 103.857 37.5597 104.121 37.6449V34.8068C103.84 34.7557 103.354 34.7216 103.013 34.7216C101.513 34.7216 100.261 35.5739 99.7834 37.0909H99.647V34.9091H96.6555V48ZM113.411 34.9091H110.829V31.7727H107.744V34.9091H105.886V37.2955H107.744V44.5739C107.727 47.0369 109.516 48.2472 111.835 48.179C112.712 48.1534 113.317 47.983 113.65 47.8722L113.13 45.4602C112.96 45.5028 112.61 45.5795 112.227 45.5795C111.451 45.5795 110.829 45.3068 110.829 44.0625V37.2955H113.411V34.9091ZM126.151 38.3693C125.724 36.1534 123.952 34.7386 120.884 34.7386C117.73 34.7386 115.582 36.2898 115.591 38.7102C115.582 40.6193 116.759 41.8807 119.273 42.4006L121.506 42.8693C122.707 43.1335 123.27 43.6193 123.27 44.3608C123.27 45.2557 122.298 45.929 120.832 45.929C119.418 45.929 118.497 45.3153 118.233 44.1392L115.224 44.429C115.608 46.8324 117.628 48.2557 120.841 48.2557C124.114 48.2557 126.423 46.5597 126.432 44.0795C126.423 42.2131 125.222 41.071 122.75 40.5341L120.517 40.0568C119.188 39.7585 118.659 39.2983 118.668 38.5398C118.659 37.6534 119.639 37.0398 120.926 37.0398C122.349 37.0398 123.099 37.8153 123.338 38.6761L126.151 38.3693Z" fill="black"/>
</svg>
