<svg width="127" height="31" viewBox="0 0 127 31" fill="none" xmlns="http://www.w3.org/2000/svg">
<path d="M20.6325 25.9877C20.7847 26.1314 20.864 26.3142 20.8704 26.5361C20.8753 26.7087 20.8179 26.8585 20.6982 26.9853C20.8278 27.2036 20.8958 27.4238 20.9022 27.6457C20.9079 27.8429 20.8642 28.0416 20.7713 28.2417C20.8291 28.5362 20.8591 28.7204 20.8612 28.7943C20.8711 29.1395 20.683 29.4657 20.297 29.7729C20.0075 30.0033 19.6779 30.1239 19.308 30.1345C18.8395 30.1479 18.4158 29.9997 18.0367 29.6898C17.6901 29.6504 17.3889 29.474 17.1332 29.1605C16.9013 28.8217 16.8164 28.4416 16.8783 28.0204C16.7522 27.9253 16.6014 27.8309 16.426 27.7372C16.2499 27.6189 16.0984 27.4999 15.9716 27.3801C15.8687 27.235 15.7898 27.0646 15.7348 26.8687C15.4361 26.7786 15.1969 26.6127 15.0172 26.3711C14.8368 26.1048 14.742 25.8114 14.7328 25.4909C14.7293 25.3676 14.7388 25.2687 14.7613 25.194C14.4394 25.1539 14.1639 25.0137 13.9349 24.7735C13.7299 24.508 13.6104 24.2153 13.5765 23.8955C13.0763 23.663 12.7128 23.4637 12.4859 23.2975C12.2591 23.1313 12.1157 22.864 12.0557 22.4955C11.8056 22.3793 11.552 22.1399 11.2948 21.7771C11.0376 21.4143 10.8801 21.0857 10.8223 20.7912C10.3721 20.5821 10.1026 20.2197 10.0137 19.704C9.789 19.6118 9.53571 19.3846 9.25386 19.0225C8.97131 18.6358 8.81346 18.2949 8.7803 17.9997C8.43157 17.8863 8.09056 17.6124 7.75728 17.1777C7.42329 16.7185 7.22492 16.2553 7.16215 15.7883C6.96206 15.6953 6.72075 15.4555 6.43819 15.0687C6.15493 14.6574 5.97242 14.3171 5.89067 14.048C5.68775 13.8565 5.45663 13.5423 5.19732 13.1056C4.9373 12.6442 4.76535 12.2419 4.68147 11.8989C4.47997 11.7566 4.2626 11.4914 4.02936 11.1033C3.79612 10.7151 3.63827 10.3742 3.5558 10.0804C3.60936 10.227 3.64004 10.4358 3.64783 10.7071C3.65703 11.0276 3.62571 11.2259 3.55387 11.302C3.7188 11.8895 3.80693 12.3805 3.81826 12.775C3.82251 12.923 3.80281 13.0963 3.75917 13.2949C3.86417 13.514 3.92304 13.8454 3.93578 14.2893C3.94711 14.6838 3.91898 14.993 3.85139 15.2171C4.00428 15.3854 4.08675 15.6792 4.09879 16.0983C4.10941 16.4682 4.05662 16.7782 3.94042 17.0283C4.09544 17.2706 4.17649 17.515 4.18357 17.7616C4.19136 18.0328 4.12553 18.3185 3.98609 18.6186C3.87131 18.918 3.80265 19.1051 3.78012 19.1797C4.01123 19.4939 4.13777 20.0332 4.15972 20.7975C4.17247 21.2413 4.1218 21.6253 4.00772 21.9494C4.21418 22.2642 4.32201 22.5819 4.33122 22.9025C4.34113 23.2477 4.21968 23.7447 3.96688 24.3935C4.22052 24.633 4.35372 24.9747 4.36647 25.4185C4.38063 25.9116 4.25918 26.4086 4.00212 26.9096C4.03315 27.1308 4.07899 27.4379 4.13963 27.831C4.22493 28.2234 4.27112 28.5428 4.2782 28.7894C4.30865 29.8496 3.83075 30.3939 2.84449 30.4222C2.44998 30.4336 2.11323 30.3075 1.83421 30.0441C1.57986 29.78 1.42236 29.4513 1.36172 29.0582C1.20387 28.7173 1.11927 28.3496 1.10794 27.9551C1.09661 27.5606 1.14799 27.2013 1.26206 26.8772C1.12603 26.4369 1.05235 26.0195 1.04102 25.625C1.03182 25.3045 1.06101 25.0322 1.12861 24.8082C1.04685 24.5391 1.00314 24.3059 0.997473 24.1087C0.986851 23.7388 1.0502 23.3668 1.18752 22.9927C0.981057 22.6779 0.870747 22.2739 0.856584 21.7808C0.841005 21.2383 0.952249 20.8156 1.19032 20.5126C0.97961 20.0498 0.868237 19.6089 0.856199 19.1897C0.842036 18.6966 0.940244 18.2496 1.15082 17.8487C1.04511 17.6049 0.990136 17.4091 0.985887 17.2612C0.983763 17.1872 1.00452 17.0509 1.04817 16.8522C0.718432 16.5409 0.543294 16.0277 0.522758 15.3127C0.512136 14.9428 0.538852 14.5842 0.602908 14.2369C0.69162 13.8889 0.795493 13.6391 0.914527 13.4877C0.629142 13.0023 0.475474 12.3775 0.453521 11.6131C0.439358 11.12 0.501998 10.7234 0.641439 10.4232C0.48571 10.1563 0.401827 9.81321 0.389788 9.39404C0.374917 8.87626 0.461505 8.45427 0.649551 8.12807C0.569917 7.93294 0.524788 7.65045 0.514166 7.2806C0.504252 6.93541 0.534509 6.70011 0.604938 6.57471C0.587235 5.95829 0.770678 5.47183 1.15527 5.1153C1.53986 4.75878 2.00337 4.57273 2.54582 4.55715C3.08826 4.54157 3.54972 4.7134 3.93019 5.07262C4.33531 5.43114 4.52207 5.91931 4.49046 6.53714C5.05969 6.59483 5.59971 6.92479 6.11055 7.52704C6.62138 8.12929 6.87474 8.78829 6.87062 9.50404C7.19753 9.71674 7.51529 10.0407 7.82392 10.4761C8.1572 10.9107 8.34148 11.3126 8.37676 11.6817C8.70437 11.9191 9.06231 12.353 9.45057 12.9834C9.83883 13.6139 10.0524 14.1753 10.0912 14.6677C10.3878 14.6839 10.7041 14.9586 11.0402 15.4918C11.401 16.0243 11.6114 16.4748 11.6713 16.8432C11.9207 16.9348 12.1743 17.1743 12.4322 17.5617C12.6901 17.9491 12.8233 18.2908 12.8318 18.5866C13.0305 18.6303 13.2088 18.8226 13.3666 19.1635C13.5491 19.5038 13.6185 19.7732 13.5749 19.9719C14.1984 20.2007 14.5806 20.6216 14.7216 21.2345C14.9921 21.202 15.2926 21.3538 15.6231 21.6898C15.9535 22.0258 16.1607 22.3653 16.2446 22.7084C16.494 22.7999 16.7592 23.0144 17.0404 23.3518C17.3454 23.6638 17.5392 23.9667 17.6217 24.2605C17.5371 23.8927 17.4923 23.6226 17.4874 23.45C17.4824 23.2774 17.5398 23.1277 17.6595 23.0009C17.4052 22.7367 17.2706 22.3458 17.2557 21.828C17.2479 21.5568 17.2785 21.3338 17.3475 21.1591C17.1664 20.8681 17.0724 20.5994 17.0653 20.3528C17.0589 20.1309 17.1138 19.8949 17.23 19.6448C16.9771 19.43 16.8428 19.0514 16.8272 18.5089C16.8202 18.2623 16.8515 18.064 16.9212 17.914C16.7126 17.5251 16.6012 17.0841 16.5871 16.591C16.5828 16.4431 16.6011 16.2205 16.6419 15.9232C16.3615 15.6104 16.211 15.0965 16.1905 14.3815C16.1735 13.7897 16.2597 13.3554 16.4492 13.0785C16.3209 12.9095 16.2033 12.6784 16.0961 12.3854C16.013 12.067 15.9675 11.7721 15.9597 11.5009C15.9462 11.0325 16.0346 10.6721 16.2248 10.4199C15.9965 10.2043 15.8767 9.89932 15.8653 9.50481C15.8576 9.23359 15.9093 8.88663 16.0205 8.46393C15.7633 8.10116 15.6273 7.66088 15.6124 7.1431C15.6011 6.74859 15.6662 6.43826 15.8078 6.21211C15.6753 5.89511 15.6055 5.61333 15.5984 5.36677C15.5843 4.87364 15.8209 4.52137 16.3084 4.30995C16.5768 4.20353 16.8219 4.14714 17.0438 4.14077C17.463 4.12873 17.7635 4.2805 17.9453 4.59608C18.1517 4.91095 18.2613 5.29029 18.2741 5.73411C18.2812 5.98067 18.2738 6.15362 18.252 6.25295C18.4535 6.39523 18.6215 6.66185 18.7561 7.05281C18.8908 7.44377 18.9641 7.84883 18.9761 8.268C18.9867 8.63784 18.9452 8.91048 18.8516 9.08591C19.0355 9.47546 19.1366 9.99076 19.1551 10.6318C19.1706 11.1743 19.12 11.5582 19.0031 11.7837C19.1595 12.0753 19.2459 12.5047 19.2621 13.0718C19.2749 13.5156 19.2348 13.8375 19.1418 14.0376C19.2708 14.2313 19.3772 14.4997 19.4611 14.8428C19.5689 15.1605 19.6271 15.4673 19.6356 15.7632C19.6476 16.1823 19.5698 16.4807 19.4022 16.6582C19.579 16.8012 19.7217 17.0439 19.8302 17.3862C19.9388 17.7286 19.9984 18.0847 20.009 18.4545C20.0182 18.7751 19.989 19.0474 19.9214 19.2714C20.1279 19.5863 20.2375 19.9656 20.2502 20.4094C20.2608 20.7793 20.2066 21.0399 20.0876 21.1914C20.1658 21.3372 20.2345 21.582 20.2938 21.9258C20.353 22.2696 20.3601 22.5161 20.315 22.6655C20.5665 22.831 20.7001 23.185 20.7157 23.7274C20.7277 24.1466 20.651 24.4819 20.4854 24.7335C20.6179 25.0504 20.687 25.3076 20.6927 25.5048C20.6948 25.5788 20.6747 25.7398 20.6325 25.9877ZM36.3002 29.2023C36.0128 29.5067 35.5609 29.6677 34.9445 29.6854C34.476 29.6989 34.0917 29.6359 33.7916 29.4964C33.3506 29.6078 32.9575 29.6684 32.6123 29.6783C31.6507 29.706 30.9532 29.4792 30.5199 28.9981C30.422 29.0256 30.2867 29.0418 30.1141 29.0468C29.547 29.0631 29.1081 28.8166 28.7974 28.3073C28.5515 28.339 28.2274 28.225 27.8251 27.9651C27.4468 27.6798 27.2784 27.4009 27.3199 27.1282C26.9226 27.0409 26.583 26.8163 26.3011 26.4542C26.0432 26.0668 25.9195 25.6261 25.93 25.1323C25.656 25.0415 25.4407 24.8502 25.2843 24.5586C25.1279 24.267 25.0443 23.9362 25.0337 23.5664C25.0224 23.1719 25.0759 22.8866 25.1942 22.7104C24.911 22.2991 24.7615 21.8222 24.746 21.2797C24.7297 20.7126 24.8892 20.2515 25.2244 19.8964C24.9476 19.7069 24.8034 19.415 24.7921 19.0205C24.785 18.7739 24.8396 18.5256 24.9558 18.2755C25.072 18.0253 25.2273 17.8482 25.4217 17.7439C25.3625 17.4001 25.3903 17.0785 25.5051 16.7791C25.6438 16.4543 25.8343 16.2144 26.0766 16.0594C26.0252 15.9868 25.9974 15.8766 25.9931 15.7286C25.9867 15.5067 26.0543 15.2827 26.1959 15.0565C26.3621 14.8297 26.5431 14.6887 26.739 14.6338C26.7122 14.5605 26.697 14.4622 26.6935 14.3389C26.6786 13.8212 26.8631 13.3717 27.247 12.9905C27.6302 12.5847 28.0074 12.4011 28.3787 12.4398C28.3688 12.0946 28.5086 11.8068 28.7981 11.5764C29.1115 11.3206 29.5148 11.1856 30.0079 11.1715C30.2298 11.1651 30.4028 11.1725 30.5268 11.1936C30.6888 10.8188 30.9761 10.5144 31.3889 10.2805C31.801 10.0219 32.2289 9.8862 32.6728 9.87345C32.9686 9.86495 33.217 9.91951 33.4178 10.0371C33.7545 9.73134 34.1817 9.571 34.6995 9.55613C35.1187 9.54409 35.4913 9.6321 35.8175 9.82015C36.1684 10.0075 36.3858 10.2727 36.4696 10.6158C36.8641 10.6044 37.2876 10.7403 37.7399 11.0235C38.1915 11.2819 38.4585 11.558 38.541 11.8518C39.1377 12.0074 39.7158 12.3733 40.2752 12.9495C40.8586 13.5003 41.1588 14.0716 41.1758 14.6633C41.1786 14.7619 41.1582 14.9106 41.1146 15.1093C42.1812 15.3007 42.6928 16.3595 42.6494 18.2855C42.8819 18.649 43.0042 19.0403 43.0162 19.4595C43.0304 19.9526 42.8843 20.4503 42.5779 20.9527C42.6583 21.1724 42.7013 21.381 42.7069 21.5782C42.7154 21.8741 42.6619 22.1594 42.5464 22.4342C42.4309 22.7089 42.2767 22.9231 42.0837 23.0767C42.1197 23.4705 42.0549 23.7932 41.8894 24.0447C41.7485 24.2955 41.4746 24.6365 41.0674 25.0677C41.0949 25.1656 41.1115 25.3132 41.1172 25.5105C41.1384 26.2502 40.7331 26.743 39.9011 26.989C39.8385 27.3856 39.6381 27.7122 39.3 27.9687C38.9865 28.2244 38.5956 28.359 38.1271 28.3725C37.7482 28.9263 37.2752 29.2113 36.7081 29.2276C36.5355 29.2325 36.3995 29.2241 36.3002 29.2023ZM32.7492 26.7132C32.9415 26.5349 33.2719 26.4391 33.7404 26.4256C34.0856 26.4157 34.2719 26.4597 34.2994 26.5576C34.4903 26.3301 34.7319 26.1504 35.0242 26.0186C35.3166 25.8868 35.5864 25.8297 35.8337 25.8473C36.2408 25.4161 36.6909 25.1934 37.184 25.1792C37.3566 25.1743 37.4803 25.1831 37.5549 25.2056C37.5239 24.9844 37.5795 24.7731 37.7218 24.5716C37.8634 24.3454 38.0317 24.1925 38.2268 24.1129C38.2176 23.7923 38.2838 23.519 38.4254 23.2928C38.5909 23.0413 38.7952 22.8504 39.0382 22.72C39.024 22.2269 39.1113 21.8295 39.3001 21.528C39.2204 21.3329 39.1778 21.1367 39.1721 20.9394C39.1643 20.6682 39.2185 20.4075 39.3347 20.1574C39.4502 19.8827 39.6165 19.6558 39.8334 19.4768C39.5805 19.262 39.4494 18.9943 39.4402 18.6738C39.4317 18.3779 39.5095 18.0796 39.6736 17.7787C39.172 17.497 38.831 17.223 38.6506 16.9568C38.4941 16.6651 38.4049 16.1371 38.383 15.3728C38.1618 15.4038 37.924 15.2873 37.6697 15.0231C37.44 14.7583 37.2955 14.454 37.2363 14.1102C36.9672 14.1919 36.6322 14.1275 36.2313 13.917C35.8544 13.681 35.6606 13.3781 35.65 13.0083C35.4556 13.1126 35.2227 13.1686 34.9515 13.1764C34.4337 13.1913 34.0093 13.0184 33.6781 12.6577C33.4147 12.9367 33.0635 13.1689 32.6247 13.3543C32.2098 13.5142 31.8413 13.5742 31.5194 13.5341C31.5018 13.7813 31.2884 14.0836 30.8791 14.4408C30.4938 14.7727 30.1423 14.9925 29.8246 15.1004C29.9029 15.2462 29.9448 15.4177 29.9505 15.615C29.9576 15.8615 29.903 16.1099 29.7868 16.36C29.6706 16.6101 29.504 16.8246 29.2871 17.0036C29.3216 17.3481 29.2449 17.6834 29.0568 18.0096C28.8935 18.3351 28.6533 18.5641 28.3363 18.6966C28.3913 18.8924 28.4205 19.052 28.4241 19.1753C28.434 19.5204 28.3555 19.7941 28.1885 19.9964C28.2675 20.1668 28.3094 20.3384 28.3144 20.511C28.3221 20.7822 28.195 21.082 27.933 21.4103C28.5615 21.8117 28.887 22.407 28.9097 23.196C28.9217 23.6151 28.858 23.9748 28.7186 24.2749C28.9659 24.2925 29.1406 24.3615 29.2427 24.4819C29.3449 24.6024 29.4369 24.7972 29.5186 25.0663C30.1372 25.1225 30.6018 25.4053 30.9126 25.9146C31.1838 25.9068 31.5191 25.9835 31.9186 26.1448C32.3427 26.3054 32.6196 26.4948 32.7492 26.7132ZM54.4373 13.283C54.4944 13.5528 54.4152 13.8019 54.1997 14.0302C54.0081 14.2331 53.7647 14.3511 53.4696 14.3843C53.3111 14.8824 52.8635 15.1913 52.1266 15.3112C52.1633 15.7297 52.0873 16.0896 51.8985 16.3912C51.7091 16.6681 51.4918 16.8347 51.2466 16.8911C51.265 17.5322 51.1485 18.2018 50.8971 18.9C50.9521 19.0958 50.9817 19.2677 50.986 19.4156C51.0001 19.9088 50.9143 20.3554 50.7283 20.7556C50.8587 20.9986 50.9285 21.2804 50.9377 21.6009C50.9497 22.0201 50.8881 22.4537 50.753 22.9018C50.9834 23.1913 51.1039 23.5209 51.1145 23.8908C51.1209 24.1127 51.0667 24.3734 50.9519 24.6728C51.0301 24.8186 51.0738 25.0518 51.083 25.3723C51.0986 25.9148 50.999 26.3124 50.7841 26.5654C50.8927 26.9077 50.9498 27.1775 50.9555 27.3748C50.9611 27.572 50.9291 27.7457 50.8594 27.8958C50.8714 28.3149 50.7207 28.6524 50.4072 28.9082C50.0931 29.1393 49.7141 29.2612 49.2703 29.274C48.8511 29.286 48.4781 29.1857 48.1512 28.973C47.8482 28.7349 47.703 28.4059 47.7157 27.9861C47.6353 27.7663 47.5916 27.5331 47.5845 27.2865C47.5697 26.7687 47.6418 26.2731 47.8009 25.7997C47.5705 25.5102 47.4504 25.1929 47.4405 24.8477C47.4341 24.6258 47.4883 24.3651 47.6031 24.0657C47.4227 23.7994 47.3275 23.4937 47.3176 23.1485C47.3105 22.9019 47.3535 22.6786 47.4464 22.4785C47.5394 22.2784 47.6581 22.1146 47.8025 21.9871C47.446 21.6025 47.2603 21.1513 47.2454 20.6335C47.2312 20.1404 47.3795 19.7166 47.6901 19.3622C47.5879 19.2418 47.4963 19.0593 47.4153 18.8149C47.3342 18.5705 47.2901 18.325 47.2831 18.0784C47.2738 17.7579 47.3411 17.5215 47.4848 17.3693C47.2748 16.9312 47.1616 16.4285 47.1454 15.8614C47.1312 15.3683 47.1956 15.0333 47.3386 14.8565C47.1025 14.3697 46.9781 13.9044 46.9654 13.4606C46.9512 12.9675 47.0519 12.6068 47.2674 12.3785C46.8595 11.9213 46.6473 11.4092 46.631 10.8421C46.6112 10.1517 46.8926 9.63779 47.4751 9.30026C47.7668 9.14382 48.0605 9.06135 48.3564 9.05286C48.8249 9.0394 49.225 9.22532 49.5569 9.61062C49.8881 9.97126 50.0611 10.4105 50.0759 10.9283C50.0837 11.1995 50.0302 11.4848 49.9154 11.7842C50.2452 12.0956 50.4171 12.4978 50.4313 12.9909C50.4412 13.3361 50.4247 13.6204 50.3818 13.8437C50.5585 13.123 50.83 12.6957 51.1963 12.5618C51.1828 12.0933 51.3184 11.6576 51.6029 11.2546C51.8875 10.8516 52.2242 10.5458 52.613 10.3372C53.0265 10.1279 53.3699 10.0563 53.6433 10.1225C54.2406 9.43909 54.8967 9.08711 55.6118 9.06657C55.9323 9.05737 56.2176 9.11086 56.4677 9.22707C56.6847 9.0481 57.0151 8.95224 57.4589 8.93949C57.8287 8.92887 58.176 8.99292 58.5008 9.13166C58.8249 9.24574 59.0402 9.43697 59.1466 9.70536C60.0356 9.72918 60.675 10.081 61.0647 10.7607C61.3859 10.7762 61.6994 10.9522 62.0052 11.2889C62.3357 11.6249 62.5073 12.0148 62.52 12.4586C62.5257 12.6559 62.4711 12.9042 62.3563 13.2037C62.9298 13.4093 63.2257 13.8326 63.2441 14.4737C63.2505 14.6956 63.2428 14.8562 63.221 14.9556C63.5465 15.1189 63.7737 15.2975 63.9026 15.4912C64.0555 15.6595 64.1359 15.8793 64.1437 16.1506C64.1522 16.4464 64.0895 16.8431 63.9557 17.3404C64.258 17.5539 64.4166 17.9194 64.4314 18.4372C64.447 18.9797 64.3231 19.3904 64.0596 19.6694C64.2922 20.0329 64.4162 20.4858 64.4318 21.0283C64.4474 21.5707 64.3365 22.0058 64.0991 22.3334C64.2683 23.0688 64.3572 23.5845 64.3657 23.8804C64.3805 24.3982 64.2798 24.7589 64.0636 24.9625C64.2736 25.4006 64.3846 25.8293 64.3967 26.2485C64.4129 26.8156 64.2894 27.2386 64.0259 27.5176C64.0619 27.9114 63.8985 28.2369 63.5358 28.4941C63.1977 28.7506 62.8067 28.8852 62.3629 28.8979C62.0177 28.9078 61.7193 28.83 61.4678 28.6645C61.2163 28.499 61.0859 28.256 61.0767 27.9355C60.866 27.4727 60.7522 26.9454 60.7352 26.3536C60.709 25.4413 60.9118 24.7692 61.3435 24.3373C61.1646 24.1204 60.994 23.7674 60.8319 23.2786C60.6938 22.7643 60.6183 22.2853 60.6056 21.8415C60.5879 21.2251 60.7002 20.8393 60.9425 20.6843C60.7346 20.3201 60.625 19.9408 60.6137 19.5463C60.6009 19.1025 60.721 18.5561 60.9738 17.9073C60.7469 17.7411 60.5546 17.4875 60.3967 17.1465C60.2389 16.8056 60.1553 16.4749 60.1461 16.1543C60.1433 16.0557 60.1637 15.907 60.2073 15.7084C59.9297 15.4943 59.6729 15.1438 59.4368 14.6571C59.2254 14.1696 59.1264 13.7283 59.1397 13.333C58.9171 13.3148 58.6931 13.2472 58.4676 13.1303C58.2422 13.0134 58.0646 12.8457 57.935 12.6273L57.5281 12.639C57.109 12.6511 56.8106 12.5733 56.6331 12.4056C56.4429 12.6579 56.1164 12.8893 55.6536 13.1C55.2147 13.2854 54.8216 13.346 54.4743 13.282L54.4373 13.283ZM71.2032 19.1311C71.1792 19.1565 71.1067 19.2079 70.9855 19.2854C70.889 19.3622 70.6928 19.4049 70.3969 19.4134C69.9531 19.4261 69.5914 19.2885 69.3116 19.0004C69.0566 18.7116 68.9234 18.3699 68.912 17.9754C68.9007 17.5809 69.0021 17.2449 69.2162 16.9673C69.4543 16.6643 69.7706 16.5072 70.1651 16.4958C70.4053 16.2668 70.7103 16.147 71.0801 16.1364C71.4253 16.1265 71.7484 16.2036 72.0492 16.3677C72.4366 16.1098 73.0002 15.9702 73.7399 15.949C74.2576 15.9341 74.7402 15.9819 75.1876 16.0925C75.4074 16.0121 75.7268 15.9659 76.146 15.9539C76.9597 15.9305 77.5303 16.0375 77.8579 16.2749C78.0277 16.1713 78.2112 16.1167 78.4084 16.111C78.5564 16.1068 78.7558 16.1751 79.0066 16.3159C79.1496 16.1391 79.3936 16.0457 79.7388 16.0358C80.0347 16.0273 80.2337 16.0833 80.3359 16.2037C80.7551 16.1917 81.0795 16.3181 81.3092 16.5829C81.5389 16.8478 81.659 17.1651 81.6697 17.535C81.6803 17.9048 81.5785 18.2285 81.3644 18.5061C81.1503 18.7837 80.8703 18.9152 80.5244 18.9004C80.1363 19.1337 79.708 19.257 79.2395 19.2705C78.9436 19.279 78.6706 19.2251 78.4205 19.1089C78.2507 19.2125 78.0549 19.2675 77.833 19.2738C77.5125 19.283 77.2507 19.1919 77.0478 19.0003C76.828 19.0806 76.5456 19.1257 76.2004 19.1357C75.7565 19.1484 75.3853 19.1097 75.0866 19.0196C74.8668 19.0999 74.6336 19.1436 74.387 19.1507C74.0172 19.1613 73.6452 19.098 73.2711 18.9607C72.8337 19.1953 72.4794 19.3166 72.2081 19.3243C71.9123 19.3328 71.5773 19.2684 71.2032 19.1311ZM103.445 23.3502C103.693 23.3678 103.918 23.4847 104.122 23.701C104.325 23.9172 104.48 24.1595 104.587 24.4279C104.718 24.6956 104.761 24.8918 104.715 25.0165C105.019 25.3039 105.178 25.6695 105.191 26.1133C105.201 26.4831 105.087 26.8195 104.849 27.1225C104.635 27.4001 104.344 27.5688 103.976 27.6288C103.532 27.6662 103.071 27.4944 102.591 27.1133C102.111 26.7323 101.84 26.3205 101.778 25.8781C101.478 25.714 101.146 25.3411 100.784 24.7592C100.446 24.1767 100.272 23.7005 100.262 23.3306C99.9594 23.1172 99.6652 22.7555 99.3791 22.2455C99.0923 21.7109 98.994 21.2942 99.0841 20.9955C98.7311 20.7342 98.45 20.3968 98.2407 19.9833C98.0553 19.5444 97.9563 19.1031 97.9435 18.6592C97.5723 18.6206 97.257 18.3828 96.9977 17.9461C96.763 17.5087 96.6397 17.0804 96.6276 16.6612C96.4022 16.5443 96.212 16.3647 96.0569 16.1224C95.9019 15.88 95.8209 15.6356 95.8138 15.389C95.8095 15.2411 95.8546 15.0917 95.949 14.941C95.7067 15.096 95.4499 15.1774 95.1787 15.1852C94.9075 15.193 94.6098 15.1398 94.2857 15.0258C93.9434 15.1343 93.5749 15.1942 93.1804 15.2056C92.8352 15.2155 92.5992 15.1606 92.4724 15.0408C92.1026 15.0514 91.8158 14.9486 91.6122 14.7324C91.4332 14.5154 91.3388 14.2344 91.3289 13.8892C91.3197 13.5686 91.3851 13.2706 91.5253 12.9952C91.6901 12.719 91.8715 12.5904 92.0694 12.6094C92.1173 12.5587 92.2392 12.5058 92.435 12.4508C92.6309 12.3958 92.8398 12.3652 93.0617 12.3588C93.4562 12.3475 93.7411 12.3886 93.9166 12.4823C94.3089 12.397 94.6654 12.3498 94.9859 12.3406C95.3311 12.3306 95.5421 12.3739 95.6189 12.4704C95.8838 12.2407 96.1518 12.122 96.423 12.1142C96.6203 12.1085 96.7813 12.1286 96.906 12.1744C97.0482 11.9729 97.3265 11.7798 97.7407 11.5952C98.1788 11.3852 98.5346 11.3133 98.8079 11.3794C98.9002 11.1547 99.0689 11.0141 99.314 10.9577C99.5585 10.8767 99.7923 10.8576 100.016 10.9006C100.009 10.6787 100.077 10.4546 100.218 10.2285C100.36 10.0023 100.529 9.87406 100.726 9.84374C100.617 9.50139 100.559 9.18227 100.55 8.88639C100.54 8.5412 100.582 8.26856 100.675 8.06847C100.523 7.94944 100.408 7.79236 100.328 7.59723C100.272 7.37674 100.266 7.15483 100.309 6.93151C99.9805 6.66949 99.7635 6.41662 99.6578 6.17289C99.3612 6.15673 99.0981 6.01622 98.8684 5.75138C98.5492 5.80989 98.2893 5.78034 98.0885 5.66273C97.8877 5.54511 97.6985 5.40248 97.521 5.23484C97.3434 5.0672 97.2039 4.93549 97.1025 4.8397C96.7157 5.12225 96.2635 5.27096 95.7457 5.28583C95.2033 5.30141 94.7795 5.15318 94.4744 4.84114C94.2828 5.04406 93.9528 5.15225 93.4843 5.1657C93.0405 5.17845 92.6802 5.09009 92.4033 4.90063C92.2117 5.10354 91.9063 5.21102 91.4872 5.22306C91.068 5.2351 90.733 5.17069 90.4822 5.02983C90.6161 5.39614 90.6901 5.82586 90.7043 6.31899C90.7163 6.73815 90.665 7.09744 90.5502 7.39686C90.7602 7.83501 90.8719 8.28832 90.8854 8.75679C90.8988 9.22527 90.8101 9.57329 90.6192 9.80086C90.7757 10.0925 90.8585 10.3986 90.8677 10.7191C90.8776 11.0643 90.7871 11.3507 90.5962 11.5783C90.8492 11.7931 90.9834 12.1717 90.999 12.7142C91.0125 13.1826 90.9607 13.5296 90.8438 13.755C90.9721 13.9241 91.0788 14.2048 91.1641 14.5972C91.2494 14.9896 91.2978 15.383 91.3091 15.7775C91.319 16.1227 91.2898 16.395 91.2215 16.5944C91.2736 16.6916 91.3283 16.8751 91.3854 17.1449C91.4418 17.39 91.4739 17.6482 91.4816 17.9195C91.4972 18.4619 91.4339 18.8339 91.2916 19.0354C91.5509 19.4721 91.6869 19.9124 91.6997 20.3562C91.7096 20.7014 91.6205 21.0371 91.4325 21.3633C91.7432 21.8726 91.9089 22.4847 91.9294 23.1998C91.9471 23.8162 91.8366 24.2635 91.5978 24.5418C91.7839 25.0054 91.8843 25.496 91.8992 26.0138C91.9162 26.6056 91.7824 27.1029 91.4979 27.5059C91.2126 27.8843 90.7371 28.083 90.0714 28.1021C89.6769 28.1135 89.3503 27.9131 89.0917 27.501C88.8578 27.0882 88.733 26.6106 88.7174 26.0682C88.704 25.5997 88.755 25.2281 88.8705 24.9533C88.6598 24.4905 88.5463 23.9756 88.53 23.4085C88.5158 22.9153 88.5785 22.5187 88.7179 22.2186C88.5008 21.5338 88.3849 20.9326 88.37 20.4148C88.3551 19.897 88.4424 19.4997 88.6319 19.2228C88.4318 19.1298 88.2669 18.9742 88.1373 18.7558C88.0316 18.5121 87.9748 18.2546 87.967 17.9834C87.9529 17.4902 88.0775 17.1042 88.3409 16.8252C88.2402 16.754 88.1503 16.6332 88.0714 16.4628C88.0164 16.2669 87.9861 16.0704 87.9805 15.8731C87.9663 15.38 88.0452 15.1186 88.217 15.089C88.1409 15.0172 88.074 14.834 88.0162 14.5395C87.9584 14.2451 87.9249 13.9376 87.9157 13.6171C87.9029 13.1732 87.93 12.827 87.9969 12.5783C87.7665 12.2888 87.6442 11.8975 87.63 11.4043C87.6187 11.0098 87.6835 10.6872 87.8243 10.4364C87.67 10.2187 87.5875 9.92495 87.5769 9.5551C87.5663 9.18526 87.6677 8.84921 87.8811 8.54695C87.7211 8.13204 87.6369 7.77665 87.6284 7.48077C87.6185 7.13558 87.7213 6.84884 87.9368 6.62056C87.7846 6.47687 87.6927 6.2821 87.6609 6.03624C87.6285 5.76573 87.6073 5.45788 87.5974 5.11268C87.2254 5.04934 86.9369 4.88488 86.7319 4.61933C86.5268 4.35377 86.4193 4.0484 86.4094 3.70321C86.3974 3.28405 86.5227 2.92263 86.7855 2.61897C87.0721 2.28993 87.4501 2.13102 87.9192 2.14222C87.891 2.01965 88.0235 1.9048 88.3165 1.79767C88.6342 1.68984 88.9657 1.63097 89.3108 1.62105C89.8533 1.60548 90.2147 1.73082 90.3951 1.99708C90.5416 1.94352 90.7382 1.9132 90.9847 1.90612C91.3299 1.8962 91.5656 1.93879 91.6917 2.03387C91.9826 1.85278 92.35 1.75586 92.7938 1.74311C93.3116 1.72824 93.6846 1.82858 93.9129 2.04411C94.4018 1.88201 94.8065 1.79636 95.127 1.78715C95.5955 1.7737 95.9565 1.88671 96.2102 2.12619C96.5518 1.993 96.9816 1.91896 97.4994 1.90409C97.8939 1.89276 98.2408 1.94449 98.5402 2.05927C98.8389 2.1494 99.0408 2.304 99.1458 2.52308C99.2191 2.4963 99.3297 2.48078 99.4776 2.47653C99.7981 2.46733 100.085 2.58247 100.339 2.82195C100.616 3.03607 100.81 3.31431 100.918 3.65667C101.389 3.71718 101.729 3.95419 101.938 4.36768C102.383 4.40425 102.697 4.59265 102.88 4.93288C103.086 5.24775 103.196 5.6271 103.208 6.07091C103.495 6.60557 103.645 7.10713 103.659 7.5756C103.669 7.94545 103.592 8.25614 103.426 8.50766C103.533 8.8007 103.591 9.09516 103.6 9.39104C103.613 9.83486 103.476 10.2336 103.19 10.5873C103.201 10.9818 103.102 11.3795 102.891 11.7804C102.68 12.1566 102.391 12.3993 102.024 12.5086C101.934 12.8319 101.769 13.0958 101.528 13.3001C101.287 13.5045 100.994 13.6116 100.649 13.6215C100.531 13.8223 100.363 13.9752 100.144 14.0802C99.9242 14.1605 99.6671 14.2296 99.3726 14.2874C99.1028 14.3445 98.8823 14.4002 98.7112 14.4545C98.8598 14.4749 98.987 14.607 99.0927 14.8507C99.1977 15.0698 99.2143 15.2173 99.1424 15.2934C99.3411 15.3371 99.5447 15.5533 99.7533 15.9422C99.9612 16.3064 100.032 16.6251 99.9658 16.8985C100.339 16.9865 100.629 17.2126 100.837 17.5767C101.069 17.9402 101.193 18.3685 101.207 18.8616C101.511 19.149 101.768 19.5118 101.978 19.9499C102.188 20.3881 102.287 20.8048 102.273 21.2C102.673 21.3859 102.978 21.6733 103.186 22.0621C103.395 22.451 103.481 22.8803 103.445 23.3502ZM125.029 4.00063C125.253 4.06823 125.418 4.22389 125.523 4.46763C125.654 4.71065 125.697 4.94382 125.654 5.16715C125.982 5.40451 126.137 5.65915 126.121 5.93108C126.133 6.3749 125.851 6.85187 125.273 7.36199C125.354 7.58178 125.397 7.80263 125.403 8.02453C125.413 8.36972 125.336 8.69274 125.172 8.99357C125.008 9.29441 124.804 9.51001 124.561 9.64037C124.513 10.5301 124.271 11.1293 123.836 11.4379C123.769 11.7113 123.53 11.9649 123.117 12.1989C122.704 12.4082 122.324 12.5178 121.979 12.5277C121.811 12.6806 121.507 12.8374 121.067 12.9981C120.627 13.1341 120.295 13.1683 120.071 13.1007C119.786 13.5037 119.385 13.7127 118.867 13.7275C118.67 13.7332 118.534 13.7248 118.459 13.7022C118.314 13.7804 118.117 13.8231 117.871 13.8302C117.6 13.838 117.302 13.7848 116.978 13.6707C116.591 13.9286 115.793 14.0749 114.585 14.1096C114.693 14.452 114.749 14.6971 114.754 14.8451C114.762 15.141 114.671 15.4027 114.48 15.6303C114.761 15.9677 114.914 16.5432 114.937 17.3569C114.955 17.9979 114.908 18.4805 114.793 18.8046C115.101 19.1906 115.263 19.6918 115.281 20.3082C115.296 20.8506 115.188 21.372 114.956 21.8722C115.109 22.0652 115.228 22.3455 115.313 22.7133C115.397 23.081 115.445 23.4621 115.457 23.8566C115.474 24.4484 115.411 24.845 115.269 25.0465C115.328 25.3903 115.36 25.6485 115.365 25.8211C115.395 26.8566 114.843 27.3907 113.708 27.4233C113.191 27.4381 112.789 27.1906 112.503 26.6806C112.24 26.1452 112.099 25.52 112.079 24.805C112.058 24.0899 112.141 23.5323 112.327 23.1322C112.067 22.6954 111.928 22.1565 111.91 21.5155C111.902 21.2442 111.917 20.9107 111.955 20.5148C111.725 20.2252 111.597 19.6244 111.57 18.7121C111.548 17.9477 111.608 17.4525 111.75 17.2263C111.617 16.9093 111.543 16.4549 111.526 15.8632C111.509 15.2961 111.559 14.8875 111.676 14.6374C111.544 14.345 111.475 14.1002 111.469 13.903C111.464 13.7057 111.495 13.5197 111.564 13.345C111.333 13.0062 111.21 12.5902 111.195 12.0971C111.185 11.7519 111.227 11.4916 111.321 11.3162C111.216 11.0971 111.16 10.8643 111.153 10.6177C111.145 10.3465 111.188 10.1232 111.282 9.94774C111.025 9.58497 110.893 9.29263 110.886 9.07072C110.879 8.82416 110.97 8.56243 111.16 8.28555C111.004 7.99392 110.922 7.72482 110.915 7.47826C110.903 7.08375 111.042 6.75897 111.331 6.50391C110.926 6.14539 110.716 5.70724 110.701 5.18945C110.698 5.09082 110.717 4.89286 110.758 4.59557C110.456 4.40682 110.298 4.04122 110.282 3.49877C110.271 3.10427 110.347 2.73194 110.509 2.3818C110.672 2.03165 110.876 1.85303 111.123 1.84595C111.139 1.54937 111.281 1.32321 111.548 1.16748C111.839 0.986386 112.169 0.890528 112.539 0.879906C112.884 0.869992 113.194 0.93511 113.47 1.07526C113.769 1.19005 113.947 1.35768 114.003 1.57818C114.489 1.3421 114.868 1.22017 115.14 1.21238C115.287 1.20814 115.387 1.22996 115.438 1.27786C115.511 1.25107 115.682 1.1968 115.951 1.11505C116.219 1.00863 116.465 0.952235 116.687 0.945862C117.007 0.936656 117.33 1.02608 117.657 1.21412C117.801 1.08659 118.008 0.981946 118.277 0.900186C118.546 0.818428 118.828 0.7733 119.124 0.764803C119.396 0.757013 119.619 0.787624 119.793 0.856636C119.891 0.829147 120.026 0.812924 120.199 0.807967C120.569 0.797345 120.942 0.885349 121.317 1.07198C121.693 1.25861 121.982 1.47237 122.187 1.71327C122.63 1.67587 122.978 1.75225 123.23 1.94242C123.506 2.10723 123.737 2.43372 123.924 2.92189C124.198 2.98807 124.461 3.12858 124.714 3.3434C124.991 3.55752 125.096 3.7766 125.029 4.00063ZM114.132 11.2354C114.276 11.1079 114.521 11.0392 114.866 11.0293C115.285 11.0172 115.558 11.0711 115.685 11.1908C115.853 11.0133 116.183 10.9174 116.676 10.9033C117.169 10.8891 117.493 10.9662 117.645 11.1345C117.814 11.0063 118.072 10.9372 118.417 10.9273C118.639 10.9209 118.812 10.953 118.938 11.0234C119.2 10.7197 119.492 10.5633 119.813 10.5541C119.985 10.5491 120.121 10.5576 120.221 10.5794C120.264 10.3807 120.529 10.151 121.015 9.89028C121.5 9.6049 121.88 9.4953 122.153 9.56148C122.147 9.36422 122.214 9.10321 122.353 8.77842C122.491 8.45364 122.633 8.23981 122.778 8.13694C122.677 8.04114 122.622 7.84531 122.614 7.54943C122.604 7.20424 122.642 6.82065 122.729 6.39865C122.839 5.95129 122.954 5.6642 123.074 5.53738C122.072 5.02326 121.552 4.53232 121.514 4.06456C121.117 4.00192 120.656 3.81777 120.129 3.5121C119.448 3.87712 118.874 4.06636 118.405 4.07981C118.134 4.0876 117.75 4.03694 117.253 3.92782C116.769 4.26252 116.244 4.43801 115.677 4.4543C115.332 4.46421 115.046 4.39838 114.82 4.25682C114.797 4.3315 114.627 4.42275 114.309 4.53058C114.016 4.63771 113.808 4.68071 113.684 4.65959C113.716 4.90545 113.811 5.21118 113.969 5.57678C114.154 5.99098 114.251 6.35835 114.26 6.67889C114.269 6.99942 114.167 7.31081 113.954 7.61306C114.058 7.80748 114.117 8.13893 114.13 8.6074C114.142 9.00191 114.101 9.28687 114.007 9.4623C114.235 9.67784 114.355 9.99518 114.367 10.4143C114.375 10.6856 114.297 10.9593 114.132 11.2354Z" fill="#DBF1DC"/>
</svg>
