<svg width="506" height="158" viewBox="0 0 506 158" fill="none" xmlns="http://www.w3.org/2000/svg">
<path d="M1.58523 14H6.49432C9.30682 14 10.8409 12.4148 10.8409 10.1392C10.8409 7.86364 9.30682 6.40625 6.49432 6.40625H3.17045V2.31534H9.4858V0.909091H1.58523V14ZM3.17045 12.6193V7.8125H6.49432C8.28409 7.8125 9.28125 8.8608 9.28125 10.1136C9.28125 11.392 8.28409 12.6193 6.49432 12.6193H3.17045ZM14.7544 7.7358V4.18182H13.2459V14H17.3624C19.6635 14 20.9164 12.5938 20.9164 10.8295C20.9164 9.03977 19.6635 7.7358 17.3624 7.7358H14.7544ZM22.476 14H23.9846V4.18182H22.476V14ZM14.7544 9.14205H17.3624C18.5577 9.14205 19.4078 9.87074 19.4078 10.9062C19.4078 11.897 18.5577 12.5938 17.3624 12.5938H14.7544V9.14205ZM25.8766 14H26.388C28.5613 14 29.1877 12.3125 29.3283 9.09091L29.4817 5.58807H33.0868V14H34.5953V4.18182H28.0499L27.8709 8.52841C27.7431 11.8267 27.4107 12.5938 26.2346 12.5938H25.8766V14ZM38.8716 11.7756V4.18182H37.3631V14H39.1273L43.8319 6.40625V14H45.3404V4.18182H43.6017L38.8716 11.7756ZM54.1374 17.6562C55.4989 17.6562 56.4641 16.9339 57.0266 15.4318L61.207 4.20739L59.5579 4.18182L56.8477 12.0057H56.7454L54.0352 4.18182H52.3988L56.0295 14.0511L55.7482 14.8182C55.2113 16.2884 54.521 16.429 53.4215 16.1477L53.038 17.4773C53.1914 17.554 53.6261 17.6562 54.1374 17.6562ZM70.4723 4.18182H68.9638V9.16122C68.2351 9.37216 67.4872 9.5 66.5859 9.5C65.3587 9.5 64.4126 8.80966 64.4126 7.30114V4.15625H62.9041V7.30114C62.9041 9.70455 64.3615 10.9062 66.5859 10.9062C67.5128 10.9062 68.2543 10.7848 68.9638 10.5739V14H70.4723V4.18182ZM71.9041 5.58807H75.1513V14H76.6598V5.58807H79.8814V4.18182H71.9041V5.58807ZM85.6886 14.2045C87.6829 14.2045 89.1403 13.2074 89.6005 11.7244L88.1431 11.3153C87.7596 12.3381 86.8711 12.8494 85.6886 12.8494C83.918 12.8494 82.6971 11.7053 82.6268 9.60227H89.7539V8.96307C89.7539 5.30682 87.5806 4.05398 85.5352 4.05398C82.8761 4.05398 81.1119 6.15057 81.1119 9.16761C81.1119 12.1847 82.8505 14.2045 85.6886 14.2045ZM82.6268 8.2983C82.729 6.7706 83.8093 5.40909 85.5352 5.40909C87.1715 5.40909 88.2198 6.63636 88.2198 8.2983H82.6268ZM93.5572 4.18182H92.0487V14H93.5572V9.80682H98.2617V14H99.7702V4.18182H98.2617V8.40057H93.5572V4.18182ZM104.034 7.7358V4.18182H102.525V14H106.642C108.943 14 110.196 12.5938 110.196 10.8295C110.196 9.03977 108.943 7.7358 106.642 7.7358H104.034ZM111.755 14H113.264V4.18182H111.755V14ZM104.034 9.14205H106.642C107.837 9.14205 108.687 9.87074 108.687 10.9062C108.687 11.897 107.837 12.5938 106.642 12.5938H104.034V9.14205ZM126.457 11.9545L123.082 4.18182H121.088V14H122.596V6.34872L125.843 14H127.071L130.318 6.48935V14H131.826V4.18182H129.883L126.457 11.9545ZM136.096 4.18182H134.588V14H136.096V9.80682H140.801V14H142.309V4.18182H140.801V8.40057H136.096V4.18182ZM149.053 14.2045C151.712 14.2045 153.502 12.1847 153.502 9.14205C153.502 6.07386 151.712 4.05398 149.053 4.05398C146.394 4.05398 144.604 6.07386 144.604 9.14205C144.604 12.1847 146.394 14.2045 149.053 14.2045ZM149.053 12.8494C147.033 12.8494 146.113 11.1108 146.113 9.14205C146.113 7.1733 147.033 5.40909 149.053 5.40909C151.073 5.40909 151.993 7.1733 151.993 9.14205C151.993 11.1108 151.073 12.8494 149.053 12.8494ZM161.864 4.18182H155.805V14H157.313V5.58807H161.864V4.18182ZM165.575 11.7756V4.18182H164.066V14H165.83L170.535 6.40625V14H172.044V4.18182H170.305L165.575 11.7756ZM178.923 14.2045C180.917 14.2045 182.375 13.2074 182.835 11.7244L181.377 11.3153C180.994 12.3381 180.105 12.8494 178.923 12.8494C177.152 12.8494 175.931 11.7053 175.861 9.60227H182.988V8.96307C182.988 5.30682 180.815 4.05398 178.77 4.05398C176.11 4.05398 174.346 6.15057 174.346 9.16761C174.346 12.1847 176.085 14.2045 178.923 14.2045ZM175.861 8.2983C175.963 6.7706 177.044 5.40909 178.77 5.40909C180.406 5.40909 181.454 6.63636 181.454 8.2983H175.861ZM190.346 14H191.854V5.58807H196.559V14H198.067V4.18182H190.346V14ZM204.811 14.2045C207.47 14.2045 209.26 12.1847 209.26 9.14205C209.26 6.07386 207.47 4.05398 204.811 4.05398C202.152 4.05398 200.362 6.07386 200.362 9.14205C200.362 12.1847 202.152 14.2045 204.811 14.2045ZM204.811 12.8494C202.791 12.8494 201.87 11.1108 201.87 9.14205C201.87 7.1733 202.791 5.40909 204.811 5.40909C206.831 5.40909 207.751 7.1733 207.751 9.14205C207.751 11.1108 206.831 12.8494 204.811 12.8494ZM210.544 14H212.36L215.709 9.78125H216.476V14H217.985V9.78125H218.752L222.076 14H223.891L219.928 9.0142L223.84 4.18182H222.05L218.777 8.375H217.985V4.18182H216.476V8.375H215.658L212.385 4.18182H210.596L214.533 9.0142L210.544 14ZM229.759 14.2045C231.753 14.2045 233.211 13.2074 233.671 11.7244L232.213 11.3153C231.83 12.3381 230.941 12.8494 229.759 12.8494C227.988 12.8494 226.767 11.7053 226.697 9.60227H233.824V8.96307C233.824 5.30682 231.651 4.05398 229.605 4.05398C226.946 4.05398 225.182 6.15057 225.182 9.16761C225.182 12.1847 226.921 14.2045 229.759 14.2045ZM226.697 8.2983C226.799 6.7706 227.88 5.40909 229.605 5.40909C231.242 5.40909 232.29 6.63636 232.29 8.2983H226.697ZM235.25 14H235.761C237.934 14 238.561 12.3125 238.701 9.09091L238.855 5.58807H242.46V14H243.968V4.18182H237.423L237.244 8.52841C237.116 11.8267 236.784 12.5938 235.608 12.5938H235.25V14ZM249.625 14.2301C251.338 14.2301 252.233 13.3097 252.54 12.6705H252.617V14H254.125V7.53125C254.125 4.41193 251.748 4.05398 250.495 4.05398C249.012 4.05398 247.324 4.56534 246.557 6.35511L247.989 6.86648C248.321 6.15057 249.108 5.38352 250.546 5.38352C251.933 5.38352 252.617 6.11861 252.617 7.37784V7.42898C252.617 8.15767 251.875 8.09375 250.086 8.32386C248.264 8.56037 246.276 8.96307 246.276 11.2131C246.276 13.1307 247.759 14.2301 249.625 14.2301ZM249.855 12.875C248.654 12.875 247.784 12.3381 247.784 11.2898C247.784 10.1392 248.833 9.78125 250.009 9.62784C250.648 9.55114 252.361 9.37216 252.617 9.06534V10.446C252.617 11.6733 251.645 12.875 249.855 12.875ZM258.387 4.18182H256.879V14H258.387V9.80682H263.092V14H264.6V4.18182H263.092V8.40057H258.387V4.18182ZM268.864 11.7756V4.18182H267.355V14H269.119L273.824 6.40625V14H275.333V4.18182H273.594L268.864 11.7756ZM284.002 14H285.434V4.18182H281.394C279.278 4.18182 277.993 5.28764 277.993 7.09659C277.993 8.44531 278.671 9.40412 279.853 9.80682L277.456 14H279.093L281.368 10.0114H284.002V14ZM284.002 8.60511H281.215C280.147 8.60511 279.502 8.03622 279.502 7.09659C279.502 6.14418 280.218 5.5625 281.394 5.5625H284.002V8.60511ZM294.774 11.7756V4.18182H293.265V14H295.03L299.734 6.40625V14H301.243V4.18182H299.504L294.774 11.7756ZM310.065 4.18182H304.006V14H305.514V5.58807H310.065V4.18182ZM312.267 17.6818H313.776V12.4915H313.904C314.236 13.0284 314.875 14.2045 316.767 14.2045C319.222 14.2045 320.935 12.2358 320.935 9.11648C320.935 6.02273 319.222 4.05398 316.742 4.05398C314.824 4.05398 314.236 5.23011 313.904 5.74148H313.725V4.18182H312.267V17.6818ZM313.75 9.09091C313.75 6.89205 314.722 5.40909 316.563 5.40909C318.48 5.40909 319.426 7.01989 319.426 9.09091C319.426 11.1875 318.455 12.8494 316.563 12.8494C314.748 12.8494 313.75 11.3153 313.75 9.09091ZM327.225 14.2045C329.884 14.2045 331.674 12.1847 331.674 9.14205C331.674 6.07386 329.884 4.05398 327.225 4.05398C324.566 4.05398 322.776 6.07386 322.776 9.14205C322.776 12.1847 324.566 14.2045 327.225 14.2045ZM327.225 12.8494C325.205 12.8494 324.284 11.1108 324.284 9.14205C324.284 7.1733 325.205 5.40909 327.225 5.40909C329.245 5.40909 330.165 7.1733 330.165 9.14205C330.165 11.1108 329.245 12.8494 327.225 12.8494ZM333.976 14H335.485V9.85795H336.84L340.062 14H342.005L337.991 8.91193L341.954 4.18182H340.01L336.482 8.4517H335.485V4.18182H333.976V14ZM347.229 14.2045C349.888 14.2045 351.678 12.1847 351.678 9.14205C351.678 6.07386 349.888 4.05398 347.229 4.05398C344.57 4.05398 342.78 6.07386 342.78 9.14205C342.78 12.1847 344.57 14.2045 347.229 14.2045ZM347.229 12.8494C345.209 12.8494 344.288 11.1108 344.288 9.14205C344.288 7.1733 345.209 5.40909 347.229 5.40909C349.249 5.40909 350.169 7.1733 350.169 9.14205C350.169 11.1108 349.249 12.8494 347.229 12.8494ZM353.98 14H358.608C360.602 14 361.804 12.875 361.804 11.3665C361.804 9.82599 360.634 8.99503 359.554 8.83523C360.66 8.60511 361.446 7.98509 361.446 6.78977C361.446 5.22372 360.104 4.18182 357.994 4.18182H353.98V14ZM355.412 12.6193V9.60227H358.608C359.644 9.60227 360.27 10.2223 360.27 11.2386C360.27 12.0952 359.644 12.6193 358.608 12.6193H355.412ZM355.412 8.2983V5.5625H357.994C359.203 5.5625 359.938 6.06747 359.938 6.89205C359.938 7.76776 359.203 8.2983 357.994 8.2983H355.412ZM370.659 11.7756V4.18182H369.15V14H370.914L375.619 6.40625V14H377.127V4.18182H375.389L370.659 11.7756ZM386.461 11.7756V4.18182H384.953V14H386.717L391.422 6.40625V14H392.93V4.18182H391.192L386.461 11.7756ZM396.818 4.18182H395.08L398.199 9.09091L395.08 14H396.818L399.17 10.1903L401.523 14H403.261L400.091 9.09091L403.261 4.18182H401.523L399.17 8.19602L396.818 4.18182ZM411.985 11.7756V4.18182H410.476V14H412.241L416.945 6.40625V14H418.454V4.18182H416.715L411.985 11.7756ZM420.168 16.8125H421.677V14H428.938V16.8125H430.447V12.5938H428.938V4.18182H422.7L422.367 8.06818C422.131 10.8168 421.779 11.7628 420.987 12.5938H420.168V16.8125ZM422.7 12.5938C423.39 11.6861 423.639 10.12 423.85 8.06818L424.106 5.58807H427.43V12.5938H422.7ZM436.566 14.2045C438.56 14.2045 440.017 13.2074 440.477 11.7244L439.02 11.3153C438.637 12.3381 437.748 12.8494 436.566 12.8494C434.795 12.8494 433.574 11.7053 433.504 9.60227H440.631V8.96307C440.631 5.30682 438.458 4.05398 436.412 4.05398C433.753 4.05398 431.989 6.15057 431.989 9.16761C431.989 12.1847 433.727 14.2045 436.566 14.2045ZM433.504 8.2983C433.606 6.7706 434.686 5.40909 436.412 5.40909C438.048 5.40909 439.097 6.63636 439.097 8.2983H433.504ZM444.434 11.7756V4.18182H442.926V14H444.69L449.394 6.40625V14H450.903V4.18182H449.164L444.434 11.7756ZM457.68 16.8125H459.189V14H466.45V16.8125H467.958V12.5938H466.45V4.18182H460.211L459.879 8.06818C459.642 10.8168 459.291 11.7628 458.498 12.5938H457.68V16.8125ZM460.211 12.5938C460.902 11.6861 461.151 10.12 461.362 8.06818L461.618 5.58807H464.941V12.5938H460.211ZM469.091 14H469.603C471.776 14 472.403 12.3125 472.543 9.09091L472.697 5.58807H476.302V14H477.81V4.18182H471.265L471.086 8.52841C470.958 11.8267 470.626 12.5938 469.449 12.5938H469.091V14ZM486.484 14H487.916V4.18182H483.876C481.76 4.18182 480.476 5.28764 480.476 7.09659C480.476 8.44531 481.153 9.40412 482.336 9.80682L479.939 14H481.575L483.851 10.0114H486.484V14ZM486.484 8.60511H483.697C482.63 8.60511 481.984 8.03622 481.984 7.09659C481.984 6.14418 482.7 5.5625 483.876 5.5625H486.484V8.60511ZM5.36932 42.2045C7.54261 42.2045 8.97443 40.875 9.23011 39.1364H7.72159C7.44034 40.2102 6.54545 40.8494 5.36932 40.8494C3.57955 40.8494 2.42898 39.3665 2.42898 37.0909C2.42898 34.8665 3.60511 33.4091 5.36932 33.4091C6.69886 33.4091 7.49148 34.2273 7.72159 35.1222H9.23011C8.97443 33.2812 7.41477 32.054 5.34375 32.054C2.68466 32.054 0.920455 34.1506 0.920455 37.142C0.920455 40.0824 2.60795 42.2045 5.36932 42.2045ZM15.424 42.2045C18.0831 42.2045 19.8729 40.1847 19.8729 37.142C19.8729 34.0739 18.0831 32.054 15.424 32.054C12.7649 32.054 10.9751 34.0739 10.9751 37.142C10.9751 40.1847 12.7649 42.2045 15.424 42.2045ZM15.424 40.8494C13.4041 40.8494 12.4837 39.1108 12.4837 37.142C12.4837 35.1733 13.4041 33.4091 15.424 33.4091C17.4439 33.4091 18.3643 35.1733 18.3643 37.142C18.3643 39.1108 17.4439 40.8494 15.424 40.8494ZM21.562 39.4943C21.6131 41.1051 23.1536 42.2045 25.2438 42.2045C27.3915 42.2045 28.9512 41.054 28.9512 39.2642C28.9512 38.0369 28.2161 37.0398 27.1103 36.9631V36.8608C28.0435 36.5732 28.7466 35.8956 28.7466 34.7898C28.7466 33.2365 27.4171 32.054 25.3461 32.054C23.3006 32.054 21.8432 33.179 21.7921 34.7642H23.3773C23.4221 33.9524 24.2722 33.3835 25.4228 33.3835C26.5669 33.3835 27.2125 33.9652 27.2125 34.8409C27.2125 35.6591 26.65 36.2727 25.4483 36.2727H23.7608V37.6278H25.4483C26.65 37.6278 27.4171 38.2862 27.4171 39.2642C27.4171 40.3828 26.4263 40.8494 25.2182 40.8494C24.0357 40.8494 23.2431 40.3828 23.1728 39.4943H21.562ZM30.0218 44.8125H31.5304V42H38.7917V44.8125H40.3002V40.5938H38.7917V32.1818H32.5531L32.2207 36.0682C31.9842 38.8168 31.6326 39.7628 30.84 40.5938H30.0218V44.8125ZM32.5531 40.5938C33.2434 39.6861 33.4927 38.12 33.7037 36.0682L33.9593 33.5881H37.2832V40.5938H32.5531ZM45.1918 42.2301C46.9048 42.2301 47.7997 41.3097 48.1065 40.6705H48.1832V42H49.6918V35.5312C49.6918 32.4119 47.3139 32.054 46.0611 32.054C44.5781 32.054 42.8906 32.5653 42.1236 34.3551L43.5554 34.8665C43.8878 34.1506 44.674 33.3835 46.1122 33.3835C47.4993 33.3835 48.1832 34.1186 48.1832 35.3778V35.429C48.1832 36.1577 47.4418 36.0938 45.652 36.3239C43.8303 36.5604 41.8423 36.9631 41.8423 39.2131C41.8423 41.1307 43.3253 42.2301 45.1918 42.2301ZM45.4219 40.875C44.2202 40.875 43.3509 40.3381 43.3509 39.2898C43.3509 38.1392 44.3991 37.7812 45.5753 37.6278C46.2145 37.5511 47.9276 37.3722 48.1832 37.0653V38.446C48.1832 39.6733 47.2116 40.875 45.4219 40.875ZM53.9537 32.1818H52.4451V42H53.9537V37.8068H58.6582V42H60.1667V32.1818H58.6582V36.4006H53.9537V32.1818ZM64.4302 39.7756V32.1818H62.9217V42H64.6859L69.3904 34.4062V42H70.899V32.1818H69.1603L64.4302 39.7756ZM79.5682 42H81V32.1818H76.9602C74.8445 32.1818 73.5597 33.2876 73.5597 35.0966C73.5597 36.4453 74.2372 37.4041 75.4197 37.8068L73.0227 42H74.6591L76.9347 38.0114H79.5682V42ZM79.5682 36.6051H76.7812C75.7138 36.6051 75.0682 36.0362 75.0682 35.0966C75.0682 34.1442 75.7841 33.5625 76.9602 33.5625H79.5682V36.6051ZM94.2012 39.9545L90.8262 32.1818H88.8319V42H90.3404V34.3487L93.5875 42H94.8148L98.062 34.4893V42H99.5705V32.1818H97.6273L94.2012 39.9545ZM105.221 42.2301C106.934 42.2301 107.829 41.3097 108.136 40.6705H108.213V42H109.721V35.5312C109.721 32.4119 107.343 32.054 106.09 32.054C104.607 32.054 102.92 32.5653 102.153 34.3551L103.585 34.8665C103.917 34.1506 104.703 33.3835 106.142 33.3835C107.529 33.3835 108.213 34.1186 108.213 35.3778V35.429C108.213 36.1577 107.471 36.0938 105.681 36.3239C103.86 36.5604 101.872 36.9631 101.872 39.2131C101.872 41.1307 103.355 42.2301 105.221 42.2301ZM105.451 40.875C104.249 40.875 103.38 40.3381 103.38 39.2898C103.38 38.1392 104.428 37.7812 105.605 37.6278C106.244 37.5511 107.957 37.3722 108.213 37.0653V38.446C108.213 39.6733 107.241 40.875 105.451 40.875ZM112.474 42H113.983V37.858H115.338L118.56 42H120.503L116.489 36.9119L120.452 32.1818H118.509L114.98 36.4517H113.983V32.1818H112.474V42ZM125.727 42.2045C127.9 42.2045 129.332 40.875 129.588 39.1364H128.079C127.798 40.2102 126.903 40.8494 125.727 40.8494C123.937 40.8494 122.786 39.3665 122.786 37.0909C122.786 34.8665 123.963 33.4091 125.727 33.4091C127.056 33.4091 127.849 34.2273 128.079 35.1222H129.588C129.332 33.2812 127.772 32.054 125.701 32.054C123.042 32.054 121.278 34.1506 121.278 37.142C121.278 40.0824 122.965 42.2045 125.727 42.2045ZM133.301 39.7756V32.1818H131.793V42H133.557L138.262 34.4062V42H139.77V32.1818H138.031L133.301 39.7756ZM147.902 39.9545L144.527 32.1818H142.533V42H144.042V34.3487L147.289 42H148.516L151.763 34.4893V42H153.272V32.1818H151.328L147.902 39.9545ZM158.922 42.2301C160.635 42.2301 161.53 41.3097 161.837 40.6705H161.914V42H163.422V35.5312C163.422 32.4119 161.044 32.054 159.792 32.054C158.309 32.054 156.621 32.5653 155.854 34.3551L157.286 34.8665C157.618 34.1506 158.404 33.3835 159.843 33.3835C161.23 33.3835 161.914 34.1186 161.914 35.3778V35.429C161.914 36.1577 161.172 36.0938 159.382 36.3239C157.561 36.5604 155.573 36.9631 155.573 39.2131C155.573 41.1307 157.056 42.2301 158.922 42.2301ZM159.152 40.875C157.951 40.875 157.081 40.3381 157.081 39.2898C157.081 38.1392 158.13 37.7812 159.306 37.6278C159.945 37.5511 161.658 37.3722 161.914 37.0653V38.446C161.914 39.6733 160.942 40.875 159.152 40.875ZM165.306 42H165.818C167.991 42 168.617 40.3125 168.758 37.0909L168.911 33.5881H172.517V42H174.025V32.1818H167.48L167.301 36.5284C167.173 39.8267 166.84 40.5938 165.664 40.5938H165.306V42ZM178.301 35.7358V32.1818H176.793V42H180.909C183.21 42 184.463 40.5938 184.463 38.8295C184.463 37.0398 183.21 35.7358 180.909 35.7358H178.301ZM178.301 37.142H180.909C182.105 37.142 182.955 37.8707 182.955 38.9062C182.955 39.897 182.105 40.5938 180.909 40.5938H178.301V37.142ZM188.268 32.1818H186.76V42H188.268V37.8068H192.973V42H194.481V32.1818H192.973V36.4006H188.268V32.1818ZM201.225 42.2045C203.884 42.2045 205.674 40.1847 205.674 37.142C205.674 34.0739 203.884 32.054 201.225 32.054C198.566 32.054 196.776 34.0739 196.776 37.142C196.776 40.1847 198.566 42.2045 201.225 42.2045ZM201.225 40.8494C199.205 40.8494 198.284 39.1108 198.284 37.142C198.284 35.1733 199.205 33.4091 201.225 33.4091C203.245 33.4091 204.165 35.1733 204.165 37.142C204.165 39.1108 203.245 40.8494 201.225 40.8494ZM213.039 42H214.547V37.858H215.903L219.124 42H221.067L217.053 36.9119L221.016 32.1818H219.073L215.545 36.4517H214.547V32.1818H213.039V42ZM226.291 42.2045C228.95 42.2045 230.74 40.1847 230.74 37.142C230.74 34.0739 228.95 32.054 226.291 32.054C223.632 32.054 221.842 34.0739 221.842 37.142C221.842 40.1847 223.632 42.2045 226.291 42.2045ZM226.291 40.8494C224.271 40.8494 223.351 39.1108 223.351 37.142C223.351 35.1733 224.271 33.4091 226.291 33.4091C228.311 33.4091 229.232 35.1733 229.232 37.142C229.232 39.1108 228.311 40.8494 226.291 40.8494ZM238.412 39.9545L235.037 32.1818H233.043V42H234.551V34.3487L237.798 42H239.026L242.273 34.4893V42H243.781V32.1818H241.838L238.412 39.9545ZM250.531 45.3494H252.04V42.2045C254.699 42.2045 256.489 40.1847 256.489 37.142C256.489 34.0739 254.699 32.054 252.04 32.054V28.9091H250.531V32.054C247.872 32.054 246.083 34.0739 246.083 37.142C246.083 40.1847 247.872 42.2045 250.531 42.2045V45.3494ZM252.04 40.8494V33.4091C254.06 33.4091 254.98 35.1733 254.98 37.142C254.98 39.1108 254.06 40.8494 252.04 40.8494ZM250.531 40.8494C248.512 40.8494 247.591 39.1108 247.591 37.142C247.591 35.1733 248.512 33.4091 250.531 33.4091V40.8494ZM262.783 42.2045C265.442 42.2045 267.232 40.1847 267.232 37.142C267.232 34.0739 265.442 32.054 262.783 32.054C260.124 32.054 258.335 34.0739 258.335 37.142C258.335 40.1847 260.124 42.2045 262.783 42.2045ZM262.783 40.8494C260.763 40.8494 259.843 39.1108 259.843 37.142C259.843 35.1733 260.763 33.4091 262.783 33.4091C264.803 33.4091 265.724 35.1733 265.724 37.142C265.724 39.1108 264.803 40.8494 262.783 40.8494ZM269.535 45.6818H271.044V40.4915H271.171C271.504 41.0284 272.143 42.2045 274.035 42.2045C276.49 42.2045 278.203 40.2358 278.203 37.1165C278.203 34.0227 276.49 32.054 274.009 32.054C272.092 32.054 271.504 33.2301 271.171 33.7415H270.992V32.1818H269.535V45.6818ZM271.018 37.0909C271.018 34.892 271.99 33.4091 273.83 33.4091C275.748 33.4091 276.694 35.0199 276.694 37.0909C276.694 39.1875 275.722 40.8494 273.83 40.8494C272.015 40.8494 271.018 39.3153 271.018 37.0909ZM279.221 33.5881H282.468V42H283.976V33.5881H287.198V32.1818H279.221V33.5881ZM290.907 32.1818H289.398V42H290.907V37.8068H295.611V42H297.12V32.1818H295.611V36.4006H290.907V32.1818ZM303.863 42.2045C306.523 42.2045 308.312 40.1847 308.312 37.142C308.312 34.0739 306.523 32.054 303.863 32.054C301.204 32.054 299.415 34.0739 299.415 37.142C299.415 40.1847 301.204 42.2045 303.863 42.2045ZM303.863 40.8494C301.844 40.8494 300.923 39.1108 300.923 37.142C300.923 35.1733 301.844 33.4091 303.863 33.4091C305.883 33.4091 306.804 35.1733 306.804 37.142C306.804 39.1108 305.883 40.8494 303.863 40.8494ZM316.675 32.1818H310.615V42H312.124V33.5881H316.675V32.1818ZM322.356 42.2045C325.015 42.2045 326.805 40.1847 326.805 37.142C326.805 34.0739 325.015 32.054 322.356 32.054C319.697 32.054 317.907 34.0739 317.907 37.142C317.907 40.1847 319.697 42.2045 322.356 42.2045ZM322.356 40.8494C320.336 40.8494 319.415 39.1108 319.415 37.142C319.415 35.1733 320.336 33.4091 322.356 33.4091C324.376 33.4091 325.296 35.1733 325.296 37.142C325.296 39.1108 324.376 40.8494 322.356 40.8494ZM335.678 39.7756V32.1818H334.17V42H335.934L340.638 34.4062V42H342.147V32.1818H340.408L335.678 39.7756ZM350.97 32.1818H344.91V42H346.419V33.5881H350.97V32.1818ZM353.172 45.6818H354.68V40.4915H354.808C355.14 41.0284 355.78 42.2045 357.672 42.2045C360.126 42.2045 361.839 40.2358 361.839 37.1165C361.839 34.0227 360.126 32.054 357.646 32.054C355.729 32.054 355.14 33.2301 354.808 33.7415H354.629V32.1818H353.172V45.6818ZM354.655 37.0909C354.655 34.892 355.626 33.4091 357.467 33.4091C359.385 33.4091 360.331 35.0199 360.331 37.0909C360.331 39.1875 359.359 40.8494 357.467 40.8494C355.652 40.8494 354.655 39.3153 354.655 37.0909ZM368.129 42.2045C370.788 42.2045 372.578 40.1847 372.578 37.142C372.578 34.0739 370.788 32.054 368.129 32.054C365.47 32.054 363.68 34.0739 363.68 37.142C363.68 40.1847 365.47 42.2045 368.129 42.2045ZM368.129 40.8494C366.109 40.8494 365.189 39.1108 365.189 37.142C365.189 35.1733 366.109 33.4091 368.129 33.4091C370.149 33.4091 371.069 35.1733 371.069 37.142C371.069 39.1108 370.149 40.8494 368.129 40.8494ZM374.881 42H379.509C381.503 42 382.705 40.875 382.705 39.3665C382.705 37.826 381.535 36.995 380.455 36.8352C381.56 36.6051 382.347 35.9851 382.347 34.7898C382.347 33.2237 381.004 32.1818 378.895 32.1818H374.881V42ZM376.312 40.6193V37.6023H379.509C380.544 37.6023 381.17 38.2223 381.17 39.2386C381.17 40.0952 380.544 40.6193 379.509 40.6193H376.312ZM376.312 36.2983V33.5625H378.895C380.103 33.5625 380.838 34.0675 380.838 34.892C380.838 35.7678 380.103 36.2983 378.895 36.2983H376.312ZM388.977 42.2045C391.636 42.2045 393.426 40.1847 393.426 37.142C393.426 34.0739 391.636 32.054 388.977 32.054C386.318 32.054 384.528 34.0739 384.528 37.142C384.528 40.1847 386.318 42.2045 388.977 42.2045ZM388.977 40.8494C386.957 40.8494 386.036 39.1108 386.036 37.142C386.036 35.1733 386.957 33.4091 388.977 33.4091C390.997 33.4091 391.917 35.1733 391.917 37.142C391.917 39.1108 390.997 40.8494 388.977 40.8494ZM401.788 32.1818H395.728V42H397.237V33.5881H401.788V32.1818ZM407.469 42.2045C410.128 42.2045 411.918 40.1847 411.918 37.142C411.918 34.0739 410.128 32.054 407.469 32.054C404.81 32.054 403.02 34.0739 403.02 37.142C403.02 40.1847 404.81 42.2045 407.469 42.2045ZM407.469 40.8494C405.449 40.8494 404.529 39.1108 404.529 37.142C404.529 35.1733 405.449 33.4091 407.469 33.4091C409.489 33.4091 410.409 35.1733 410.409 37.142C410.409 39.1108 409.489 40.8494 407.469 40.8494ZM419.283 42H420.792V33.5881H425.496V42H427.005V32.1818H419.283V42ZM429.76 45.6818H431.268V40.4915H431.396C431.728 41.0284 432.368 42.2045 434.26 42.2045C436.714 42.2045 438.427 40.2358 438.427 37.1165C438.427 34.0227 436.714 32.054 434.234 32.054C432.316 32.054 431.728 33.2301 431.396 33.7415H431.217V32.1818H429.76V45.6818ZM431.243 37.0909C431.243 34.892 432.214 33.4091 434.055 33.4091C435.973 33.4091 436.919 35.0199 436.919 37.0909C436.919 39.1875 435.947 40.8494 434.055 40.8494C432.24 40.8494 431.243 39.3153 431.243 37.0909ZM444.717 42.2045C447.376 42.2045 449.166 40.1847 449.166 37.142C449.166 34.0739 447.376 32.054 444.717 32.054C442.058 32.054 440.268 34.0739 440.268 37.142C440.268 40.1847 442.058 42.2045 444.717 42.2045ZM444.717 40.8494C442.697 40.8494 441.777 39.1108 441.777 37.142C441.777 35.1733 442.697 33.4091 444.717 33.4091C446.737 33.4091 447.657 35.1733 447.657 37.142C447.657 39.1108 446.737 40.8494 444.717 40.8494ZM459.19 32.1818H457.682V40.5938H452.977V32.1818H451.469V42H459.19V45.1705H460.699V40.5938H459.19V32.1818ZM466.905 42.2045C468.9 42.2045 470.357 41.2074 470.817 39.7244L469.36 39.3153C468.976 40.3381 468.088 40.8494 466.905 40.8494C465.135 40.8494 463.914 39.7053 463.844 37.6023H470.971V36.9631C470.971 33.3068 468.797 32.054 466.752 32.054C464.093 32.054 462.329 34.1506 462.329 37.1676C462.329 40.1847 464.067 42.2045 466.905 42.2045ZM463.844 36.2983C463.946 34.7706 465.026 33.4091 466.752 33.4091C468.388 33.4091 469.437 34.6364 469.437 36.2983H463.844ZM477.254 42.2045C479.427 42.2045 480.859 40.875 481.115 39.1364H479.606C479.325 40.2102 478.43 40.8494 477.254 40.8494C475.464 40.8494 474.314 39.3665 474.314 37.0909C474.314 34.8665 475.49 33.4091 477.254 33.4091C478.584 33.4091 479.376 34.2273 479.606 35.1222H481.115C480.859 33.2812 479.3 32.054 477.229 32.054C474.569 32.054 472.805 34.1506 472.805 37.142C472.805 40.0824 474.493 42.2045 477.254 42.2045ZM487.309 42.2045C489.482 42.2045 490.914 40.875 491.17 39.1364H489.661C489.38 40.2102 488.485 40.8494 487.309 40.8494C485.519 40.8494 484.368 39.3665 484.368 37.0909C484.368 34.8665 485.545 33.4091 487.309 33.4091C488.638 33.4091 489.431 34.2273 489.661 35.1222H491.17C490.914 33.2812 489.354 32.054 487.283 32.054C484.624 32.054 482.86 34.1506 482.86 37.142C482.86 40.0824 484.547 42.2045 487.309 42.2045ZM496.264 42.2301C497.977 42.2301 498.872 41.3097 499.179 40.6705H499.256V42H500.764V35.5312C500.764 32.4119 498.386 32.054 497.133 32.054C495.65 32.054 493.963 32.5653 493.196 34.3551L494.628 34.8665C494.96 34.1506 495.746 33.3835 497.184 33.3835C498.572 33.3835 499.256 34.1186 499.256 35.3778V35.429C499.256 36.1577 498.514 36.0938 496.724 36.3239C494.903 36.5604 492.915 36.9631 492.915 39.2131C492.915 41.1307 494.398 42.2301 496.264 42.2301ZM496.494 40.875C495.292 40.875 494.423 40.3381 494.423 39.2898C494.423 38.1392 495.471 37.7812 496.648 37.6278C497.287 37.5511 499 37.3722 499.256 37.0653V38.446C499.256 39.6733 498.284 40.875 496.494 40.875ZM504.617 42.1023C505.25 42.1023 505.767 41.5845 505.767 40.9517C505.767 40.3189 505.25 39.8011 504.617 39.8011C503.984 39.8011 503.466 40.3189 503.466 40.9517C503.466 41.5845 503.984 42.1023 504.617 42.1023ZM0.460227 73.1705H1.96875V70H11.1989V73.1449H12.7074V68.5938H11.1989V56.9091H3.42614L3.14489 62.4318C2.96591 66.1903 2.1733 67.8011 1.30398 68.5938H0.460227V73.1705ZM3.19602 68.5938C3.98864 67.3409 4.5 65.2955 4.65341 62.4318L4.85795 58.3153H9.69034V68.5938H3.19602ZM18.8869 70.2045C21.546 70.2045 23.3358 68.1847 23.3358 65.142C23.3358 62.0739 21.546 60.054 18.8869 60.054C16.2278 60.054 14.438 62.0739 14.438 65.142C14.438 68.1847 16.2278 70.2045 18.8869 70.2045ZM18.8869 68.8494C16.867 68.8494 15.9466 67.1108 15.9466 65.142C15.9466 63.1733 16.867 61.4091 18.8869 61.4091C20.9068 61.4091 21.8272 63.1733 21.8272 65.142C21.8272 67.1108 20.9068 68.8494 18.8869 68.8494ZM32.9254 56.5C32.446 56.9027 31.7301 56.9027 30.7266 56.8963C30.4006 56.8963 30.0426 56.8963 29.6527 56.9091C26.6612 56.9858 25.1783 59.2614 25.1783 63.6335V64.6818C25.1783 68.3125 26.9425 70.2045 29.576 70.2045C32.2031 70.2045 33.9482 68.2997 33.9482 65.2188C33.9482 62.125 32.1776 60.4886 29.8828 60.4886C28.5341 60.4886 27.2749 61.0511 26.6101 62.2784H26.4822C26.6868 59.7472 27.6328 58.392 29.6783 58.3153C31.4936 58.2386 32.7976 58.2898 33.6925 57.4205L32.9254 56.5ZM29.576 68.8494C27.7862 68.8494 26.6868 67.4176 26.6868 65.2188C26.7188 63.071 27.799 61.8438 29.5504 61.8438C31.3466 61.8438 32.4396 63.071 32.4396 65.2188C32.4396 67.4304 31.353 68.8494 29.576 68.8494ZM39.1449 70.2301C40.858 70.2301 41.7528 69.3097 42.0597 68.6705H42.1364V70H43.6449V63.5312C43.6449 60.4119 41.267 60.054 40.0142 60.054C38.5312 60.054 36.8438 60.5653 36.0767 62.3551L37.5085 62.8665C37.8409 62.1506 38.6271 61.3835 40.0653 61.3835C41.4524 61.3835 42.1364 62.1186 42.1364 63.3778V63.429C42.1364 64.1577 41.3949 64.0938 39.6051 64.3239C37.7834 64.5604 35.7955 64.9631 35.7955 67.2131C35.7955 69.1307 37.2784 70.2301 39.1449 70.2301ZM39.375 68.875C38.1733 68.875 37.304 68.3381 37.304 67.2898C37.304 66.1392 38.3523 65.7812 39.5284 65.6278C40.1676 65.5511 41.8807 65.3722 42.1364 65.0653V66.446C42.1364 67.6733 41.1648 68.875 39.375 68.875ZM46.3983 70H51.0261C53.0204 70 54.2221 68.875 54.2221 67.3665C54.2221 65.826 53.0524 64.995 51.9721 64.8352C53.0779 64.6051 53.8642 63.9851 53.8642 62.7898C53.8642 61.2237 52.5218 60.1818 50.4125 60.1818H46.3983V70ZM47.8301 68.6193V65.6023H51.0261C52.0616 65.6023 52.688 66.2223 52.688 67.2386C52.688 68.0952 52.0616 68.6193 51.0261 68.6193H47.8301ZM47.8301 64.2983V61.5625H50.4125C51.6206 61.5625 52.3556 62.0675 52.3556 62.892C52.3556 63.7678 51.6206 64.2983 50.4125 64.2983H47.8301ZM55.6364 70H56.1477C58.321 70 58.9474 68.3125 59.0881 65.0909L59.2415 61.5881H62.8466V70H64.3551V60.1818H57.8097L57.6307 64.5284C57.5028 67.8267 57.1705 68.5938 55.9943 68.5938H55.6364V70ZM71.2393 70.2045C73.2337 70.2045 74.6911 69.2074 75.1513 67.7244L73.6939 67.3153C73.3104 68.3381 72.4219 68.8494 71.2393 68.8494C69.4688 68.8494 68.2479 67.7053 68.1776 65.6023H75.3047V64.9631C75.3047 61.3068 73.1314 60.054 71.0859 60.054C68.4268 60.054 66.6626 62.1506 66.6626 65.1676C66.6626 68.1847 68.4013 70.2045 71.2393 70.2045ZM68.1776 64.2983C68.2798 62.7706 69.3601 61.4091 71.0859 61.4091C72.7223 61.4091 73.7706 62.6364 73.7706 64.2983H68.1776ZM79.108 60.1818H77.5994V70H79.108V65.8068H83.8125V70H85.321V60.1818H83.8125V64.4006H79.108V60.1818ZM89.5845 63.7358V60.1818H88.076V70H92.1925C94.4936 70 95.7464 68.5938 95.7464 66.8295C95.7464 65.0398 94.4936 63.7358 92.1925 63.7358H89.5845ZM97.3061 70H98.8146V60.1818H97.3061V70ZM89.5845 65.142H92.1925C93.3878 65.142 94.2379 65.8707 94.2379 66.9062C94.2379 67.897 93.3878 68.5938 92.1925 68.5938H89.5845V65.142ZM110.627 70.2045C112.8 70.2045 114.232 68.875 114.488 67.1364H112.979C112.698 68.2102 111.803 68.8494 110.627 68.8494C108.837 68.8494 107.687 67.3665 107.687 65.0909C107.687 62.8665 108.863 61.4091 110.627 61.4091C111.957 61.4091 112.749 62.2273 112.979 63.1222H114.488C114.232 61.2812 112.673 60.054 110.602 60.054C107.942 60.054 106.178 62.1506 106.178 65.142C106.178 68.0824 107.866 70.2045 110.627 70.2045ZM120.682 70.2045C123.341 70.2045 125.131 68.1847 125.131 65.142C125.131 62.0739 123.341 60.054 120.682 60.054C118.023 60.054 116.233 62.0739 116.233 65.142C116.233 68.1847 118.023 70.2045 120.682 70.2045ZM120.682 68.8494C118.662 68.8494 117.741 67.1108 117.741 65.142C117.741 63.1733 118.662 61.4091 120.682 61.4091C122.702 61.4091 123.622 63.1733 123.622 65.142C123.622 67.1108 122.702 68.8494 120.682 68.8494ZM127.433 70H132.061C134.056 70 135.257 68.875 135.257 67.3665C135.257 65.826 134.088 64.995 133.007 64.8352C134.113 64.6051 134.899 63.9851 134.899 62.7898C134.899 61.2237 133.557 60.1818 131.448 60.1818H127.433V70ZM128.865 68.6193V65.6023H132.061C133.097 65.6023 133.723 66.2223 133.723 67.2386C133.723 68.0952 133.097 68.6193 132.061 68.6193H128.865ZM128.865 64.2983V61.5625H131.448C132.656 61.5625 133.391 62.0675 133.391 62.892C133.391 63.7678 132.656 64.2983 131.448 64.2983H128.865ZM137.541 73.6818H139.049V68.4915H139.177C139.51 69.0284 140.149 70.2045 142.041 70.2045C144.495 70.2045 146.208 68.2358 146.208 65.1165C146.208 62.0227 144.495 60.054 142.015 60.054C140.098 60.054 139.51 61.2301 139.177 61.7415H138.998V60.1818H137.541V73.6818ZM139.024 65.0909C139.024 62.892 139.995 61.4091 141.836 61.4091C143.754 61.4091 144.7 63.0199 144.7 65.0909C144.7 67.1875 143.728 68.8494 141.836 68.8494C140.021 68.8494 139.024 67.3153 139.024 65.0909ZM152.626 70.2045C154.62 70.2045 156.078 69.2074 156.538 67.7244L155.081 67.3153C154.697 68.3381 153.809 68.8494 152.626 68.8494C150.855 68.8494 149.635 67.7053 149.564 65.6023H156.691V64.9631C156.691 61.3068 154.518 60.054 152.473 60.054C149.814 60.054 148.049 62.1506 148.049 65.1676C148.049 68.1847 149.788 70.2045 152.626 70.2045ZM149.564 64.2983C149.667 62.7706 150.747 61.4091 152.473 61.4091C154.109 61.4091 155.157 62.6364 155.157 64.2983H149.564ZM164.355 67.9545L160.98 60.1818H158.986V70H160.495V62.3487L163.742 70H164.969L168.216 62.4893V70H169.725V60.1818H167.782L164.355 67.9545ZM176.603 70.2045C178.597 70.2045 180.054 69.2074 180.515 67.7244L179.057 67.3153C178.674 68.3381 177.785 68.8494 176.603 68.8494C174.832 68.8494 173.611 67.7053 173.541 65.6023H180.668V64.9631C180.668 61.3068 178.495 60.054 176.449 60.054C173.79 60.054 172.026 62.1506 172.026 65.1676C172.026 68.1847 173.765 70.2045 176.603 70.2045ZM173.541 64.2983C173.643 62.7706 174.723 61.4091 176.449 61.4091C178.086 61.4091 179.134 62.6364 179.134 64.2983H173.541ZM184.471 60.1818H182.963V70H184.471V65.8068H189.176V70H190.684V60.1818H189.176V64.4006H184.471V60.1818ZM194.948 60.1818H193.439V70H194.948V65.8068H199.652V70H201.161V60.1818H199.652V64.4006H194.948V60.1818ZM205.424 63.7358V60.1818H203.916V70H208.032C210.333 70 211.586 68.5938 211.586 66.8295C211.586 65.0398 210.333 63.7358 208.032 63.7358H205.424ZM213.146 70H214.654V60.1818H213.146V70ZM205.424 65.142H208.032C209.228 65.142 210.078 65.8707 210.078 66.9062C210.078 67.897 209.228 68.5938 208.032 68.5938H205.424V65.142ZM221.532 70.2045C223.527 70.2045 224.984 69.2074 225.444 67.7244L223.987 67.3153C223.603 68.3381 222.715 68.8494 221.532 68.8494C219.762 68.8494 218.541 67.7053 218.471 65.6023H225.598V64.9631C225.598 61.3068 223.424 60.054 221.379 60.054C218.72 60.054 216.956 62.1506 216.956 65.1676C216.956 68.1847 218.694 70.2045 221.532 70.2045ZM218.471 64.2983C218.573 62.7706 219.653 61.4091 221.379 61.4091C223.015 61.4091 224.064 62.6364 224.064 64.2983H218.471ZM236.944 70.2045C239.117 70.2045 240.549 68.875 240.804 67.1364H239.296C239.015 68.2102 238.12 68.8494 236.944 68.8494C235.154 68.8494 234.003 67.3665 234.003 65.0909C234.003 62.8665 235.179 61.4091 236.944 61.4091C238.273 61.4091 239.066 62.2273 239.296 63.1222H240.804C240.549 61.2812 238.989 60.054 236.918 60.054C234.259 60.054 232.495 62.1506 232.495 65.142C232.495 68.0824 234.182 70.2045 236.944 70.2045ZM244.518 67.7756V60.1818H243.01V70H244.774L249.478 62.4062V70H250.987V60.1818H249.248L244.518 67.7756ZM257.738 70.2045C259.912 70.2045 261.344 68.875 261.599 67.1364H260.091C259.809 68.2102 258.915 68.8494 257.738 68.8494C255.949 68.8494 254.798 67.3665 254.798 65.0909C254.798 62.8665 255.974 61.4091 257.738 61.4091C259.068 61.4091 259.861 62.2273 260.091 63.1222H261.599C261.344 61.2812 259.784 60.054 257.713 60.054C255.054 60.054 253.29 62.1506 253.29 65.142C253.29 68.0824 254.977 70.2045 257.738 70.2045ZM263.031 61.5881H266.278V70H267.787V61.5881H271.008V60.1818H263.031V61.5881ZM276.816 70.2045C278.81 70.2045 280.267 69.2074 280.727 67.7244L279.27 67.3153C278.887 68.3381 277.998 68.8494 276.816 68.8494C275.045 68.8494 273.824 67.7053 273.754 65.6023H280.881V64.9631C280.881 61.3068 278.708 60.054 276.662 60.054C274.003 60.054 272.239 62.1506 272.239 65.1676C272.239 68.1847 273.977 70.2045 276.816 70.2045ZM273.754 64.2983C273.856 62.7706 274.936 61.4091 276.662 61.4091C278.298 61.4091 279.347 62.6364 279.347 64.2983H273.754ZM288.545 67.9545L285.17 60.1818H283.176V70H284.684V62.3487L287.931 70H289.159L292.406 62.4893V70H293.914V60.1818H291.971L288.545 67.9545ZM298.184 63.7358V60.1818H296.676V70H300.792C303.093 70 304.346 68.5938 304.346 66.8295C304.346 65.0398 303.093 63.7358 300.792 63.7358H298.184ZM305.906 70H307.414V60.1818H305.906V70ZM298.184 65.142H300.792C301.987 65.142 302.838 65.8707 302.838 66.9062C302.838 67.897 301.987 68.5938 300.792 68.5938H298.184V65.142ZM316.747 67.7756V60.1818H315.238V70H317.002L321.707 62.4062V70H323.215V60.1818H321.477L316.747 67.7756ZM336.41 67.9545L333.035 60.1818H331.041V70H332.549V62.3487L335.797 70H337.024L340.271 62.4893V70H341.779V60.1818H339.836L336.41 67.9545ZM348.657 70.2045C350.652 70.2045 352.109 69.2074 352.569 67.7244L351.112 67.3153C350.728 68.3381 349.84 68.8494 348.657 68.8494C346.887 68.8494 345.666 67.7053 345.596 65.6023H352.723V64.9631C352.723 61.3068 350.549 60.054 348.504 60.054C345.845 60.054 344.081 62.1506 344.081 65.1676C344.081 68.1847 345.819 70.2045 348.657 70.2045ZM345.596 64.2983C345.698 62.7706 346.778 61.4091 348.504 61.4091C350.14 61.4091 351.189 62.6364 351.189 64.2983H345.596ZM355.879 60.1818H354.14L357.259 65.0909L354.14 70H355.879L358.231 66.1903L360.583 70H362.322L359.151 65.0909L362.322 60.1818H360.583L358.231 64.196L355.879 60.1818ZM367.364 70.2301C369.077 70.2301 369.972 69.3097 370.278 68.6705H370.355V70H371.864V63.5312C371.864 60.4119 369.486 60.054 368.233 60.054C366.75 60.054 365.062 60.5653 364.295 62.3551L365.727 62.8665C366.06 62.1506 366.846 61.3835 368.284 61.3835C369.671 61.3835 370.355 62.1186 370.355 63.3778V63.429C370.355 64.1577 369.614 64.0938 367.824 64.3239C366.002 64.5604 364.014 64.9631 364.014 67.2131C364.014 69.1307 365.497 70.2301 367.364 70.2301ZM367.594 68.875C366.392 68.875 365.523 68.3381 365.523 67.2898C365.523 66.1392 366.571 65.7812 367.747 65.6278C368.386 65.5511 370.099 65.3722 370.355 65.0653V66.446C370.355 67.6733 369.384 68.875 367.594 68.875ZM376.126 60.1818H374.617V70H376.126V65.8068H380.83V70H382.339V60.1818H380.83V64.4006H376.126V60.1818ZM386.602 67.7756V60.1818H385.094V70H386.858L391.562 62.4062V70H393.071V60.1818H391.332L386.602 67.7756ZM395.834 70H397.342V65.858H398.697L401.919 70H403.862L399.848 64.9119L403.811 60.1818H401.868L398.339 64.4517H397.342V60.1818H395.834V70ZM407.01 67.7756V60.1818H405.502V70H407.266L411.971 62.4062V70H413.479V60.1818H411.74L407.01 67.7756ZM418.492 68.2102H416.856L416.779 68.9261C416.594 70.6584 416.229 72.3842 416.063 73.196H417.214C417.52 72.3267 418.172 70.358 418.39 68.9006L418.492 68.2102ZM426.349 70H427.858V65.858H429.213L432.435 70H434.378L430.364 64.9119L434.327 60.1818H432.384L428.855 64.4517H427.858V60.1818H426.349V70ZM439.602 70.2045C442.261 70.2045 444.051 68.1847 444.051 65.142C444.051 62.0739 442.261 60.054 439.602 60.054C436.943 60.054 435.153 62.0739 435.153 65.142C435.153 68.1847 436.943 70.2045 439.602 70.2045ZM439.602 68.8494C437.582 68.8494 436.661 67.1108 436.661 65.142C436.661 63.1733 437.582 61.4091 439.602 61.4091C441.622 61.4091 442.542 63.1733 442.542 65.142C442.542 67.1108 441.622 68.8494 439.602 68.8494ZM445.07 61.5881H448.317V70H449.826V61.5881H453.047V60.1818H445.07V61.5881ZM458.727 70.2045C461.386 70.2045 463.176 68.1847 463.176 65.142C463.176 62.0739 461.386 60.054 458.727 60.054C456.068 60.054 454.278 62.0739 454.278 65.142C454.278 68.1847 456.068 70.2045 458.727 70.2045ZM458.727 68.8494C456.707 68.8494 455.786 67.1108 455.786 65.142C455.786 63.1733 456.707 61.4091 458.727 61.4091C460.747 61.4091 461.667 63.1733 461.667 65.142C461.667 67.1108 460.747 68.8494 458.727 68.8494ZM465.478 73.6818H466.987V68.4915H467.115C467.447 69.0284 468.086 70.2045 469.978 70.2045C472.433 70.2045 474.146 68.2358 474.146 65.1165C474.146 62.0227 472.433 60.054 469.953 60.054C468.035 60.054 467.447 61.2301 467.115 61.7415H466.936V60.1818H465.478V73.6818ZM466.961 65.0909C466.961 62.892 467.933 61.4091 469.774 61.4091C471.691 61.4091 472.637 63.0199 472.637 65.0909C472.637 67.1875 471.666 68.8494 469.774 68.8494C467.958 68.8494 466.961 67.3153 466.961 65.0909ZM477.956 63.7358V60.1818H476.447V70H480.564C482.865 70 484.118 68.5938 484.118 66.8295C484.118 65.0398 482.865 63.7358 480.564 63.7358H477.956ZM485.677 70H487.186V60.1818H485.677V70ZM477.956 65.142H480.564C481.759 65.142 482.609 65.8707 482.609 66.9062C482.609 67.897 481.759 68.5938 480.564 68.5938H477.956V65.142ZM494.064 70.2045C496.058 70.2045 497.515 69.2074 497.975 67.7244L496.518 67.3153C496.135 68.3381 495.246 68.8494 494.064 68.8494C492.293 68.8494 491.072 67.7053 491.002 65.6023H498.129V64.9631C498.129 61.3068 495.956 60.054 493.91 60.054C491.251 60.054 489.487 62.1506 489.487 65.1676C489.487 68.1847 491.225 70.2045 494.064 70.2045ZM491.002 64.2983C491.104 62.7706 492.184 61.4091 493.91 61.4091C495.547 61.4091 496.595 62.6364 496.595 64.2983H491.002ZM6.75 95.9545L3.375 88.1818H1.38068V98H2.8892V90.3487L6.13636 98H7.36364L10.6108 90.4893V98H12.1193V88.1818H10.1761L6.75 95.9545ZM16.3892 91.7358V88.1818H14.8807V98H18.9972C21.2983 98 22.5511 96.5938 22.5511 94.8295C22.5511 93.0398 21.2983 91.7358 18.9972 91.7358H16.3892ZM24.1108 98H25.6193V88.1818H24.1108V98ZM16.3892 93.142H18.9972C20.1925 93.142 21.0426 93.8707 21.0426 94.9062C21.0426 95.897 20.1925 96.5938 18.9972 96.5938H16.3892V93.142ZM34.9517 88.1818H33.4432V98H34.9517V93.8068H39.6562V98H41.1648V88.1818H39.6562V92.4006H34.9517V88.1818ZM48.0362 98.2045C50.0305 98.2045 51.4879 97.2074 51.9482 95.7244L50.4908 95.3153C50.1072 96.3381 49.2188 96.8494 48.0362 96.8494C46.2656 96.8494 45.0447 95.7053 44.9744 93.6023H52.1016V92.9631C52.1016 89.3068 49.9283 88.054 47.8828 88.054C45.2237 88.054 43.4595 90.1506 43.4595 93.1676C43.4595 96.1847 45.1982 98.2045 48.0362 98.2045ZM44.9744 92.2983C45.0767 90.7706 46.157 89.4091 47.8828 89.4091C49.5192 89.4091 50.5675 90.6364 50.5675 92.2983H44.9744ZM58.8452 95.4943C58.8963 97.1051 60.4368 98.2045 62.527 98.2045C64.6747 98.2045 66.2344 97.054 66.2344 95.2642C66.2344 94.0369 65.4993 93.0398 64.3935 92.9631V92.8608C65.3267 92.5732 66.0298 91.8956 66.0298 90.7898C66.0298 89.2365 64.7003 88.054 62.6293 88.054C60.5838 88.054 59.1264 89.179 59.0753 90.7642H60.6605C60.7053 89.9524 61.5554 89.3835 62.706 89.3835C63.8501 89.3835 64.4957 89.9652 64.4957 90.8409C64.4957 91.6591 63.9332 92.2727 62.7315 92.2727H61.044V93.6278H62.7315C63.9332 93.6278 64.7003 94.2862 64.7003 95.2642C64.7003 96.3828 63.7095 96.8494 62.5014 96.8494C61.3189 96.8494 60.5263 96.3828 60.456 95.4943H58.8452ZM71.2425 98.2301C72.9556 98.2301 73.8505 97.3097 74.1573 96.6705H74.234V98H75.7425V91.5312C75.7425 88.4119 73.3647 88.054 72.1119 88.054C70.6289 88.054 68.9414 88.5653 68.1744 90.3551L69.6062 90.8665C69.9386 90.1506 70.7248 89.3835 72.163 89.3835C73.5501 89.3835 74.234 90.1186 74.234 91.3778V91.429C74.234 92.1577 73.4925 92.0938 71.7028 92.3239C69.881 92.5604 67.8931 92.9631 67.8931 95.2131C67.8931 97.1307 69.3761 98.2301 71.2425 98.2301ZM71.4727 96.875C70.271 96.875 69.4016 96.3381 69.4016 95.2898C69.4016 94.1392 70.4499 93.7812 71.6261 93.6278C72.2653 93.5511 73.9783 93.3722 74.234 93.0653V94.446C74.234 95.6733 73.2624 96.875 71.4727 96.875ZM85.7828 84.5C85.3034 84.9027 84.5875 84.9027 83.584 84.8963C83.258 84.8963 82.9 84.8963 82.5101 84.9091C79.5186 84.9858 78.0357 87.2614 78.0357 91.6335V92.6818C78.0357 96.3125 79.7999 98.2045 82.4334 98.2045C85.0605 98.2045 86.8056 96.2997 86.8056 93.2188C86.8056 90.125 85.035 88.4886 82.7402 88.4886C81.3915 88.4886 80.1323 89.0511 79.4675 90.2784H79.3397C79.5442 87.7472 80.4902 86.392 82.5357 86.3153C84.351 86.2386 85.655 86.2898 86.5499 85.4205L85.7828 84.5ZM82.4334 96.8494C80.6436 96.8494 79.5442 95.4176 79.5442 93.2188C79.5762 91.071 80.6564 89.8438 82.4078 89.8438C84.204 89.8438 85.2971 91.071 85.2971 93.2188C85.2971 95.4304 84.2104 96.8494 82.4334 96.8494ZM90.6216 91.7358V88.1818H89.1131V98H93.2296C95.5307 98 96.7836 96.5938 96.7836 94.8295C96.7836 93.0398 95.5307 91.7358 93.2296 91.7358H90.6216ZM98.3432 98H99.8517V88.1818H98.3432V98ZM90.6216 93.142H93.2296C94.4249 93.142 95.275 93.8707 95.275 94.9062C95.275 95.897 94.4249 96.5938 93.2296 96.5938H90.6216V93.142ZM102.613 98H107.241C109.235 98 110.437 96.875 110.437 95.3665C110.437 93.826 109.267 92.995 108.187 92.8352C109.293 92.6051 110.079 91.9851 110.079 90.7898C110.079 89.2237 108.737 88.1818 106.627 88.1818H102.613V98ZM104.045 96.6193V93.6023H107.241C108.276 93.6023 108.903 94.2223 108.903 95.2386C108.903 96.0952 108.276 96.6193 107.241 96.6193H104.045ZM104.045 92.2983V89.5625H106.627C107.835 89.5625 108.57 90.0675 108.57 90.892C108.57 91.7678 107.835 92.2983 106.627 92.2983H104.045ZM115.61 98.2301C117.323 98.2301 118.218 97.3097 118.525 96.6705H118.601V98H120.11V91.5312C120.11 88.4119 117.732 88.054 116.479 88.054C114.996 88.054 113.309 88.5653 112.542 90.3551L113.973 90.8665C114.306 90.1506 115.092 89.3835 116.53 89.3835C117.917 89.3835 118.601 90.1186 118.601 91.3778V91.429C118.601 92.1577 117.86 92.0938 116.07 92.3239C114.248 92.5604 112.26 92.9631 112.26 95.2131C112.26 97.1307 113.743 98.2301 115.61 98.2301ZM115.84 96.875C114.638 96.875 113.769 96.3381 113.769 95.2898C113.769 94.1392 114.817 93.7812 115.993 93.6278C116.632 93.5511 118.346 93.3722 118.601 93.0653V94.446C118.601 95.6733 117.63 96.875 115.84 96.875ZM126.98 98.2045C128.974 98.2045 130.431 97.2074 130.892 95.7244L129.434 95.3153C129.051 96.3381 128.162 96.8494 126.98 96.8494C125.209 96.8494 123.988 95.7053 123.918 93.6023H131.045V92.9631C131.045 89.3068 128.872 88.054 126.826 88.054C124.167 88.054 122.403 90.1506 122.403 93.1676C122.403 96.1847 124.142 98.2045 126.98 98.2045ZM123.918 92.2983C124.02 90.7706 125.1 89.4091 126.826 89.4091C128.463 89.4091 129.511 90.6364 129.511 92.2983H123.918ZM138.709 95.9545L135.334 88.1818H133.34V98H134.848V90.3487L138.095 98H139.323L142.57 90.4893V98H144.078V88.1818H142.135L138.709 95.9545ZM155.891 98.2045C158.55 98.2045 160.34 96.1847 160.34 93.142C160.34 90.0739 158.55 88.054 155.891 88.054C153.232 88.054 151.442 90.0739 151.442 93.142C151.442 96.1847 153.232 98.2045 155.891 98.2045ZM155.891 96.8494C153.871 96.8494 152.95 95.1108 152.95 93.142C152.95 91.1733 153.871 89.4091 155.891 89.4091C157.911 89.4091 158.831 91.1733 158.831 93.142C158.831 95.1108 157.911 96.8494 155.891 96.8494ZM169.929 84.5C169.45 84.9027 168.734 84.9027 167.73 84.8963C167.404 84.8963 167.047 84.8963 166.657 84.9091C163.665 84.9858 162.182 87.2614 162.182 91.6335V92.6818C162.182 96.3125 163.946 98.2045 166.58 98.2045C169.207 98.2045 170.952 96.2997 170.952 93.2188C170.952 90.125 169.181 88.4886 166.887 88.4886C165.538 88.4886 164.279 89.0511 163.614 90.2784H163.486C163.691 87.7472 164.637 86.392 166.682 86.3153C168.498 86.2386 169.801 86.2898 170.696 85.4205L169.929 84.5ZM166.58 96.8494C164.79 96.8494 163.691 95.4176 163.691 93.2188C163.723 91.071 164.803 89.8438 166.554 89.8438C168.35 89.8438 169.444 91.071 169.444 93.2188C169.444 95.4304 168.357 96.8494 166.58 96.8494ZM174.768 88.1818H173.26V98H174.768V93.8068H179.473V98H180.981V88.1818H179.473V92.4006H174.768V88.1818ZM187.725 98.2045C190.384 98.2045 192.174 96.1847 192.174 93.142C192.174 90.0739 190.384 88.054 187.725 88.054C185.066 88.054 183.276 90.0739 183.276 93.142C183.276 96.1847 185.066 98.2045 187.725 98.2045ZM187.725 96.8494C185.705 96.8494 184.784 95.1108 184.784 93.142C184.784 91.1733 185.705 89.4091 187.725 89.4091C189.745 89.4091 190.665 91.1733 190.665 93.142C190.665 95.1108 189.745 96.8494 187.725 96.8494ZM194.476 98H199.104C201.099 98 202.3 96.875 202.3 95.3665C202.3 93.826 201.131 92.995 200.05 92.8352C201.156 92.6051 201.942 91.9851 201.942 90.7898C201.942 89.2237 200.6 88.1818 198.491 88.1818H194.476V98ZM195.908 96.6193V93.6023H199.104C200.14 93.6023 200.766 94.2223 200.766 95.2386C200.766 96.0952 200.14 96.6193 199.104 96.6193H195.908ZM195.908 92.2983V89.5625H198.491C199.699 89.5625 200.434 90.0675 200.434 90.892C200.434 91.7678 199.699 92.2983 198.491 92.2983H195.908ZM203.714 98H204.226C206.399 98 207.026 96.3125 207.166 93.0909L207.32 89.5881H210.925V98H212.433V88.1818H205.888L205.709 92.5284C205.581 95.8267 205.249 96.5938 204.072 96.5938H203.714V98ZM221.107 98H222.539V88.1818H218.499C216.384 88.1818 215.099 89.2876 215.099 91.0966C215.099 92.4453 215.776 93.4041 216.959 93.8068L214.562 98H216.198L218.474 94.0114H221.107V98ZM221.107 92.6051H218.32C217.253 92.6051 216.607 92.0362 216.607 91.0966C216.607 90.1442 217.323 89.5625 218.499 89.5625H221.107V92.6051ZM223.972 89.5881H227.22V98H228.728V89.5881H231.95V88.1818H223.972V89.5881ZM235.659 91.7358V88.1818H234.15V98H238.267C240.568 98 241.821 96.5938 241.821 94.8295C241.821 93.0398 240.568 91.7358 238.267 91.7358H235.659ZM235.659 93.142H238.267C239.462 93.142 240.312 93.8707 240.312 94.9062C240.312 95.897 239.462 96.5938 238.267 96.5938H235.659V93.142ZM250.688 95.7756V88.1818H249.18V98H250.944L255.648 90.4062V98H257.157V88.1818H255.418L250.688 95.7756ZM268.971 98.2045C271.144 98.2045 272.576 96.875 272.832 95.1364H271.323C271.042 96.2102 270.147 96.8494 268.971 96.8494C267.181 96.8494 266.031 95.3665 266.031 93.0909C266.031 90.8665 267.207 89.4091 268.971 89.4091C270.3 89.4091 271.093 90.2273 271.323 91.1222H272.832C272.576 89.2812 271.016 88.054 268.945 88.054C266.286 88.054 264.522 90.1506 264.522 93.142C264.522 96.0824 266.21 98.2045 268.971 98.2045ZM279.026 98.2045C281.685 98.2045 283.474 96.1847 283.474 93.142C283.474 90.0739 281.685 88.054 279.026 88.054C276.366 88.054 274.577 90.0739 274.577 93.142C274.577 96.1847 276.366 98.2045 279.026 98.2045ZM279.026 96.8494C277.006 96.8494 276.085 95.1108 276.085 93.142C276.085 91.1733 277.006 89.4091 279.026 89.4091C281.045 89.4091 281.966 91.1733 281.966 93.142C281.966 95.1108 281.045 96.8494 279.026 96.8494ZM285.777 98H290.405C292.399 98 293.601 96.875 293.601 95.3665C293.601 93.826 292.431 92.995 291.351 92.8352C292.457 92.6051 293.243 91.9851 293.243 90.7898C293.243 89.2237 291.901 88.1818 289.791 88.1818H285.777V98ZM287.209 96.6193V93.6023H290.405C291.441 93.6023 292.067 94.2223 292.067 95.2386C292.067 96.0952 291.441 96.6193 290.405 96.6193H287.209ZM287.209 92.2983V89.5625H289.791C290.999 89.5625 291.735 90.0675 291.735 90.892C291.735 91.7678 290.999 92.2983 289.791 92.2983H287.209ZM300.001 98.2045C301.995 98.2045 303.453 97.2074 303.913 95.7244L302.456 95.3153C302.072 96.3381 301.184 96.8494 300.001 96.8494C298.23 96.8494 297.01 95.7053 296.939 93.6023H304.066V92.9631C304.066 89.3068 301.893 88.054 299.848 88.054C297.189 88.054 295.424 90.1506 295.424 93.1676C295.424 96.1847 297.163 98.2045 300.001 98.2045ZM296.939 92.2983C297.042 90.7706 298.122 89.4091 299.848 89.4091C301.484 89.4091 302.532 90.6364 302.532 92.2983H296.939ZM306.361 101.682H307.87V96.4915H307.998C308.33 97.0284 308.969 98.2045 310.861 98.2045C313.316 98.2045 315.029 96.2358 315.029 93.1165C315.029 90.0227 313.316 88.054 310.836 88.054C308.918 88.054 308.33 89.2301 307.998 89.7415H307.819V88.1818H306.361V101.682ZM307.844 93.0909C307.844 90.892 308.816 89.4091 310.657 89.4091C312.574 89.4091 313.52 91.0199 313.52 93.0909C313.52 95.1875 312.549 96.8494 310.657 96.8494C308.841 96.8494 307.844 95.3153 307.844 93.0909ZM317.33 88.1818V98H329.27V88.1818H327.762V96.5938H324.054V88.1818H322.546V96.5938H318.838V88.1818H317.33ZM336.142 98.2045C338.136 98.2045 339.593 97.2074 340.054 95.7244L338.596 95.3153C338.213 96.3381 337.324 96.8494 336.142 96.8494C334.371 96.8494 333.15 95.7053 333.08 93.6023H340.207V92.9631C340.207 89.3068 338.034 88.054 335.988 88.054C333.329 88.054 331.565 90.1506 331.565 93.1676C331.565 96.1847 333.304 98.2045 336.142 98.2045ZM333.08 92.2983C333.182 90.7706 334.262 89.4091 335.988 89.4091C337.625 89.4091 338.673 90.6364 338.673 92.2983H333.08ZM344.01 88.1818H342.502V98H344.01V93.8068H348.715V98H350.223V88.1818H348.715V92.4006H344.01V88.1818ZM356.967 98.2045C359.14 98.2045 360.572 96.875 360.828 95.1364H359.319C359.038 96.2102 358.143 96.8494 356.967 96.8494C355.177 96.8494 354.027 95.3665 354.027 93.0909C354.027 90.8665 355.203 89.4091 356.967 89.4091C358.297 89.4091 359.089 90.2273 359.319 91.1222H360.828C360.572 89.2812 359.012 88.054 356.941 88.054C354.282 88.054 352.518 90.1506 352.518 93.142C352.518 96.0824 354.206 98.2045 356.967 98.2045ZM362.26 89.5881H365.507V98H367.015V89.5881H370.237V88.1818H362.26V89.5881ZM372.437 98H377.065C379.059 98 380.261 96.875 380.261 95.3665C380.261 93.826 379.091 92.995 378.011 92.8352C379.117 92.6051 379.903 91.9851 379.903 90.7898C379.903 89.2237 378.561 88.1818 376.452 88.1818H372.437V98ZM373.869 96.6193V93.6023H377.065C378.101 93.6023 378.727 94.2223 378.727 95.2386C378.727 96.0952 378.101 96.6193 377.065 96.6193H373.869ZM373.869 92.2983V89.5625H376.452C377.66 89.5625 378.395 90.0675 378.395 90.892C378.395 91.7678 377.66 92.2983 376.452 92.2983H373.869ZM386.533 98.2045C389.192 98.2045 390.982 96.1847 390.982 93.142C390.982 90.0739 389.192 88.054 386.533 88.054C383.874 88.054 382.085 90.0739 382.085 93.142C382.085 96.1847 383.874 98.2045 386.533 98.2045ZM386.533 96.8494C384.513 96.8494 383.593 95.1108 383.593 93.142C383.593 91.1733 384.513 89.4091 386.533 89.4091C388.553 89.4091 389.474 91.1733 389.474 93.142C389.474 95.1108 388.553 96.8494 386.533 96.8494ZM393.285 98H397.913C399.907 98 401.109 96.875 401.109 95.3665C401.109 93.826 399.939 92.995 398.859 92.8352C399.965 92.6051 400.751 91.9851 400.751 90.7898C400.751 89.2237 399.409 88.1818 397.299 88.1818H393.285V98ZM394.717 96.6193V93.6023H397.913C398.948 93.6023 399.575 94.2223 399.575 95.2386C399.575 96.0952 398.948 96.6193 397.913 96.6193H394.717ZM394.717 92.2983V89.5625H397.299C398.507 89.5625 399.242 90.0675 399.242 90.892C399.242 91.7678 398.507 92.2983 397.299 92.2983H394.717ZM406.282 98.2301C407.995 98.2301 408.89 97.3097 409.196 96.6705H409.273V98H410.782V91.5312C410.782 88.4119 408.404 88.054 407.151 88.054C405.668 88.054 403.98 88.5653 403.213 90.3551L404.645 90.8665C404.978 90.1506 405.764 89.3835 407.202 89.3835C408.589 89.3835 409.273 90.1186 409.273 91.3778V91.429C409.273 92.1577 408.532 92.0938 406.742 92.3239C404.92 92.5604 402.932 92.9631 402.932 95.2131C402.932 97.1307 404.415 98.2301 406.282 98.2301ZM406.512 96.875C405.31 96.875 404.441 96.3381 404.441 95.2898C404.441 94.1392 405.489 93.7812 406.665 93.6278C407.304 93.5511 409.017 93.3722 409.273 93.0653V94.446C409.273 95.6733 408.301 96.875 406.512 96.875ZM412.199 89.5881H415.446V98H416.955V89.5881H420.176V88.1818H412.199V89.5881ZM423.885 91.7358V88.1818H422.377V98H426.493C428.794 98 430.047 96.5938 430.047 94.8295C430.047 93.0398 428.794 91.7358 426.493 91.7358H423.885ZM423.885 93.142H426.493C427.689 93.142 428.539 93.8707 428.539 94.9062C428.539 95.897 427.689 96.5938 426.493 96.5938H423.885V93.142ZM433.443 98.1023C434.076 98.1023 434.594 97.5845 434.594 96.9517C434.594 96.3189 434.076 95.8011 433.443 95.8011C432.81 95.8011 432.292 96.3189 432.292 96.9517C432.292 97.5845 432.81 98.1023 433.443 98.1023ZM12.6307 147.455C12.6307 143.312 10.2017 140.73 6.85227 140.73C3.50284 140.73 1.07386 143.312 1.07386 147.455C1.07386 151.597 3.50284 154.179 6.85227 154.179C10.2017 154.179 12.6307 151.597 12.6307 147.455ZM11.0966 147.455C11.0966 150.855 9.23011 152.696 6.85227 152.696C4.47443 152.696 2.60795 150.855 2.60795 147.455C2.60795 144.054 4.47443 142.213 6.85227 142.213C9.23011 142.213 11.0966 144.054 11.0966 147.455ZM22.3786 140.5C21.8991 140.903 21.1832 140.903 20.1797 140.896C19.8537 140.896 19.4957 140.896 19.1058 140.909C16.1143 140.986 14.6314 143.261 14.6314 147.634V148.682C14.6314 152.312 16.3956 154.205 19.0291 154.205C21.6562 154.205 23.4013 152.3 23.4013 149.219C23.4013 146.125 21.6307 144.489 19.3359 144.489C17.9872 144.489 16.728 145.051 16.0632 146.278H15.9354C16.1399 143.747 17.0859 142.392 19.1314 142.315C20.9467 142.239 22.2507 142.29 23.1456 141.42L22.3786 140.5ZM19.0291 152.849C17.2393 152.849 16.1399 151.418 16.1399 149.219C16.1719 147.071 17.2521 145.844 19.0036 145.844C20.7997 145.844 21.8928 147.071 21.8928 149.219C21.8928 151.43 20.8061 152.849 19.0291 152.849ZM25.0952 151.494C25.1463 153.105 26.6868 154.205 28.777 154.205C30.9247 154.205 32.4844 153.054 32.4844 151.264C32.4844 150.037 31.7493 149.04 30.6435 148.963V148.861C31.5767 148.573 32.2798 147.896 32.2798 146.79C32.2798 145.237 30.9503 144.054 28.8793 144.054C26.8338 144.054 25.3764 145.179 25.3253 146.764H26.9105C26.9553 145.952 27.8054 145.384 28.956 145.384C30.1001 145.384 30.7457 145.965 30.7457 146.841C30.7457 147.659 30.1832 148.273 28.9815 148.273H27.294V149.628H28.9815C30.1832 149.628 30.9503 150.286 30.9503 151.264C30.9503 152.383 29.9595 152.849 28.7514 152.849C27.5689 152.849 26.7763 152.383 26.706 151.494H25.0952ZM38.592 154.205C41.2511 154.205 43.0408 152.185 43.0408 149.142C43.0408 146.074 41.2511 144.054 38.592 144.054C35.9329 144.054 34.1431 146.074 34.1431 149.142C34.1431 152.185 35.9329 154.205 38.592 154.205ZM38.592 152.849C36.5721 152.849 35.6516 151.111 35.6516 149.142C35.6516 147.173 36.5721 145.409 38.592 145.409C40.6119 145.409 41.5323 147.173 41.5323 149.142C41.5323 151.111 40.6119 152.849 38.592 152.849ZM45.3436 157.682H46.8521V152.491H46.9799C47.3123 153.028 47.9515 154.205 49.8436 154.205C52.2981 154.205 54.0112 152.236 54.0112 149.116C54.0112 146.023 52.2981 144.054 49.818 144.054C47.9004 144.054 47.3123 145.23 46.9799 145.741H46.801V144.182H45.3436V157.682ZM46.8265 149.091C46.8265 146.892 47.7981 145.409 49.639 145.409C51.5566 145.409 52.5027 147.02 52.5027 149.091C52.5027 151.188 51.5311 152.849 49.639 152.849C47.8237 152.849 46.8265 151.315 46.8265 149.091ZM62.8833 144.182H61.3748V154H62.8833V149.807H67.5879V154H69.0964V144.182H67.5879V148.401H62.8833V144.182ZM75.9679 154.205C77.9622 154.205 79.4196 153.207 79.8798 151.724L78.4224 151.315C78.0389 152.338 77.1504 152.849 75.9679 152.849C74.1973 152.849 72.9764 151.705 72.9061 149.602H80.0332V148.963C80.0332 145.307 77.8599 144.054 75.8145 144.054C73.1554 144.054 71.3912 146.151 71.3912 149.168C71.3912 152.185 73.1298 154.205 75.9679 154.205ZM72.9061 148.298C73.0083 146.771 74.0886 145.409 75.8145 145.409C77.4508 145.409 78.4991 146.636 78.4991 148.298H72.9061ZM82.3279 154H83.8365V149.858H85.1916L88.4132 154H90.3564L86.3422 148.912L90.3052 144.182H88.362L84.8336 148.452H83.8365V144.182H82.3279V154ZM95.5803 154.205C98.2393 154.205 100.029 152.185 100.029 149.142C100.029 146.074 98.2393 144.054 95.5803 144.054C92.9212 144.054 91.1314 146.074 91.1314 149.142C91.1314 152.185 92.9212 154.205 95.5803 154.205ZM95.5803 152.849C93.5604 152.849 92.6399 151.111 92.6399 149.142C92.6399 147.173 93.5604 145.409 95.5803 145.409C97.6001 145.409 98.5206 147.173 98.5206 149.142C98.5206 151.111 97.6001 152.849 95.5803 152.849ZM101.049 145.588H104.296V154H105.804V145.588H109.026V144.182H101.049V145.588ZM114.705 154.205C117.364 154.205 119.154 152.185 119.154 149.142C119.154 146.074 117.364 144.054 114.705 144.054C112.046 144.054 110.256 146.074 110.256 149.142C110.256 152.185 112.046 154.205 114.705 154.205ZM114.705 152.849C112.685 152.849 111.765 151.111 111.765 149.142C111.765 147.173 112.685 145.409 114.705 145.409C116.725 145.409 117.646 147.173 117.646 149.142C117.646 151.111 116.725 152.849 114.705 152.849ZM121.457 157.682H122.965V152.491H123.093C123.426 153.028 124.065 154.205 125.957 154.205C128.411 154.205 130.124 152.236 130.124 149.116C130.124 146.023 128.411 144.054 125.931 144.054C124.014 144.054 123.426 145.23 123.093 145.741H122.914V144.182H121.457V157.682ZM122.94 149.091C122.94 146.892 123.911 145.409 125.752 145.409C127.67 145.409 128.616 147.02 128.616 149.091C128.616 151.188 127.644 152.849 125.752 152.849C123.937 152.849 122.94 151.315 122.94 149.091ZM133.934 147.736V144.182H132.426V154H136.542C138.843 154 140.096 152.594 140.096 150.83C140.096 149.04 138.843 147.736 136.542 147.736H133.934ZM141.656 154H143.164V144.182H141.656V154ZM133.934 149.142H136.542C137.737 149.142 138.588 149.871 138.588 150.906C138.588 151.897 137.737 152.594 136.542 152.594H133.934V149.142ZM147.051 144.182H145.312L148.431 149.091L145.312 154H147.051L149.403 150.19L151.755 154H153.494L150.323 149.091L153.494 144.182H151.755L149.403 148.196L147.051 144.182ZM164.697 154.205C166.871 154.205 168.303 152.875 168.558 151.136H167.05C166.768 152.21 165.874 152.849 164.697 152.849C162.908 152.849 161.757 151.366 161.757 149.091C161.757 146.866 162.933 145.409 164.697 145.409C166.027 145.409 166.82 146.227 167.05 147.122H168.558C168.303 145.281 166.743 144.054 164.672 144.054C162.013 144.054 160.249 146.151 160.249 149.142C160.249 152.082 161.936 154.205 164.697 154.205ZM172.272 151.776V144.182H170.763V154H172.528L177.232 146.406V154H178.741V144.182H177.002L172.272 151.776ZM185.492 154.205C187.666 154.205 189.097 152.875 189.353 151.136H187.845C187.563 152.21 186.669 152.849 185.492 152.849C183.703 152.849 182.552 151.366 182.552 149.091C182.552 146.866 183.728 145.409 185.492 145.409C186.822 145.409 187.615 146.227 187.845 147.122H189.353C189.097 145.281 187.538 144.054 185.467 144.054C182.808 144.054 181.044 146.151 181.044 149.142C181.044 152.082 182.731 154.205 185.492 154.205ZM190.785 145.588H194.032V154H195.541V145.588H198.762V144.182H190.785V145.588ZM204.569 154.205C206.564 154.205 208.021 153.207 208.481 151.724L207.024 151.315C206.64 152.338 205.752 152.849 204.569 152.849C202.799 152.849 201.578 151.705 201.508 149.602H208.635V148.963C208.635 145.307 206.461 144.054 204.416 144.054C201.757 144.054 199.993 146.151 199.993 149.168C199.993 152.185 201.731 154.205 204.569 154.205ZM201.508 148.298C201.61 146.771 202.69 145.409 204.416 145.409C206.052 145.409 207.101 146.636 207.101 148.298H201.508ZM216.299 151.955L212.924 144.182H210.93V154H212.438V146.349L215.685 154H216.912L220.16 146.489V154H221.668V144.182H219.725L216.299 151.955ZM229.492 154H234.12C236.114 154 237.316 152.875 237.316 151.366C237.316 149.826 236.146 148.995 235.066 148.835C236.172 148.605 236.958 147.985 236.958 146.79C236.958 145.224 235.616 144.182 233.506 144.182H229.492V154ZM230.924 152.619V149.602H234.12C235.155 149.602 235.782 150.222 235.782 151.239C235.782 152.095 235.155 152.619 234.12 152.619H230.924ZM230.924 148.298V145.562H233.506C234.714 145.562 235.449 146.067 235.449 146.892C235.449 147.768 234.714 148.298 233.506 148.298H230.924ZM241.108 147.736V144.182H239.599V154H243.716C246.017 154 247.27 152.594 247.27 150.83C247.27 149.04 246.017 147.736 243.716 147.736H241.108ZM248.83 154H250.338V144.182H248.83V154ZM241.108 149.142H243.716C244.911 149.142 245.761 149.871 245.761 150.906C245.761 151.897 244.911 152.594 243.716 152.594H241.108V149.142ZM262.151 154.205C264.324 154.205 265.756 152.875 266.011 151.136H264.503C264.222 152.21 263.327 152.849 262.151 152.849C260.361 152.849 259.21 151.366 259.21 149.091C259.21 146.866 260.386 145.409 262.151 145.409C263.48 145.409 264.273 146.227 264.503 147.122H266.011C265.756 145.281 264.196 144.054 262.125 144.054C259.466 144.054 257.702 146.151 257.702 149.142C257.702 152.082 259.389 154.205 262.151 154.205ZM273.586 151.955L270.211 144.182H268.217V154H269.725V146.349L272.972 154H274.2L277.447 146.489V154H278.955V144.182H277.012L273.586 151.955ZM285.705 154.205C288.364 154.205 290.154 152.185 290.154 149.142C290.154 146.074 288.364 144.054 285.705 144.054C283.046 144.054 281.256 146.074 281.256 149.142C281.256 152.185 283.046 154.205 285.705 154.205ZM285.705 152.849C283.685 152.849 282.765 151.111 282.765 149.142C282.765 147.173 283.685 145.409 285.705 145.409C287.725 145.409 288.646 147.173 288.646 149.142C288.646 151.111 287.725 152.849 285.705 152.849ZM291.439 154H293.254L296.604 149.781H297.371V154H298.879V149.781H299.646L302.97 154H304.786L300.822 149.014L304.734 144.182H302.945L299.672 148.375H298.879V144.182H297.371V148.375H296.553L293.28 144.182H291.49L295.428 149.014L291.439 154ZM310.653 154.205C312.648 154.205 314.105 153.207 314.565 151.724L313.108 151.315C312.724 152.338 311.836 152.849 310.653 152.849C308.883 152.849 307.662 151.705 307.592 149.602H314.719V148.963C314.719 145.307 312.545 144.054 310.5 144.054C307.841 144.054 306.077 146.151 306.077 149.168C306.077 152.185 307.815 154.205 310.653 154.205ZM307.592 148.298C307.694 146.771 308.774 145.409 310.5 145.409C312.136 145.409 313.185 146.636 313.185 148.298H307.592ZM316.099 145.588H319.347V154H320.855V145.588H324.077V144.182H316.099V145.588ZM329.884 154.205C331.878 154.205 333.336 153.207 333.796 151.724L332.338 151.315C331.955 152.338 331.066 152.849 329.884 152.849C328.113 152.849 326.892 151.705 326.822 149.602H333.949V148.963C333.949 145.307 331.776 144.054 329.73 144.054C327.071 144.054 325.307 146.151 325.307 149.168C325.307 152.185 327.046 154.205 329.884 154.205ZM326.822 148.298C326.924 146.771 328.005 145.409 329.73 145.409C331.367 145.409 332.415 146.636 332.415 148.298H326.822ZM342.278 157.656C343.64 157.656 344.605 156.934 345.167 155.432L349.348 144.207L347.699 144.182L344.988 152.006H344.886L342.176 144.182H340.539L344.17 154.051L343.889 154.818C343.352 156.288 342.662 156.429 341.562 156.148L341.179 157.477C341.332 157.554 341.767 157.656 342.278 157.656ZM351.344 154H355.971C357.966 154 359.167 152.875 359.167 151.366C359.167 149.826 357.998 148.995 356.917 148.835C358.023 148.605 358.809 147.985 358.809 146.79C358.809 145.224 357.467 144.182 355.358 144.182H351.344V154ZM352.775 152.619V149.602H355.971C357.007 149.602 357.633 150.222 357.633 151.239C357.633 152.095 357.007 152.619 355.971 152.619H352.775ZM352.775 148.298V145.562H355.358C356.566 145.562 357.301 146.067 357.301 146.892C357.301 147.768 356.566 148.298 355.358 148.298H352.775ZM362.96 151.776V144.182H361.451V154H363.215L367.92 146.406V154H369.428V144.182H367.69L362.96 151.776ZM371.143 156.812H372.651V154H379.913V156.812H381.421V152.594H379.913V144.182H373.674L373.342 148.068C373.105 150.817 372.754 151.763 371.961 152.594H371.143V156.812ZM373.674 152.594C374.365 151.686 374.614 150.12 374.825 148.068L375.08 145.588H378.404V152.594H373.674ZM387.54 154.205C389.534 154.205 390.992 153.207 391.452 151.724L389.995 151.315C389.611 152.338 388.723 152.849 387.54 152.849C385.77 152.849 384.549 151.705 384.478 149.602H391.605V148.963C391.605 145.307 389.432 144.054 387.387 144.054C384.728 144.054 382.963 146.151 382.963 149.168C382.963 152.185 384.702 154.205 387.54 154.205ZM384.478 148.298C384.581 146.771 385.661 145.409 387.387 145.409C389.023 145.409 390.071 146.636 390.071 148.298H384.478ZM392.986 145.588H396.233V154H397.742V145.588H400.963V144.182H392.986V145.588ZM404.672 147.736V144.182H403.164V154H407.28C409.581 154 410.834 152.594 410.834 150.83C410.834 149.04 409.581 147.736 407.28 147.736H404.672ZM404.672 149.142H407.28C408.476 149.142 409.326 149.871 409.326 150.906C409.326 151.897 408.476 152.594 407.28 152.594H404.672V149.142ZM418.193 154H422.821C424.815 154 426.017 152.875 426.017 151.366C426.017 149.826 424.847 148.995 423.767 148.835C424.873 148.605 425.659 147.985 425.659 146.79C425.659 145.224 424.317 144.182 422.207 144.182H418.193V154ZM419.625 152.619V149.602H422.821C423.857 149.602 424.483 150.222 424.483 151.239C424.483 152.095 423.857 152.619 422.821 152.619H419.625ZM419.625 148.298V145.562H422.207C423.415 145.562 424.151 146.067 424.151 146.892C424.151 147.768 423.415 148.298 422.207 148.298H419.625ZM433.363 154H437.991C439.985 154 441.187 152.875 441.187 151.366C441.187 149.826 440.017 148.995 438.937 148.835C440.043 148.605 440.829 147.985 440.829 146.79C440.829 145.224 439.487 144.182 437.377 144.182H433.363V154ZM434.795 152.619V149.602H437.991C439.026 149.602 439.653 150.222 439.653 151.239C439.653 152.095 439.026 152.619 437.991 152.619H434.795ZM434.795 148.298V145.562H437.377C438.585 145.562 439.32 146.067 439.32 146.892C439.32 147.768 438.585 148.298 437.377 148.298H434.795ZM444.979 151.776V144.182H443.471V154H445.235L449.939 146.406V154H451.448V144.182H449.709L444.979 151.776ZM453.162 156.812H454.671V154H461.932V156.812H463.441V152.594H461.932V144.182H455.694L455.361 148.068C455.125 150.817 454.773 151.763 453.981 152.594H453.162V156.812ZM455.694 152.594C456.384 151.686 456.633 150.12 456.844 148.068L457.1 145.588H460.424V152.594H455.694ZM469.56 154.205C471.554 154.205 473.011 153.207 473.472 151.724L472.014 151.315C471.631 152.338 470.742 152.849 469.56 152.849C467.789 152.849 466.568 151.705 466.498 149.602H473.625V148.963C473.625 145.307 471.452 144.054 469.406 144.054C466.747 144.054 464.983 146.151 464.983 149.168C464.983 152.185 466.722 154.205 469.56 154.205ZM466.498 148.298C466.6 146.771 467.68 145.409 469.406 145.409C471.043 145.409 472.091 146.636 472.091 148.298H466.498ZM479.908 154.205C482.567 154.205 484.357 152.185 484.357 149.142C484.357 146.074 482.567 144.054 479.908 144.054C477.249 144.054 475.46 146.074 475.46 149.142C475.46 152.185 477.249 154.205 479.908 154.205ZM479.908 152.849C477.888 152.849 476.968 151.111 476.968 149.142C476.968 147.173 477.888 145.409 479.908 145.409C481.928 145.409 482.849 147.173 482.849 149.142C482.849 151.111 481.928 152.849 479.908 152.849ZM487.759 154.102C488.392 154.102 488.91 153.585 488.91 152.952C488.91 152.319 488.392 151.801 487.759 151.801C487.127 151.801 486.609 152.319 486.609 152.952C486.609 153.585 487.127 154.102 487.759 154.102Z" fill="#2B2B2B"/>
</svg>
