<svg width="493" height="41" viewBox="0 0 493 41" fill="none" xmlns="http://www.w3.org/2000/svg">
<path d="M0.15625 32H13.1094C20.4375 32 24.0313 28.2656 24.0313 23.2812C24.0313 18.4375 20.5938 15.5937 17.1875 15.4219V15.1094C20.3125 14.375 22.7812 12.1875 22.7812 8.29688C22.7812 3.53125 19.3438 -9.53674e-07 12.4063 -9.53674e-07H0.15625V32ZM5.95313 27.1562V17.7813H12.3438C15.9219 17.7813 18.1406 19.9688 18.1406 22.8281C18.1406 25.375 16.3906 27.1562 12.1875 27.1562H5.95313ZM5.95313 13.6094V4.78125H11.8125C15.2188 4.78125 16.9844 6.57813 16.9844 9.04687C16.9844 11.8594 14.7031 13.6094 11.6875 13.6094H5.95313ZM39.293 32.4688C46.3242 32.4688 50.793 27.5156 50.793 20.0937C50.793 12.6562 46.3242 7.6875 39.293 7.6875C32.2617 7.6875 27.793 12.6562 27.793 20.0937C27.793 27.5156 32.2617 32.4688 39.293 32.4688ZM39.3242 27.9375C35.4336 27.9375 33.5273 24.4687 33.5273 20.0781C33.5273 15.6875 35.4336 12.1719 39.3242 12.1719C43.1523 12.1719 45.0586 15.6875 45.0586 20.0781C45.0586 24.4687 43.1523 27.9375 39.3242 27.9375ZM54.2656 25.4219C54.4062 29.875 58.4844 32.4688 64.0312 32.4688C69.7188 32.4688 73.8281 29.7656 73.8281 25.3438C73.8281 22.1094 71.625 19.8906 68.7813 19.7188V19.4687C71.5313 18.7344 73.2813 17.0156 73.2813 14.4219C73.2813 10.375 69.7813 7.6875 64.1562 7.6875C58.9063 7.6875 54.9531 10.4062 54.875 14.5937H60.4531C60.5156 12.9844 62.1719 11.8594 64.4219 11.8594C66.6719 11.8594 68.0313 13.0625 68.0313 14.8437C68.0313 16.4844 66.7812 17.7031 64.4375 17.7031H60.7656V21.7187H64.4375C66.7969 21.7187 68.3438 23.0469 68.3438 24.9844C68.3438 27.1719 66.4219 28.2344 64 28.2344C61.6094 28.2344 59.9844 27.2031 59.875 25.4219H54.2656ZM92.0938 25.4219L85.1563 8H78.2813V32H83.7344V15.8281L90.125 32H94.0781L100.688 15.6562V32H106.094V8H99.2188L92.0938 25.4219ZM122.266 32.4688C129.297 32.4688 133.766 27.5156 133.766 20.0937C133.766 12.6562 129.297 7.6875 122.266 7.6875C115.234 7.6875 110.766 12.6562 110.766 20.0937C110.766 27.5156 115.234 32.4688 122.266 32.4688ZM122.297 27.9375C118.406 27.9375 116.5 24.4687 116.5 20.0781C116.5 15.6875 118.406 12.1719 122.297 12.1719C126.125 12.1719 128.031 15.6875 128.031 20.0781C128.031 24.4687 126.125 27.9375 122.297 27.9375ZM136.102 32H142.773L149.633 22.3125H150.883V32H156.539V22.3125H157.789L164.617 32H171.289L162.477 19.6094L171.211 8H164.68L157.852 17.6719H156.539V8H150.883V17.6719H149.539L142.711 8H136.18L144.961 19.6094L136.102 32ZM180.973 8H175.52V32H180.973V22.2969H190.27V32H195.707V8H190.27V17.6562H180.973V8ZM211.898 32.4688C218.93 32.4688 223.398 27.5156 223.398 20.0937C223.398 12.6562 218.93 7.6875 211.898 7.6875C204.867 7.6875 200.398 12.6562 200.398 20.0937C200.398 27.5156 204.867 32.4688 211.898 32.4688ZM211.93 27.9375C208.039 27.9375 206.133 24.4687 206.133 20.0781C206.133 15.6875 208.039 12.1719 211.93 12.1719C215.758 12.1719 217.664 15.6875 217.664 20.0781C217.664 24.4687 215.758 27.9375 211.93 27.9375ZM238.668 32.4688C244.699 32.4688 248.543 28.8906 248.949 23.7969H243.543C243.059 26.375 241.199 27.8594 238.715 27.8594C235.184 27.8594 232.902 24.9062 232.902 20C232.902 15.1562 235.23 12.25 238.715 12.25C241.434 12.25 243.105 14 243.543 16.3125H248.949C248.559 11.1094 244.496 7.6875 238.637 7.6875C231.605 7.6875 227.168 12.7656 227.168 20.0937C227.168 27.3594 231.496 32.4688 238.668 32.4688ZM251.895 12.6406H259.66V32H265.129V12.6406H272.895V8H251.895V12.6406ZM282.852 24.3437V8H277.398V32H283.227L292.805 15.6406V32H298.273V8H292.461L282.852 24.3437ZM325.465 32.4688C331.496 32.4688 335.34 28.8906 335.746 23.7969H330.34C329.855 26.375 327.996 27.8594 325.512 27.8594C321.98 27.8594 319.699 24.9062 319.699 20C319.699 15.1562 322.027 12.25 325.512 12.25C328.23 12.25 329.902 14 330.34 16.3125H335.746C335.355 11.1094 331.293 7.6875 325.434 7.6875C318.402 7.6875 313.965 12.7656 313.965 20.0937C313.965 27.3594 318.293 32.4688 325.465 32.4688ZM351.016 32.4688C356.609 32.4688 360.453 29.7344 361.453 25.5625L356.172 24.9687C355.406 27 353.531 28.0625 351.094 28.0625C347.438 28.0625 345.016 25.6562 344.969 21.5469H361.688V19.8125C361.688 11.3906 356.625 7.6875 350.719 7.6875C343.844 7.6875 339.359 12.7344 339.359 20.1406C339.359 27.6719 343.781 32.4688 351.016 32.4688ZM344.984 17.7344C345.156 14.6719 347.422 12.0937 350.797 12.0937C354.047 12.0937 356.234 14.4688 356.266 17.7344H344.984ZM366.473 41H372.129V28.2188H372.363C373.254 29.9687 375.113 32.4219 379.238 32.4219C384.895 32.4219 389.129 27.9375 389.129 20.0312C389.129 12.0312 384.77 7.6875 379.223 7.6875C374.988 7.6875 373.223 10.2344 372.363 11.9687H372.035V8H366.473V41ZM372.02 20C372.02 15.3437 374.02 12.3281 377.66 12.3281C381.426 12.3281 383.363 15.5312 383.363 20C383.363 24.5 381.395 27.7812 377.66 27.7812C374.051 27.7812 372.02 24.6562 372.02 20ZM393.973 32H405.598C411.223 32 414.441 29.4531 414.441 25.4844C414.441 22.125 411.832 19.7812 408.066 19.4531C411.27 18.8594 413.27 17.1562 413.27 14.4531C413.27 10.4062 409.723 8 404.051 8H393.973V32ZM399.27 27.5469V21.5937H405.598C407.676 21.5937 408.941 22.7969 408.941 24.7812C408.941 26.5 407.676 27.5469 405.598 27.5469H399.27ZM399.27 17.9375V12.5312H404.051C406.41 12.5312 407.848 13.5312 407.848 15.1719C407.848 16.8906 406.457 17.9375 404.16 17.9375H399.27ZM429.734 32.4688C435.328 32.4688 439.172 29.7344 440.172 25.5625L434.891 24.9687C434.125 27 432.25 28.0625 429.813 28.0625C426.156 28.0625 423.734 25.6562 423.688 21.5469H440.406V19.8125C440.406 11.3906 435.344 7.6875 429.438 7.6875C422.562 7.6875 418.078 12.7344 418.078 20.1406C418.078 27.6719 422.5 32.4688 429.734 32.4688ZM423.703 17.7344C423.875 14.6719 426.141 12.0937 429.516 12.0937C432.766 12.0937 434.953 14.4688 434.984 17.7344H423.703ZM445.191 41H450.848V28.2188H451.082C451.973 29.9687 453.832 32.4219 457.957 32.4219C463.613 32.4219 467.848 27.9375 467.848 20.0312C467.848 12.0312 463.488 7.6875 457.941 7.6875C453.707 7.6875 451.941 10.2344 451.082 11.9687H450.754V8H445.191V41ZM450.738 20C450.738 15.3437 452.738 12.3281 456.379 12.3281C460.145 12.3281 462.082 15.5312 462.082 20C462.082 24.5 460.113 27.7812 456.379 27.7812C452.77 27.7812 450.738 24.6562 450.738 20ZM479.598 32.4844C483.363 32.4844 485.613 30.7187 486.645 28.7031H486.832V32H492.27V15.9375C492.27 9.59375 487.098 7.6875 482.52 7.6875C477.473 7.6875 473.598 9.9375 472.348 14.3125L477.629 15.0625C478.191 13.4219 479.785 12.0156 482.551 12.0156C485.176 12.0156 486.613 13.3594 486.613 15.7188V15.8125C486.613 17.4375 484.91 17.5156 480.676 17.9687C476.02 18.4688 471.566 19.8594 471.566 25.2656C471.566 29.9844 475.02 32.4844 479.598 32.4844ZM481.066 28.3281C478.707 28.3281 477.02 27.25 477.02 25.1719C477.02 23 478.91 22.0937 481.441 21.7344C482.926 21.5312 485.895 21.1562 486.629 20.5625V23.3906C486.629 26.0625 484.473 28.3281 481.066 28.3281Z" fill="black"/>
</svg>
