<svg width="514" height="74" viewBox="0 0 514 74" fill="none" xmlns="http://www.w3.org/2000/svg">
<path d="M1.58523 14H9.58807V12.5938H3.17045V8.14489H9.0767V6.73864H3.17045V2.31534H9.4858V0.909091H1.58523V14ZM16.1271 14.2045C18.3004 14.2045 19.7322 12.875 19.9879 11.1364H18.4794C18.1982 12.2102 17.3033 12.8494 16.1271 12.8494C14.3374 12.8494 13.1868 11.3665 13.1868 9.09091C13.1868 6.86648 14.3629 5.40909 16.1271 5.40909C17.4567 5.40909 18.2493 6.22727 18.4794 7.12216H19.9879C19.7322 5.28125 18.1726 4.05398 16.1016 4.05398C13.4425 4.05398 11.6783 6.15057 11.6783 9.14205C11.6783 12.0824 13.3658 14.2045 16.1271 14.2045ZM21.3239 14H21.8352C24.0085 14 24.6349 12.3125 24.7756 9.09091L24.929 5.58807H28.5341V14H30.0426V4.18182H23.4972L23.3182 8.52841C23.1903 11.8267 22.858 12.5938 21.6818 12.5938H21.3239V14ZM34.3189 11.7756V4.18182H32.8104V14H34.5746L39.2791 6.40625V14H40.7876V4.18182H39.049L34.3189 11.7756ZM49.5847 17.6562C50.9462 17.6562 51.9114 16.9339 52.4739 15.4318L56.6543 4.20739L55.0051 4.18182L52.2949 12.0057H52.1926L49.4824 4.18182H47.8461L51.4767 14.0511L51.1955 14.8182C50.6586 16.2884 49.9682 16.429 48.8688 16.1477L48.4853 17.4773C48.6387 17.554 49.0733 17.6562 49.5847 17.6562ZM63.7127 14H68.3406C70.3349 14 71.5366 12.875 71.5366 11.3665C71.5366 9.82599 70.3668 8.99503 69.2866 8.83523C70.3924 8.60511 71.1786 7.98509 71.1786 6.78977C71.1786 5.22372 69.8363 4.18182 67.7269 4.18182H63.7127V14ZM65.1445 12.6193V9.60227H68.3406C69.3761 9.60227 70.0025 10.2223 70.0025 11.2386C70.0025 12.0952 69.3761 12.6193 68.3406 12.6193H65.1445ZM65.1445 8.2983V5.5625H67.7269C68.935 5.5625 69.6701 6.06747 69.6701 6.89205C69.6701 7.76776 68.935 8.2983 67.7269 8.2983H65.1445ZM76.7093 14.2301C78.4224 14.2301 79.3173 13.3097 79.6241 12.6705H79.7008V14H81.2093V7.53125C81.2093 4.41193 78.8315 4.05398 77.5787 4.05398C76.0957 4.05398 74.4082 4.56534 73.6412 6.35511L75.073 6.86648C75.4054 6.15057 76.1916 5.38352 77.6298 5.38352C79.0169 5.38352 79.7008 6.11861 79.7008 7.37784V7.42898C79.7008 8.15767 78.9593 8.09375 77.1696 8.32386C75.3478 8.56037 73.3599 8.96307 73.3599 11.2131C73.3599 13.1307 74.8429 14.2301 76.7093 14.2301ZM76.9395 12.875C75.7377 12.875 74.8684 12.3381 74.8684 11.2898C74.8684 10.1392 75.9167 9.78125 77.0929 9.62784C77.7321 9.55114 79.4451 9.37216 79.7008 9.06534V10.446C79.7008 11.6733 78.7292 12.875 76.9395 12.875ZM87.9513 14.2045C90.1246 14.2045 91.5565 12.875 91.8121 11.1364H90.3036C90.0224 12.2102 89.1275 12.8494 87.9513 12.8494C86.1616 12.8494 85.011 11.3665 85.011 9.09091C85.011 6.86648 86.1871 5.40909 87.9513 5.40909C89.2809 5.40909 90.0735 6.22727 90.3036 7.12216H91.8121C91.5565 5.28125 89.9968 4.05398 87.9258 4.05398C85.2667 4.05398 83.5025 6.15057 83.5025 9.14205C83.5025 12.0824 85.19 14.2045 87.9513 14.2045ZM100.588 4.18182H99.0799V14H100.588V9.80682H105.293V14H106.801V4.18182H105.293V8.40057H100.588V4.18182ZM113.673 14.2045C115.667 14.2045 117.125 13.2074 117.585 11.7244L116.127 11.3153C115.744 12.3381 114.855 12.8494 113.673 12.8494C111.902 12.8494 110.681 11.7053 110.611 9.60227H117.738V8.96307C117.738 5.30682 115.565 4.05398 113.52 4.05398C110.86 4.05398 109.096 6.15057 109.096 9.16761C109.096 12.1847 110.835 14.2045 113.673 14.2045ZM110.611 8.2983C110.713 6.7706 111.794 5.40909 113.52 5.40909C115.156 5.40909 116.204 6.63636 116.204 8.2983H110.611ZM119.119 5.58807H122.366V14H123.875V5.58807H127.096V4.18182H119.119V5.58807ZM138.348 14.2045C141.007 14.2045 142.797 12.1847 142.797 9.14205C142.797 6.07386 141.007 4.05398 138.348 4.05398C135.689 4.05398 133.899 6.07386 133.899 9.14205C133.899 12.1847 135.689 14.2045 138.348 14.2045ZM138.348 12.8494C136.328 12.8494 135.407 11.1108 135.407 9.14205C135.407 7.1733 136.328 5.40909 138.348 5.40909C140.368 5.40909 141.288 7.1733 141.288 9.14205C141.288 11.1108 140.368 12.8494 138.348 12.8494ZM145.099 14H146.608V5.58807H151.312V14H152.821V4.18182H145.099V14ZM157.085 7.7358V4.18182H155.576V14H159.692C161.994 14 163.246 12.5938 163.246 10.8295C163.246 9.03977 161.994 7.7358 159.692 7.7358H157.085ZM164.806 14H166.315V4.18182H164.806V14ZM157.085 9.14205H159.692C160.888 9.14205 161.738 9.87074 161.738 10.9062C161.738 11.897 160.888 12.5938 159.692 12.5938H157.085V9.14205ZM168.513 5.58807H171.761V14H173.269V5.58807H176.491V4.18182H168.513V5.58807ZM181.071 14.2301C182.784 14.2301 183.679 13.3097 183.985 12.6705H184.062V14H185.571V7.53125C185.571 4.41193 183.193 4.05398 181.94 4.05398C180.457 4.05398 178.77 4.56534 178.002 6.35511L179.434 6.86648C179.767 6.15057 180.553 5.38352 181.991 5.38352C183.378 5.38352 184.062 6.11861 184.062 7.37784V7.42898C184.062 8.15767 183.321 8.09375 181.531 8.32386C179.709 8.56037 177.721 8.96307 177.721 11.2131C177.721 13.1307 179.204 14.2301 181.071 14.2301ZM181.301 12.875C180.099 12.875 179.23 12.3381 179.23 11.2898C179.23 10.1392 180.278 9.78125 181.454 9.62784C182.093 9.55114 183.806 9.37216 184.062 9.06534V10.446C184.062 11.6733 183.091 12.875 181.301 12.875ZM194.895 11.7756V4.18182H193.387V14H195.151L199.855 6.40625V14H201.364V4.18182H199.625L194.895 11.7756ZM210.186 4.18182H204.127V14H205.635V5.58807H210.186V4.18182ZM212.388 17.6818H213.897V12.4915H214.025C214.357 13.0284 214.996 14.2045 216.888 14.2045C219.343 14.2045 221.056 12.2358 221.056 9.11648C221.056 6.02273 219.343 4.05398 216.863 4.05398C214.945 4.05398 214.357 5.23011 214.025 5.74148H213.846V4.18182H212.388V17.6818ZM213.871 9.09091C213.871 6.89205 214.843 5.40909 216.684 5.40909C218.602 5.40909 219.548 7.01989 219.548 9.09091C219.548 11.1875 218.576 12.8494 216.684 12.8494C214.869 12.8494 213.871 11.3153 213.871 9.09091ZM224.866 7.7358V4.18182H223.357V14H227.474C229.775 14 231.028 12.5938 231.028 10.8295C231.028 9.03977 229.775 7.7358 227.474 7.7358H224.866ZM232.587 14H234.096V4.18182H232.587V14ZM224.866 9.14205H227.474C228.669 9.14205 229.519 9.87074 229.519 10.9062C229.519 11.897 228.669 12.5938 227.474 12.5938H224.866V9.14205ZM243.428 4.18182H241.92V14H243.428V9.80682H248.133V14H249.641V4.18182H248.133V8.40057H243.428V4.18182ZM255.286 14.2301C256.999 14.2301 257.893 13.3097 258.2 12.6705H258.277V14H259.786V7.53125C259.786 4.41193 257.408 4.05398 256.155 4.05398C254.672 4.05398 252.984 4.56534 252.217 6.35511L253.649 6.86648C253.982 6.15057 254.768 5.38352 256.206 5.38352C257.593 5.38352 258.277 6.11861 258.277 7.37784V7.42898C258.277 8.15767 257.536 8.09375 255.746 8.32386C253.924 8.56037 251.936 8.96307 251.936 11.2131C251.936 13.1307 253.419 14.2301 255.286 14.2301ZM255.516 12.875C254.314 12.875 253.445 12.3381 253.445 11.2898C253.445 10.1392 254.493 9.78125 255.669 9.62784C256.308 9.55114 258.021 9.37216 258.277 9.06534V10.446C258.277 11.6733 257.305 12.875 255.516 12.875ZM267.806 14H269.391V9.21875H272.255C275.304 9.21875 276.678 7.36506 276.678 5.05114C276.678 2.73722 275.304 0.909091 272.229 0.909091H267.806V14ZM269.391 7.8125V2.31534H272.178C274.307 2.31534 275.118 3.47869 275.118 5.05114C275.118 6.62358 274.307 7.8125 272.204 7.8125H269.391ZM289.024 0.909091H279.257V14H280.843V2.31534H287.439V14H289.024V0.909091ZM301.069 14.2045C303.242 14.2045 304.674 12.875 304.929 11.1364H303.421C303.14 12.2102 302.245 12.8494 301.069 12.8494C299.279 12.8494 298.128 11.3665 298.128 9.09091C298.128 6.86648 299.304 5.40909 301.069 5.40909C302.398 5.40909 303.191 6.22727 303.421 7.12216H304.929C304.674 5.28125 303.114 4.05398 301.043 4.05398C298.384 4.05398 296.62 6.15057 296.62 9.14205C296.62 12.0824 298.307 14.2045 301.069 14.2045ZM311.251 14.2045C313.245 14.2045 314.703 13.2074 315.163 11.7244L313.706 11.3153C313.322 12.3381 312.434 12.8494 311.251 12.8494C309.48 12.8494 308.26 11.7053 308.189 9.60227H315.316V8.96307C315.316 5.30682 313.143 4.05398 311.098 4.05398C308.439 4.05398 306.674 6.15057 306.674 9.16761C306.674 12.1847 308.413 14.2045 311.251 14.2045ZM308.189 8.2983C308.292 6.7706 309.372 5.40909 311.098 5.40909C312.734 5.40909 313.782 6.63636 313.782 8.2983H308.189ZM317.611 17.6818H319.12V12.4915H319.248C319.58 13.0284 320.219 14.2045 322.111 14.2045C324.566 14.2045 326.279 12.2358 326.279 9.11648C326.279 6.02273 324.566 4.05398 322.086 4.05398C320.168 4.05398 319.58 5.23011 319.248 5.74148H319.069V4.18182H317.611V17.6818ZM319.094 9.09091C319.094 6.89205 320.066 5.40909 321.907 5.40909C323.824 5.40909 324.77 7.01989 324.77 9.09091C324.77 11.1875 323.799 12.8494 321.907 12.8494C320.091 12.8494 319.094 11.3153 319.094 9.09091ZM328.58 14H333.208C335.202 14 336.404 12.875 336.404 11.3665C336.404 9.82599 335.234 8.99503 334.154 8.83523C335.26 8.60511 336.046 7.98509 336.046 6.78977C336.046 5.22372 334.703 4.18182 332.594 4.18182H328.58V14ZM330.012 12.6193V9.60227H333.208C334.243 9.60227 334.87 10.2223 334.87 11.2386C334.87 12.0952 334.243 12.6193 333.208 12.6193H330.012ZM330.012 8.2983V5.5625H332.594C333.802 5.5625 334.537 6.06747 334.537 6.89205C334.537 7.76776 333.802 8.2983 332.594 8.2983H330.012ZM342.804 14.2045C344.798 14.2045 346.256 13.2074 346.716 11.7244L345.258 11.3153C344.875 12.3381 343.986 12.8494 342.804 12.8494C341.033 12.8494 339.812 11.7053 339.742 9.60227H346.869V8.96307C346.869 5.30682 344.696 4.05398 342.65 4.05398C339.991 4.05398 338.227 6.15057 338.227 9.16761C338.227 12.1847 339.966 14.2045 342.804 14.2045ZM339.742 8.2983C339.844 6.7706 340.925 5.40909 342.65 5.40909C344.287 5.40909 345.335 6.63636 345.335 8.2983H339.742ZM349.164 17.6818H350.672V12.4915H350.8C351.133 13.0284 351.772 14.2045 353.664 14.2045C356.118 14.2045 357.831 12.2358 357.831 9.11648C357.831 6.02273 356.118 4.05398 353.638 4.05398C351.721 4.05398 351.133 5.23011 350.8 5.74148H350.621V4.18182H349.164V17.6818ZM350.647 9.09091C350.647 6.89205 351.618 5.40909 353.459 5.40909C355.377 5.40909 356.323 7.01989 356.323 9.09091C356.323 11.1875 355.351 12.8494 353.459 12.8494C351.644 12.8494 350.647 11.3153 350.647 9.09091ZM363.022 14.2301C364.735 14.2301 365.63 13.3097 365.937 12.6705H366.013V14H367.522V7.53125C367.522 4.41193 365.144 4.05398 363.891 4.05398C362.408 4.05398 360.721 4.56534 359.954 6.35511L361.385 6.86648C361.718 6.15057 362.504 5.38352 363.942 5.38352C365.329 5.38352 366.013 6.11861 366.013 7.37784V7.42898C366.013 8.15767 365.272 8.09375 363.482 8.32386C361.66 8.56037 359.672 8.96307 359.672 11.2131C359.672 13.1307 361.155 14.2301 363.022 14.2301ZM363.252 12.875C362.05 12.875 361.181 12.3381 361.181 11.2898C361.181 10.1392 362.229 9.78125 363.405 9.62784C364.045 9.55114 365.758 9.37216 366.013 9.06534V10.446C366.013 11.6733 365.042 12.875 363.252 12.875ZM371.4 4.18182H369.662L372.781 9.09091L369.662 14H371.4L373.752 10.1903L376.105 14H377.843L374.673 9.09091L377.843 4.18182H376.105L373.752 8.19602L371.4 4.18182ZM382.246 12.2102H380.61L380.533 12.9261C380.347 14.6584 379.983 16.3842 379.817 17.196H380.968C381.274 16.3267 381.926 14.358 382.144 12.9006L382.246 12.2102ZM390.103 14H391.612V5.58807H396.316V14H397.825V4.18182H390.103V14ZM404.569 14.2045C407.228 14.2045 409.017 12.1847 409.017 9.14205C409.017 6.07386 407.228 4.05398 404.569 4.05398C401.909 4.05398 400.12 6.07386 400.12 9.14205C400.12 12.1847 401.909 14.2045 404.569 14.2045ZM404.569 12.8494C402.549 12.8494 401.628 11.1108 401.628 9.14205C401.628 7.1733 402.549 5.40909 404.569 5.40909C406.588 5.40909 407.509 7.1733 407.509 9.14205C407.509 11.1108 406.588 12.8494 404.569 12.8494ZM415.309 14.2045C417.482 14.2045 418.914 12.875 419.17 11.1364H417.661C417.38 12.2102 416.485 12.8494 415.309 12.8494C413.519 12.8494 412.368 11.3665 412.368 9.09091C412.368 6.86648 413.545 5.40909 415.309 5.40909C416.638 5.40909 417.431 6.22727 417.661 7.12216H419.17C418.914 5.28125 417.354 4.05398 415.283 4.05398C412.624 4.05398 410.86 6.15057 410.86 9.14205C410.86 12.0824 412.547 14.2045 415.309 14.2045ZM426.744 11.9545L423.369 4.18182H421.375V14H422.883V6.34872L426.131 14H427.358L430.605 6.48935V14H432.113V4.18182H430.17L426.744 11.9545ZM438.863 14.2045C441.523 14.2045 443.312 12.1847 443.312 9.14205C443.312 6.07386 441.523 4.05398 438.863 4.05398C436.204 4.05398 434.415 6.07386 434.415 9.14205C434.415 12.1847 436.204 14.2045 438.863 14.2045ZM438.863 12.8494C436.844 12.8494 435.923 11.1108 435.923 9.14205C435.923 7.1733 436.844 5.40909 438.863 5.40909C440.883 5.40909 441.804 7.1733 441.804 9.14205C441.804 11.1108 440.883 12.8494 438.863 12.8494ZM444.332 5.58807H447.579V14H449.088V5.58807H452.309V4.18182H444.332V5.58807ZM454.51 17.6818H456.018V12.4915H456.146C456.478 13.0284 457.118 14.2045 459.01 14.2045C461.464 14.2045 463.177 12.2358 463.177 9.11648C463.177 6.02273 461.464 4.05398 458.984 4.05398C457.066 4.05398 456.478 5.23011 456.146 5.74148H455.967V4.18182H454.51V17.6818ZM455.993 9.09091C455.993 6.89205 456.964 5.40909 458.805 5.40909C460.723 5.40909 461.669 7.01989 461.669 9.09091C461.669 11.1875 460.697 12.8494 458.805 12.8494C456.99 12.8494 455.993 11.3153 455.993 9.09091ZM466.987 11.7756V4.18182H465.478V14H467.243L471.947 6.40625V14H473.456V4.18182H471.717L466.987 11.7756ZM474.883 5.58807H478.13V14H479.638V5.58807H482.86V4.18182H474.883V5.58807ZM488.667 14.2045C490.661 14.2045 492.119 13.2074 492.579 11.7244L491.122 11.3153C490.738 12.3381 489.85 12.8494 488.667 12.8494C486.896 12.8494 485.676 11.7053 485.605 9.60227H492.732V8.96307C492.732 5.30682 490.559 4.05398 488.514 4.05398C485.855 4.05398 484.09 6.15057 484.09 9.16761C484.09 12.1847 485.829 14.2045 488.667 14.2045ZM485.605 8.2983C485.708 6.7706 486.788 5.40909 488.514 5.40909C490.15 5.40909 491.198 6.63636 491.198 8.2983H485.605ZM1.38068 45.6818H2.8892V40.4915H3.01705C3.34943 41.0284 3.98864 42.2045 5.88068 42.2045C8.33523 42.2045 10.0483 40.2358 10.0483 37.1165C10.0483 34.0227 8.33523 32.054 5.85511 32.054C3.9375 32.054 3.34943 33.2301 3.01705 33.7415H2.83807V32.1818H1.38068V45.6818ZM2.86364 37.0909C2.86364 34.892 3.83523 33.4091 5.67614 33.4091C7.59375 33.4091 8.53977 35.0199 8.53977 37.0909C8.53977 39.1875 7.56818 40.8494 5.67614 40.8494C3.8608 40.8494 2.86364 39.3153 2.86364 37.0909ZM15.2386 42.2301C16.9517 42.2301 17.8466 41.3097 18.1534 40.6705H18.2301V42H19.7386V35.5312C19.7386 32.4119 17.3608 32.054 16.108 32.054C14.625 32.054 12.9375 32.5653 12.1705 34.3551L13.6023 34.8665C13.9347 34.1506 14.7209 33.3835 16.1591 33.3835C17.5462 33.3835 18.2301 34.1186 18.2301 35.3778V35.429C18.2301 36.1577 17.4886 36.0938 15.6989 36.3239C13.8771 36.5604 11.8892 36.9631 11.8892 39.2131C11.8892 41.1307 13.3722 42.2301 15.2386 42.2301ZM15.4688 40.875C14.267 40.875 13.3977 40.3381 13.3977 39.2898C13.3977 38.1392 14.446 37.7812 15.6222 37.6278C16.2614 37.5511 17.9744 37.3722 18.2301 37.0653V38.446C18.2301 39.6733 17.2585 40.875 15.4688 40.875ZM21.8784 39.4943C21.9295 41.1051 23.47 42.2045 25.5602 42.2045C27.7079 42.2045 29.2676 41.054 29.2676 39.2642C29.2676 38.0369 28.5325 37.0398 27.4267 36.9631V36.8608C28.3599 36.5732 29.063 35.8956 29.063 34.7898C29.063 33.2365 27.7335 32.054 25.6625 32.054C23.617 32.054 22.1596 33.179 22.1085 34.7642H23.6937C23.7385 33.9524 24.5886 33.3835 25.7392 33.3835C26.8833 33.3835 27.5289 33.9652 27.5289 34.8409C27.5289 35.6591 26.9664 36.2727 25.7647 36.2727H24.0772V37.6278H25.7647C26.9664 37.6278 27.7335 38.2862 27.7335 39.2642C27.7335 40.3828 26.7427 40.8494 25.5346 40.8494C24.3521 40.8494 23.5595 40.3828 23.4892 39.4943H21.8784ZM30.3382 44.8125H31.8468V42H39.1081V44.8125H40.6167V40.5938H39.1081V32.1818H32.8695L32.5371 36.0682C32.3006 38.8168 31.949 39.7628 31.1564 40.5938H30.3382V44.8125ZM32.8695 40.5938C33.5598 39.6861 33.8091 38.12 34.0201 36.0682L34.2757 33.5881H37.5996V40.5938H32.8695ZM46.7354 42.2045C48.7298 42.2045 50.1871 41.2074 50.6474 39.7244L49.19 39.3153C48.8065 40.3381 47.918 40.8494 46.7354 40.8494C44.9648 40.8494 43.744 39.7053 43.6737 37.6023H50.8008V36.9631C50.8008 33.3068 48.6275 32.054 46.582 32.054C43.9229 32.054 42.1587 34.1506 42.1587 37.1676C42.1587 40.1847 43.8974 42.2045 46.7354 42.2045ZM43.6737 36.2983C43.7759 34.7706 44.8562 33.4091 46.582 33.4091C48.2184 33.4091 49.2667 34.6364 49.2667 36.2983H43.6737ZM52.2262 42H52.7376C54.9109 42 55.5373 40.3125 55.6779 37.0909L55.8313 33.5881H59.4364V42H60.945V32.1818H54.3995L54.2205 36.5284C54.0927 39.8267 53.7603 40.5938 52.5842 40.5938H52.2262V42ZM68.7752 42H70.2837V33.5881H74.9883V42H76.4968V32.1818H68.7752V42ZM83.2404 42.2045C85.8995 42.2045 87.6893 40.1847 87.6893 37.142C87.6893 34.0739 85.8995 32.054 83.2404 32.054C80.5813 32.054 78.7915 34.0739 78.7915 37.142C78.7915 40.1847 80.5813 42.2045 83.2404 42.2045ZM83.2404 40.8494C81.2205 40.8494 80.3001 39.1108 80.3001 37.142C80.3001 35.1733 81.2205 33.4091 83.2404 33.4091C85.2603 33.4091 86.1808 35.1733 86.1808 37.142C86.1808 39.1108 85.2603 40.8494 83.2404 40.8494ZM95.3613 39.9545L91.9863 32.1818H89.992V42H91.5005V34.3487L94.7477 42H95.975L99.2221 34.4893V42H100.731V32.1818H98.7875L95.3613 39.9545ZM107.481 42.2045C110.14 42.2045 111.93 40.1847 111.93 37.142C111.93 34.0739 110.14 32.054 107.481 32.054C104.822 32.054 103.032 34.0739 103.032 37.142C103.032 40.1847 104.822 42.2045 107.481 42.2045ZM107.481 40.8494C105.461 40.8494 104.54 39.1108 104.54 37.142C104.54 35.1733 105.461 33.4091 107.481 33.4091C109.501 33.4091 110.421 35.1733 110.421 37.142C110.421 39.1108 109.501 40.8494 107.481 40.8494ZM127.63 40.5938H126.173V32.1818H124.664V40.5938H120.957V32.1818H119.448V40.5938H115.741V32.1818H114.232V42H125.891V44.8125H127.451L127.63 40.5938ZM131.333 39.7756V32.1818H129.824V42H131.588L136.293 34.4062V42H137.801V32.1818H136.063L131.333 39.7756ZM141.664 42.1023C142.297 42.1023 142.814 41.5845 142.814 40.9517C142.814 40.3189 142.297 39.8011 141.664 39.8011C141.031 39.8011 140.513 40.3189 140.513 40.9517C140.513 41.5845 141.031 42.1023 141.664 42.1023ZM150.788 42H155.518C158.612 42 159.891 40.4915 159.891 38.5227C159.891 36.4517 158.459 35.3267 157.257 35.25V35.1222C158.382 34.8153 159.379 34.0739 159.379 32.3864C159.379 30.4688 158.101 28.9091 155.365 28.9091H150.788V42ZM152.374 40.5938V36.0426H155.595C157.308 36.0426 158.382 37.1932 158.382 38.5227C158.382 39.6733 157.589 40.5938 155.518 40.5938H152.374ZM152.374 34.6619V30.3153H155.365C157.104 30.3153 157.871 31.2358 157.871 32.3864C157.871 33.767 156.746 34.6619 155.314 34.6619H152.374ZM163.799 35.7358V32.1818H162.291V42H166.407C168.708 42 169.961 40.5938 169.961 38.8295C169.961 37.0398 168.708 35.7358 166.407 35.7358H163.799ZM171.521 42H173.029V32.1818H171.521V42ZM163.799 37.142H166.407C167.603 37.142 168.453 37.8707 168.453 38.9062C168.453 39.897 167.603 40.5938 166.407 40.5938H163.799V37.142ZM182.362 32.1818H180.853V42H182.362V37.8068H187.066V42H188.575V32.1818H187.066V36.4006H182.362V32.1818ZM194.219 42.2301C195.932 42.2301 196.827 41.3097 197.134 40.6705H197.211V42H198.719V35.5312C198.719 32.4119 196.341 32.054 195.088 32.054C193.605 32.054 191.918 32.5653 191.151 34.3551L192.583 34.8665C192.915 34.1506 193.701 33.3835 195.14 33.3835C196.527 33.3835 197.211 34.1186 197.211 35.3778V35.429C197.211 36.1577 196.469 36.0938 194.679 36.3239C192.858 36.5604 190.87 36.9631 190.87 39.2131C190.87 41.1307 192.353 42.2301 194.219 42.2301ZM194.449 40.875C193.248 40.875 192.378 40.3381 192.378 39.2898C192.378 38.1392 193.426 37.7812 194.603 37.6278C195.242 37.5511 196.955 37.3722 197.211 37.0653V38.446C197.211 39.6733 196.239 40.875 194.449 40.875ZM202.981 39.7756V32.1818H201.472V42H203.237L207.941 34.4062V42H209.45V32.1818H207.711L202.981 39.7756ZM206.714 28.9091C206.714 29.5739 206.356 30.1619 205.461 30.1619C204.566 30.1619 204.234 29.5739 204.234 28.9091H202.828C202.828 30.2898 203.85 31.2614 205.461 31.2614C207.097 31.2614 208.12 30.2898 208.12 28.9091H206.714ZM211.164 44.8125H212.673V42H219.934V44.8125H221.443V40.5938H219.934V32.1818H213.696L213.363 36.0682C213.127 38.8168 212.775 39.7628 211.983 40.5938H211.164V44.8125ZM213.696 40.5938C214.386 39.6861 214.635 38.12 214.846 36.0682L215.102 33.5881H218.426V40.5938H213.696ZM227.562 42.2045C229.556 42.2045 231.013 41.2074 231.474 39.7244L230.016 39.3153C229.633 40.3381 228.744 40.8494 227.562 40.8494C225.791 40.8494 224.57 39.7053 224.5 37.6023H231.627V36.9631C231.627 33.3068 229.454 32.054 227.408 32.054C224.749 32.054 222.985 34.1506 222.985 37.1676C222.985 40.1847 224.724 42.2045 227.562 42.2045ZM224.5 36.2983C224.602 34.7706 225.682 33.4091 227.408 33.4091C229.045 33.4091 230.093 34.6364 230.093 36.2983H224.5ZM225.491 30.5455C226.079 30.5455 226.513 30.0597 226.513 29.5227C226.513 28.9347 226.079 28.5 225.491 28.5C224.954 28.5 224.468 28.9347 224.468 29.5227C224.468 30.0597 224.954 30.5455 225.491 30.5455ZM229.172 30.5455C229.76 30.5455 230.195 30.0597 230.195 29.5227C230.195 28.9347 229.76 28.5 229.172 28.5C228.635 28.5 228.15 28.9347 228.15 29.5227C228.15 30.0597 228.635 30.5455 229.172 30.5455ZM233.008 33.5881H236.255V42H237.763V33.5881H240.985V32.1818H233.008V33.5881ZM246.792 42.2045C248.786 42.2045 250.244 41.2074 250.704 39.7244L249.247 39.3153C248.863 40.3381 247.975 40.8494 246.792 40.8494C245.021 40.8494 243.801 39.7053 243.73 37.6023H250.857V36.9631C250.857 33.3068 248.684 32.054 246.639 32.054C243.98 32.054 242.215 34.1506 242.215 37.1676C242.215 40.1847 243.954 42.2045 246.792 42.2045ZM243.73 36.2983C243.833 34.7706 244.913 33.4091 246.639 33.4091C248.275 33.4091 249.323 34.6364 249.323 36.2983H243.73ZM263.584 39.9545L260.209 32.1818H258.215V42H259.723V34.3487L262.97 42H264.198L267.445 34.4893V42H268.953V32.1818H267.01L263.584 39.9545ZM273.223 32.1818H271.715V42H273.223V37.8068H277.928V42H279.436V32.1818H277.928V36.4006H273.223V32.1818ZM286.18 42.2045C288.839 42.2045 290.629 40.1847 290.629 37.142C290.629 34.0739 288.839 32.054 286.18 32.054C283.521 32.054 281.731 34.0739 281.731 37.142C281.731 40.1847 283.521 42.2045 286.18 42.2045ZM286.18 40.8494C284.16 40.8494 283.24 39.1108 283.24 37.142C283.24 35.1733 284.16 33.4091 286.18 33.4091C288.2 33.4091 289.12 35.1733 289.12 37.142C289.12 39.1108 288.2 40.8494 286.18 40.8494ZM298.991 32.1818H292.931V42H294.44V33.5881H298.991V32.1818ZM304.672 42.2045C307.331 42.2045 309.121 40.1847 309.121 37.142C309.121 34.0739 307.331 32.054 304.672 32.054C302.013 32.054 300.223 34.0739 300.223 37.142C300.223 40.1847 302.013 42.2045 304.672 42.2045ZM304.672 40.8494C302.652 40.8494 301.732 39.1108 301.732 37.142C301.732 35.1733 302.652 33.4091 304.672 33.4091C306.692 33.4091 307.612 35.1733 307.612 37.142C307.612 39.1108 306.692 40.8494 304.672 40.8494ZM316.486 42H317.995V33.5881H322.699V42H324.208V32.1818H316.486V42ZM330.951 42.2045C333.61 42.2045 335.4 40.1847 335.4 37.142C335.4 34.0739 333.61 32.054 330.951 32.054C328.292 32.054 326.502 34.0739 326.502 37.142C326.502 40.1847 328.292 42.2045 330.951 42.2045ZM330.951 40.8494C328.931 40.8494 328.011 39.1108 328.011 37.142C328.011 35.1733 328.931 33.4091 330.951 33.4091C332.971 33.4091 333.892 35.1733 333.892 37.142C333.892 39.1108 332.971 40.8494 330.951 40.8494ZM336.834 42H337.345C339.518 42 340.145 40.3125 340.285 37.0909L340.439 33.5881H344.044V42H345.552V32.1818H339.007L338.828 36.5284C338.7 39.8267 338.368 40.5938 337.192 40.5938H336.834V42ZM352.437 42.2045C354.431 42.2045 355.888 41.2074 356.349 39.7244L354.891 39.3153C354.508 40.3381 353.619 40.8494 352.437 40.8494C350.666 40.8494 349.445 39.7053 349.375 37.6023H356.502V36.9631C356.502 33.3068 354.329 32.054 352.283 32.054C349.624 32.054 347.86 34.1506 347.86 37.1676C347.86 40.1847 349.599 42.2045 352.437 42.2045ZM349.375 36.2983C349.477 34.7706 350.557 33.4091 352.283 33.4091C353.92 33.4091 354.968 34.6364 354.968 36.2983H349.375ZM358.183 39.4943C358.234 41.1051 359.775 42.2045 361.865 42.2045C364.013 42.2045 365.572 41.054 365.572 39.2642C365.572 38.0369 364.837 37.0398 363.731 36.9631V36.8608C364.665 36.5732 365.368 35.8956 365.368 34.7898C365.368 33.2365 364.038 32.054 361.967 32.054C359.922 32.054 358.464 33.179 358.413 34.7642H359.998C360.043 33.9524 360.893 33.3835 362.044 33.3835C363.188 33.3835 363.834 33.9652 363.834 34.8409C363.834 35.6591 363.271 36.2727 362.069 36.2727H360.382V37.6278H362.069C363.271 37.6278 364.038 38.2862 364.038 39.2642C364.038 40.3828 363.047 40.8494 361.839 40.8494C360.657 40.8494 359.864 40.3828 359.794 39.4943H358.183ZM369.2 32.1818H367.691V42H369.2V37.8068H373.904V42H375.413V32.1818H373.904V36.4006H369.2V32.1818ZM382.156 42.2045C384.816 42.2045 386.605 40.1847 386.605 37.142C386.605 34.0739 384.816 32.054 382.156 32.054C379.497 32.054 377.708 34.0739 377.708 37.142C377.708 40.1847 379.497 42.2045 382.156 42.2045ZM382.156 40.8494C380.137 40.8494 379.216 39.1108 379.216 37.142C379.216 35.1733 380.137 33.4091 382.156 33.4091C384.176 33.4091 385.097 35.1733 385.097 37.142C385.097 39.1108 384.176 40.8494 382.156 40.8494ZM390.417 39.7756V32.1818H388.908V42H390.672L395.377 34.4062V42H396.885V32.1818H395.147L390.417 39.7756ZM394.15 28.9091C394.15 29.5739 393.792 30.1619 392.897 30.1619C392.002 30.1619 391.669 29.5739 391.669 28.9091H390.263C390.263 30.2898 391.286 31.2614 392.897 31.2614C394.533 31.2614 395.556 30.2898 395.556 28.9091H394.15ZM406.219 39.7756V32.1818H404.711V42H406.475L411.18 34.4062V42H412.688V32.1818H410.949L406.219 39.7756ZM416.96 32.1818H415.451V42H416.96V37.8068H421.664V42H423.173V32.1818H421.664V36.4006H416.96V32.1818ZM429.916 45.3494H431.425V42.2045C434.084 42.2045 435.874 40.1847 435.874 37.142C435.874 34.0739 434.084 32.054 431.425 32.054V28.9091H429.916V32.054C427.257 32.054 425.467 34.0739 425.467 37.142C425.467 40.1847 427.257 42.2045 429.916 42.2045V45.3494ZM431.425 40.8494V33.4091C433.445 33.4091 434.365 35.1733 434.365 37.142C434.365 39.1108 433.445 40.8494 431.425 40.8494ZM429.916 40.8494C427.896 40.8494 426.976 39.1108 426.976 37.142C426.976 35.1733 427.896 33.4091 429.916 33.4091V40.8494ZM442.168 42.2045C444.827 42.2045 446.617 40.1847 446.617 37.142C446.617 34.0739 444.827 32.054 442.168 32.054C439.509 32.054 437.719 34.0739 437.719 37.142C437.719 40.1847 439.509 42.2045 442.168 42.2045ZM442.168 40.8494C440.148 40.8494 439.228 39.1108 439.228 37.142C439.228 35.1733 440.148 33.4091 442.168 33.4091C444.188 33.4091 445.108 35.1733 445.108 37.142C445.108 39.1108 444.188 40.8494 442.168 40.8494ZM448.92 45.6818H450.428V40.4915H450.556C450.888 41.0284 451.528 42.2045 453.42 42.2045C455.874 42.2045 457.587 40.2358 457.587 37.1165C457.587 34.0227 455.874 32.054 453.394 32.054C451.477 32.054 450.888 33.2301 450.556 33.7415H450.377V32.1818H448.92V45.6818ZM450.403 37.0909C450.403 34.892 451.374 33.4091 453.215 33.4091C455.133 33.4091 456.079 35.0199 456.079 37.0909C456.079 39.1875 455.107 40.8494 453.215 40.8494C451.4 40.8494 450.403 39.3153 450.403 37.0909ZM465.258 39.9545L461.883 32.1818H459.888V42H461.397V34.3487L464.644 42H465.871L469.119 34.4893V42H470.627V32.1818H468.684L465.258 39.9545ZM476.278 42.2301C477.991 42.2301 478.886 41.3097 479.192 40.6705H479.269V42H480.778V35.5312C480.778 32.4119 478.4 32.054 477.147 32.054C475.664 32.054 473.977 32.5653 473.21 34.3551L474.641 34.8665C474.974 34.1506 475.76 33.3835 477.198 33.3835C478.585 33.3835 479.269 34.1186 479.269 35.3778V35.429C479.269 36.1577 478.528 36.0938 476.738 36.3239C474.916 36.5604 472.928 36.9631 472.928 39.2131C472.928 41.1307 474.411 42.2301 476.278 42.2301ZM476.508 40.875C475.306 40.875 474.437 40.3381 474.437 39.2898C474.437 38.1392 475.485 37.7812 476.661 37.6278C477.3 37.5511 479.013 37.3722 479.269 37.0653V38.446C479.269 39.6733 478.298 40.875 476.508 40.875ZM491.253 32.1818H489.744V40.5938H485.04V32.1818H483.531V42H491.253V45.1705H492.761V40.5938H491.253V32.1818ZM496.465 39.7756V32.1818H494.957V42H496.721L501.426 34.4062V42H502.934V32.1818H501.195L496.465 39.7756ZM507.206 39.7756V32.1818H505.697V42H507.461L512.166 34.4062V42H513.674V32.1818H511.936L507.206 39.7756ZM5.36932 70.2045C8.02841 70.2045 9.81818 68.1847 9.81818 65.142C9.81818 62.0739 8.02841 60.054 5.36932 60.054C2.71023 60.054 0.920455 62.0739 0.920455 65.142C0.920455 68.1847 2.71023 70.2045 5.36932 70.2045ZM5.36932 68.8494C3.34943 68.8494 2.42898 67.1108 2.42898 65.142C2.42898 63.1733 3.34943 61.4091 5.36932 61.4091C7.3892 61.4091 8.30966 63.1733 8.30966 65.142C8.30966 67.1108 7.3892 68.8494 5.36932 68.8494ZM16.6209 61.5881H19.8681V70H21.3766V61.5881H24.5982V60.1818H16.6209V61.5881ZM30.2775 70.2045C32.9366 70.2045 34.7264 68.1847 34.7264 65.142C34.7264 62.0739 32.9366 60.054 30.2775 60.054C27.6184 60.054 25.8287 62.0739 25.8287 65.142C25.8287 68.1847 27.6184 70.2045 30.2775 70.2045ZM30.2775 68.8494C28.2576 68.8494 27.3372 67.1108 27.3372 65.142C27.3372 63.1733 28.2576 61.4091 30.2775 61.4091C32.2974 61.4091 33.2179 63.1733 33.2179 65.142C33.2179 67.1108 32.2974 68.8494 30.2775 68.8494ZM42.3984 67.9545L39.0234 60.1818H37.0291V70H38.5376V62.3487L41.7848 70H43.0121L46.2592 62.4893V70H47.7678V60.1818H45.8246L42.3984 67.9545ZM52.7791 68.2102H51.1428L51.0661 68.9261C50.8807 70.6584 50.5163 72.3842 50.3501 73.196H51.5007C51.8075 72.3267 52.4595 70.358 52.6768 68.9006L52.7791 68.2102ZM60.6365 70H62.1451V65.858H63.5002L66.7218 70H68.665L64.6507 64.9119L68.6138 60.1818H66.6706L63.1422 64.4517H62.1451V60.1818H60.6365V70ZM73.1937 70.2301C74.9068 70.2301 75.8017 69.3097 76.1085 68.6705H76.1852V70H77.6937V63.5312C77.6937 60.4119 75.3159 60.054 74.063 60.054C72.5801 60.054 70.8926 60.5653 70.1255 62.3551L71.5574 62.8665C71.8897 62.1506 72.676 61.3835 74.1142 61.3835C75.5012 61.3835 76.1852 62.1186 76.1852 63.3778V63.429C76.1852 64.1577 75.4437 64.0938 73.6539 64.3239C71.8322 64.5604 69.8443 64.9631 69.8443 67.2131C69.8443 69.1307 71.3272 70.2301 73.1937 70.2301ZM73.4238 68.875C72.2221 68.875 71.3528 68.3381 71.3528 67.2898C71.3528 66.1392 72.4011 65.7812 73.5772 65.6278C74.2164 65.5511 75.9295 65.3722 76.1852 65.0653V66.446C76.1852 67.6733 75.2136 68.875 73.4238 68.875ZM80.4471 70H81.9556V65.858H83.3107L86.5323 70H88.4755L84.4613 64.9119L88.4244 60.1818H86.4812L82.9528 64.4517H81.9556V60.1818H80.4471V70ZM95.1776 70H96.6861V61.5881H101.391V70H102.899V60.1818H95.1776V70ZM105.654 73.6818H107.163V68.4915H107.29C107.623 69.0284 108.262 70.2045 110.154 70.2045C112.609 70.2045 114.322 68.2358 114.322 65.1165C114.322 62.0227 112.609 60.054 110.129 60.054C108.211 60.054 107.623 61.2301 107.29 61.7415H107.112V60.1818H105.654V73.6818ZM107.137 65.0909C107.137 62.892 108.109 61.4091 109.95 61.4091C111.867 61.4091 112.813 63.0199 112.813 65.0909C112.813 67.1875 111.842 68.8494 109.95 68.8494C108.134 68.8494 107.137 67.3153 107.137 65.0909ZM119.512 70.2301C121.225 70.2301 122.12 69.3097 122.427 68.6705H122.504V70H124.012V63.5312C124.012 60.4119 121.634 60.054 120.381 60.054C118.898 60.054 117.211 60.5653 116.444 62.3551L117.876 62.8665C118.208 62.1506 118.994 61.3835 120.433 61.3835C121.82 61.3835 122.504 62.1186 122.504 63.3778V63.429C122.504 64.1577 121.762 64.0938 119.972 64.3239C118.151 64.5604 116.163 64.9631 116.163 67.2131C116.163 69.1307 117.646 70.2301 119.512 70.2301ZM119.742 68.875C118.54 68.875 117.671 68.3381 117.671 67.2898C117.671 66.1392 118.719 65.7812 119.896 65.6278C120.535 65.5511 122.248 65.3722 122.504 65.0653V66.446C122.504 67.6733 121.532 68.875 119.742 68.875ZM126.765 70H131.393C133.388 70 134.589 68.875 134.589 67.3665C134.589 65.826 133.42 64.995 132.339 64.8352C133.445 64.6051 134.231 63.9851 134.231 62.7898C134.231 61.2237 132.889 60.1818 130.78 60.1818H126.765V70ZM128.197 68.6193V65.6023H131.393C132.429 65.6023 133.055 66.2223 133.055 67.2386C133.055 68.0952 132.429 68.6193 131.393 68.6193H128.197ZM128.197 64.2983V61.5625H130.78C131.988 61.5625 132.723 62.0675 132.723 62.892C132.723 63.7678 131.988 64.2983 130.78 64.2983H128.197ZM138.381 67.7756V60.1818H136.873V70H138.637L143.342 62.4062V70H144.85V60.1818H143.112L138.381 67.7756ZM146.744 70H147.255C149.428 70 150.055 68.3125 150.195 65.0909L150.349 61.5881H153.954V70H155.463V60.1818H148.917L148.738 64.5284C148.61 67.8267 148.278 68.5938 147.102 68.5938H146.744V70ZM159.739 63.7358V60.1818H158.23V70H162.347C164.648 70 165.901 68.5938 165.901 66.8295C165.901 65.0398 164.648 63.7358 162.347 63.7358H159.739ZM159.739 65.142H162.347C163.542 65.142 164.392 65.8707 164.392 66.9062C164.392 67.897 163.542 68.5938 162.347 68.5938H159.739V65.142ZM169.706 60.1818H168.197V70H169.706V65.8068H174.41V70H175.919V60.1818H174.41V64.4006H169.706V60.1818ZM182.662 70.2045C185.321 70.2045 187.111 68.1847 187.111 65.142C187.111 62.0739 185.321 60.054 182.662 60.054C180.003 60.054 178.213 62.0739 178.213 65.142C178.213 68.1847 180.003 70.2045 182.662 70.2045ZM182.662 68.8494C180.642 68.8494 179.722 67.1108 179.722 65.142C179.722 63.1733 180.642 61.4091 182.662 61.4091C184.682 61.4091 185.603 63.1733 185.603 65.142C185.603 67.1108 184.682 68.8494 182.662 68.8494ZM195.985 67.7756V60.1818H194.476V70H196.241L200.945 62.4062V70H202.454V60.1818H200.715L195.985 67.7756ZM211.276 60.1818H205.217V70H206.725V61.5881H211.276V60.1818ZM213.478 73.6818H214.987V68.4915H215.115C215.447 69.0284 216.086 70.2045 217.978 70.2045C220.433 70.2045 222.146 68.2358 222.146 65.1165C222.146 62.0227 220.433 60.054 217.953 60.054C216.035 60.054 215.447 61.2301 215.115 61.7415H214.936V60.1818H213.478V73.6818ZM214.961 65.0909C214.961 62.892 215.933 61.4091 217.774 61.4091C219.691 61.4091 220.637 63.0199 220.637 65.0909C220.637 67.1875 219.666 68.8494 217.774 68.8494C215.958 68.8494 214.961 67.3153 214.961 65.0909ZM227.336 70.2301C229.049 70.2301 229.944 69.3097 230.251 68.6705H230.328V70H231.836V63.5312C231.836 60.4119 229.458 60.054 228.206 60.054C226.723 60.054 225.035 60.5653 224.268 62.3551L225.7 62.8665C226.032 62.1506 226.819 61.3835 228.257 61.3835C229.644 61.3835 230.328 62.1186 230.328 63.3778V63.429C230.328 64.1577 229.586 64.0938 227.797 64.3239C225.975 64.5604 223.987 64.9631 223.987 67.2131C223.987 69.1307 225.47 70.2301 227.336 70.2301ZM227.566 68.875C226.365 68.875 225.495 68.3381 225.495 67.2898C225.495 66.1392 226.544 65.7812 227.72 65.6278C228.359 65.5511 230.072 65.3722 230.328 65.0653V66.446C230.328 67.6733 229.356 68.875 227.566 68.875ZM233.254 61.5881H236.501V70H238.009V61.5881H241.231V60.1818H233.254V61.5881ZM244.94 63.7358V60.1818H243.431V70H247.548C249.849 70 251.102 68.5938 251.102 66.8295C251.102 65.0398 249.849 63.7358 247.548 63.7358H244.94ZM244.94 65.142H247.548C248.743 65.142 249.593 65.8707 249.593 66.9062C249.593 67.897 248.743 68.5938 247.548 68.5938H244.94V65.142ZM258.461 73.6818H259.969V68.4915H260.097C260.43 69.0284 261.069 70.2045 262.961 70.2045C265.415 70.2045 267.128 68.2358 267.128 65.1165C267.128 62.0227 265.415 60.054 262.935 60.054C261.018 60.054 260.43 61.2301 260.097 61.7415H259.918V60.1818H258.461V73.6818ZM259.944 65.0909C259.944 62.892 260.915 61.4091 262.756 61.4091C264.674 61.4091 265.62 63.0199 265.62 65.0909C265.62 67.1875 264.648 68.8494 262.756 68.8494C260.941 68.8494 259.944 67.3153 259.944 65.0909ZM273.418 70.2045C276.077 70.2045 277.867 68.1847 277.867 65.142C277.867 62.0739 276.077 60.054 273.418 60.054C270.759 60.054 268.969 62.0739 268.969 65.142C268.969 68.1847 270.759 70.2045 273.418 70.2045ZM273.418 68.8494C271.398 68.8494 270.478 67.1108 270.478 65.142C270.478 63.1733 271.398 61.4091 273.418 61.4091C275.438 61.4091 276.358 63.1733 276.358 65.142C276.358 67.1108 275.438 68.8494 273.418 68.8494ZM279.3 70H279.812C281.985 70 282.612 68.3125 282.752 65.0909L282.906 61.5881H286.511V70H288.019V60.1818H281.474L281.295 64.5284C281.167 67.8267 280.835 68.5938 279.658 68.5938H279.3V70ZM292.295 67.7756V60.1818H290.787V70H292.551L297.256 62.4062V70H298.764V60.1818H297.026L292.295 67.7756ZM302.627 70.1023C303.259 70.1023 303.777 69.5845 303.777 68.9517C303.777 68.3189 303.259 67.8011 302.627 67.8011C301.994 67.8011 301.476 68.3189 301.476 68.9517C301.476 69.5845 301.994 70.1023 302.627 70.1023Z" fill="white"/>
</svg>
