<svg width="316" height="46" viewBox="0 0 316 46" fill="none" xmlns="http://www.w3.org/2000/svg">
<path d="M0.585227 0.909091V14H2.11932L9.25284 3.72159H9.38068V14H10.9659V0.909091H9.43182L2.27273 11.2131H2.14489V0.909091H0.585227ZM19.9931 4.18182H13.9334V14H15.4419V5.58807H19.9931V4.18182ZM22.1951 17.6818H23.7037V12.4915H23.8315C24.1639 13.0284 24.8031 14.2045 26.6951 14.2045C29.1497 14.2045 30.8627 12.2358 30.8627 9.11648C30.8627 6.02273 29.1497 4.05398 26.6696 4.05398C24.752 4.05398 24.1639 5.23011 23.8315 5.74148H23.6525V4.18182H22.1951V17.6818ZM23.6781 9.09091C23.6781 6.89205 24.6497 5.40909 26.4906 5.40909C28.4082 5.40909 29.3542 7.01989 29.3542 9.09091C29.3542 11.1875 28.3826 12.8494 26.4906 12.8494C24.6752 12.8494 23.6781 11.3153 23.6781 9.09091ZM37.1525 14.2045C39.8116 14.2045 41.6014 12.1847 41.6014 9.14205C41.6014 6.07386 39.8116 4.05398 37.1525 4.05398C34.4934 4.05398 32.7037 6.07386 32.7037 9.14205C32.7037 12.1847 34.4934 14.2045 37.1525 14.2045ZM37.1525 12.8494C35.1326 12.8494 34.2122 11.1108 34.2122 9.14205C34.2122 7.1733 35.1326 5.40909 37.1525 5.40909C39.1724 5.40909 40.0929 7.1733 40.0929 9.14205C40.0929 11.1108 39.1724 12.8494 37.1525 12.8494ZM43.9041 14H48.532C50.5263 14 51.728 12.875 51.728 11.3665C51.728 9.82599 50.5582 8.99503 49.478 8.83523C50.5838 8.60511 51.37 7.98509 51.37 6.78977C51.37 5.22372 50.0277 4.18182 47.9183 4.18182H43.9041V14ZM45.3359 12.6193V9.60227H48.532C49.5675 9.60227 50.1939 10.2223 50.1939 11.2386C50.1939 12.0952 49.5675 12.6193 48.532 12.6193H45.3359ZM45.3359 8.2983V5.5625H47.9183C49.1264 5.5625 49.8615 6.06747 49.8615 6.89205C49.8615 7.76776 49.1264 8.2983 47.9183 8.2983H45.3359ZM58.0002 14.2045C60.6593 14.2045 62.449 12.1847 62.449 9.14205C62.449 6.07386 60.6593 4.05398 58.0002 4.05398C55.3411 4.05398 53.5513 6.07386 53.5513 9.14205C53.5513 12.1847 55.3411 14.2045 58.0002 14.2045ZM58.0002 12.8494C55.9803 12.8494 55.0598 11.1108 55.0598 9.14205C55.0598 7.1733 55.9803 5.40909 58.0002 5.40909C60.0201 5.40909 60.9405 7.1733 60.9405 9.14205C60.9405 11.1108 60.0201 12.8494 58.0002 12.8494ZM68.8683 14.2045C70.8626 14.2045 72.32 13.2074 72.7802 11.7244L71.3228 11.3153C70.9393 12.3381 70.0508 12.8494 68.8683 12.8494C67.0977 12.8494 65.8768 11.7053 65.8065 9.60227H72.9336V8.96307C72.9336 5.30682 70.7603 4.05398 68.7148 4.05398C66.0558 4.05398 64.2915 6.15057 64.2915 9.16761C64.2915 12.1847 66.0302 14.2045 68.8683 14.2045ZM65.8065 8.2983C65.9087 6.7706 66.989 5.40909 68.7148 5.40909C70.3512 5.40909 71.3995 6.63636 71.3995 8.2983H65.8065ZM84.2795 14.2045C86.4528 14.2045 87.8846 12.875 88.1403 11.1364H86.6317C86.3505 12.2102 85.4556 12.8494 84.2795 12.8494C82.4897 12.8494 81.3391 11.3665 81.3391 9.09091C81.3391 6.86648 82.5153 5.40909 84.2795 5.40909C85.609 5.40909 86.4016 6.22727 86.6317 7.12216H88.1403C87.8846 5.28125 86.3249 4.05398 84.2539 4.05398C81.5948 4.05398 79.8306 6.15057 79.8306 9.14205C79.8306 12.0824 81.5181 14.2045 84.2795 14.2045ZM94.3342 14.2045C96.9933 14.2045 98.783 12.1847 98.783 9.14205C98.783 6.07386 96.9933 4.05398 94.3342 4.05398C91.6751 4.05398 89.8853 6.07386 89.8853 9.14205C89.8853 12.1847 91.6751 14.2045 94.3342 14.2045ZM94.3342 12.8494C92.3143 12.8494 91.3938 11.1108 91.3938 9.14205C91.3938 7.1733 92.3143 5.40909 94.3342 5.40909C96.354 5.40909 97.2745 7.1733 97.2745 9.14205C97.2745 11.1108 96.354 12.8494 94.3342 12.8494ZM105.074 14.2045C107.733 14.2045 109.523 12.1847 109.523 9.14205C109.523 6.07386 107.733 4.05398 105.074 4.05398C102.415 4.05398 100.626 6.07386 100.626 9.14205C100.626 12.1847 102.415 14.2045 105.074 14.2045ZM105.074 12.8494C103.055 12.8494 102.134 11.1108 102.134 9.14205C102.134 7.1733 103.055 5.40909 105.074 5.40909C107.094 5.40909 108.015 7.1733 108.015 9.14205C108.015 11.1108 107.094 12.8494 105.074 12.8494ZM119.113 0.5C118.634 0.902698 117.918 0.902698 116.914 0.896306C116.588 0.896306 116.23 0.896306 115.84 0.909091C112.849 0.985795 111.366 3.26136 111.366 7.63352V8.68182C111.366 12.3125 113.13 14.2045 115.763 14.2045C118.391 14.2045 120.136 12.2997 120.136 9.21875C120.136 6.125 118.365 4.48864 116.07 4.48864C114.722 4.48864 113.462 5.05114 112.798 6.27841H112.67C112.874 3.74716 113.82 2.39205 115.866 2.31534C117.681 2.23864 118.985 2.28977 119.88 1.42045L119.113 0.5ZM115.763 12.8494C113.974 12.8494 112.874 11.4176 112.874 9.21875C112.906 7.07102 113.987 5.84375 115.738 5.84375C117.534 5.84375 118.627 7.07102 118.627 9.21875C118.627 11.4304 117.54 12.8494 115.763 12.8494ZM135.841 12.5938H134.384V4.18182H132.875V12.5938H129.168V4.18182H127.659V12.5938H123.952V4.18182H122.443V14H134.102V16.8125H135.662L135.841 12.5938ZM142.046 14.2045C144.04 14.2045 145.498 13.2074 145.958 11.7244L144.501 11.3153C144.117 12.3381 143.229 12.8494 142.046 12.8494C140.275 12.8494 139.055 11.7053 138.984 9.60227H146.111V8.96307C146.111 5.30682 143.938 4.05398 141.893 4.05398C139.233 4.05398 137.469 6.15057 137.469 9.16761C137.469 12.1847 139.208 14.2045 142.046 14.2045ZM138.984 8.2983C139.086 6.7706 140.167 5.40909 141.893 5.40909C143.529 5.40909 144.577 6.63636 144.577 8.2983H138.984ZM152.395 14.2045C154.568 14.2045 156 12.875 156.256 11.1364H154.747C154.466 12.2102 153.571 12.8494 152.395 12.8494C150.605 12.8494 149.454 11.3665 149.454 9.09091C149.454 6.86648 150.631 5.40909 152.395 5.40909C153.724 5.40909 154.517 6.22727 154.747 7.12216H156.256C156 5.28125 154.44 4.05398 152.369 4.05398C149.71 4.05398 147.946 6.15057 147.946 9.14205C147.946 12.0824 149.633 14.2045 152.395 14.2045ZM157.687 5.58807H160.934V14H162.443V5.58807H165.665V4.18182H157.687V5.58807ZM167.865 14H172.493C174.487 14 175.689 12.875 175.689 11.3665C175.689 9.82599 174.519 8.99503 173.439 8.83523C174.545 8.60511 175.331 7.98509 175.331 6.78977C175.331 5.22372 173.989 4.18182 171.879 4.18182H167.865V14ZM169.297 12.6193V9.60227H172.493C173.528 9.60227 174.155 10.2223 174.155 11.2386C174.155 12.0952 173.528 12.6193 172.493 12.6193H169.297ZM169.297 8.2983V5.5625H171.879C173.087 5.5625 173.822 6.06747 173.822 6.89205C173.822 7.76776 173.087 8.2983 171.879 8.2983H169.297ZM181.961 14.2045C184.62 14.2045 186.41 12.1847 186.41 9.14205C186.41 6.07386 184.62 4.05398 181.961 4.05398C179.302 4.05398 177.512 6.07386 177.512 9.14205C177.512 12.1847 179.302 14.2045 181.961 14.2045ZM181.961 12.8494C179.941 12.8494 179.021 11.1108 179.021 9.14205C179.021 7.1733 179.941 5.40909 181.961 5.40909C183.981 5.40909 184.901 7.1733 184.901 9.14205C184.901 11.1108 183.981 12.8494 181.961 12.8494ZM192.727 16.8125H194.235V14H201.497V16.8125H203.005V12.5938H201.497V4.18182H195.258L194.926 8.06818C194.689 10.8168 194.338 11.7628 193.545 12.5938H192.727V16.8125ZM195.258 12.5938C195.949 11.6861 196.198 10.12 196.409 8.06818L196.664 5.58807H199.988V12.5938H195.258ZM209.124 14.2045C211.118 14.2045 212.576 13.2074 213.036 11.7244L211.579 11.3153C211.195 12.3381 210.307 12.8494 209.124 12.8494C207.354 12.8494 206.133 11.7053 206.062 9.60227H213.189V8.96307C213.189 5.30682 211.016 4.05398 208.971 4.05398C206.312 4.05398 204.547 6.15057 204.547 9.16761C204.547 12.1847 206.286 14.2045 209.124 14.2045ZM206.062 8.2983C206.165 6.7706 207.245 5.40909 208.971 5.40909C210.607 5.40909 211.655 6.63636 211.655 8.2983H206.062ZM215.484 14H216.993V5.58807H221.697V14H223.206V4.18182H215.484V14ZM228.85 14.2301C230.563 14.2301 231.458 13.3097 231.765 12.6705H231.841V14H233.35V7.53125C233.35 4.41193 230.972 4.05398 229.719 4.05398C228.236 4.05398 226.549 4.56534 225.782 6.35511L227.214 6.86648C227.546 6.15057 228.332 5.38352 229.77 5.38352C231.157 5.38352 231.841 6.11861 231.841 7.37784V7.42898C231.841 8.15767 231.1 8.09375 229.31 8.32386C227.488 8.56037 225.501 8.96307 225.501 11.2131C225.501 13.1307 226.983 14.2301 228.85 14.2301ZM229.08 12.875C227.878 12.875 227.009 12.3381 227.009 11.2898C227.009 10.1392 228.057 9.78125 229.233 9.62784C229.873 9.55114 231.586 9.37216 231.841 9.06534V10.446C231.841 11.6733 230.87 12.875 229.08 12.875ZM236.103 17.6818H237.612V12.4915H237.74C238.072 13.0284 238.711 14.2045 240.603 14.2045C243.058 14.2045 244.771 12.2358 244.771 9.11648C244.771 6.02273 243.058 4.05398 240.578 4.05398C238.66 4.05398 238.072 5.23011 237.74 5.74148H237.561V4.18182H236.103V17.6818ZM237.586 9.09091C237.586 6.89205 238.558 5.40909 240.399 5.40909C242.316 5.40909 243.262 7.01989 243.262 9.09091C243.262 11.1875 242.291 12.8494 240.399 12.8494C238.583 12.8494 237.586 11.3153 237.586 9.09091ZM245.789 5.58807H249.036V14H250.545V5.58807H253.766V4.18182H245.789V5.58807ZM258.346 14.2301C260.059 14.2301 260.954 13.3097 261.261 12.6705H261.338V14H262.846V7.53125C262.846 4.41193 260.468 4.05398 259.215 4.05398C257.732 4.05398 256.045 4.56534 255.278 6.35511L256.71 6.86648C257.042 6.15057 257.828 5.38352 259.267 5.38352C260.654 5.38352 261.338 6.11861 261.338 7.37784V7.42898C261.338 8.15767 260.596 8.09375 258.806 8.32386C256.985 8.56037 254.997 8.96307 254.997 11.2131C254.997 13.1307 256.48 14.2301 258.346 14.2301ZM258.576 12.875C257.374 12.875 256.505 12.3381 256.505 11.2898C256.505 10.1392 257.553 9.78125 258.73 9.62784C259.369 9.55114 261.082 9.37216 261.338 9.06534V10.446C261.338 11.6733 260.366 12.875 258.576 12.875ZM270.969 11.9545L267.594 4.18182H265.599V14H267.108V6.34872L270.355 14H271.582L274.83 6.48935V14H276.338V4.18182H274.395L270.969 11.9545ZM283.216 14.2045C285.21 14.2045 286.668 13.2074 287.128 11.7244L285.67 11.3153C285.287 12.3381 284.398 12.8494 283.216 12.8494C281.445 12.8494 280.224 11.7053 280.154 9.60227H287.281V8.96307C287.281 5.30682 285.108 4.05398 283.062 4.05398C280.403 4.05398 278.639 6.15057 278.639 9.16761C278.639 12.1847 280.378 14.2045 283.216 14.2045ZM280.154 8.2983C280.256 6.7706 281.337 5.40909 283.062 5.40909C284.699 5.40909 285.747 6.63636 285.747 8.2983H280.154ZM291.085 4.18182H289.576V14H291.085V9.80682H295.789V14H297.298V4.18182H295.789V8.40057H291.085V4.18182ZM298.717 5.58807H301.964V14H303.472V5.58807H306.694V4.18182H298.717V5.58807ZM311.274 14.2301C312.987 14.2301 313.882 13.3097 314.189 12.6705H314.265V14H315.774V7.53125C315.774 4.41193 313.396 4.05398 312.143 4.05398C310.66 4.05398 308.973 4.56534 308.206 6.35511L309.637 6.86648C309.97 6.15057 310.756 5.38352 312.194 5.38352C313.581 5.38352 314.265 6.11861 314.265 7.37784V7.42898C314.265 8.15767 313.524 8.09375 311.734 8.32386C309.912 8.56037 307.924 8.96307 307.924 11.2131C307.924 13.1307 309.407 14.2301 311.274 14.2301ZM311.504 12.875C310.302 12.875 309.433 12.3381 309.433 11.2898C309.433 10.1392 310.481 9.78125 311.657 9.62784C312.297 9.55114 314.01 9.37216 314.265 9.06534V10.446C314.265 11.6733 313.294 12.875 311.504 12.875ZM0.380682 32.1818V42H12.321V32.1818H10.8125V40.5938H7.10511V32.1818H5.59659V40.5938H1.8892V32.1818H0.380682ZM19.1925 42.2045C21.1868 42.2045 22.6442 41.2074 23.1044 39.7244L21.647 39.3153C21.2635 40.3381 20.375 40.8494 19.1925 40.8494C17.4219 40.8494 16.201 39.7053 16.1307 37.6023H23.2578V36.9631C23.2578 33.3068 21.0845 32.054 19.0391 32.054C16.38 32.054 14.6158 34.1506 14.6158 37.1676C14.6158 40.1847 16.3544 42.2045 19.1925 42.2045ZM16.1307 36.2983C16.233 34.7706 17.3132 33.4091 19.0391 33.4091C20.6754 33.4091 21.7237 34.6364 21.7237 36.2983H16.1307ZM25.5526 45.6818H27.0611V40.4915H27.1889C27.5213 41.0284 28.1605 42.2045 30.0526 42.2045C32.5071 42.2045 34.2202 40.2358 34.2202 37.1165C34.2202 34.0227 32.5071 32.054 30.027 32.054C28.1094 32.054 27.5213 33.2301 27.1889 33.7415H27.0099V32.1818H25.5526V45.6818ZM27.0355 37.0909C27.0355 34.892 28.0071 33.4091 29.848 33.4091C31.7656 33.4091 32.7116 35.0199 32.7116 37.0909C32.7116 39.1875 31.7401 40.8494 29.848 40.8494C28.0327 40.8494 27.0355 39.3153 27.0355 37.0909ZM38.0298 39.7756V32.1818H36.5213V42H38.2855L42.9901 34.4062V42H44.4986V32.1818H42.7599L38.0298 39.7756ZM51.2502 45.3494H52.7587V42.2045C55.4178 42.2045 57.2076 40.1847 57.2076 37.142C57.2076 34.0739 55.4178 32.054 52.7587 32.054V28.9091H51.2502V32.054C48.5911 32.054 46.8013 34.0739 46.8013 37.142C46.8013 40.1847 48.5911 42.2045 51.2502 42.2045V45.3494ZM52.7587 40.8494V33.4091C54.7786 33.4091 55.699 35.1733 55.699 37.142C55.699 39.1108 54.7786 40.8494 52.7587 40.8494ZM51.2502 40.8494C49.2303 40.8494 48.3098 39.1108 48.3098 37.142C48.3098 35.1733 49.2303 33.4091 51.2502 33.4091V40.8494ZM62.4027 42.2301C64.1158 42.2301 65.0107 41.3097 65.3175 40.6705H65.3942V42H66.9027V35.5312C66.9027 32.4119 64.5249 32.054 63.272 32.054C61.7891 32.054 60.1016 32.5653 59.3345 34.3551L60.7663 34.8665C61.0987 34.1506 61.8849 33.3835 63.3232 33.3835C64.7102 33.3835 65.3942 34.1186 65.3942 35.3778V35.429C65.3942 36.1577 64.6527 36.0938 62.8629 36.3239C61.0412 36.5604 59.0533 36.9631 59.0533 39.2131C59.0533 41.1307 60.5362 42.2301 62.4027 42.2301ZM62.6328 40.875C61.4311 40.875 60.5618 40.3381 60.5618 39.2898C60.5618 38.1392 61.6101 37.7812 62.7862 37.6278C63.4254 37.5511 65.1385 37.3722 65.3942 37.0653V38.446C65.3942 39.6733 64.4226 40.875 62.6328 40.875Z" fill="#2B2B2B"/>
</svg>
