<svg width="322" height="74" viewBox="0 0 322 74" fill="none" xmlns="http://www.w3.org/2000/svg">
<path d="M11.3778 0.909091H1.6108V14H3.19602V2.31534H9.79261V14H11.3778V0.909091ZM14.3709 17.6818H15.8794V12.4915H16.0073C16.3397 13.0284 16.9789 14.2045 18.8709 14.2045C21.3255 14.2045 23.0385 12.2358 23.0385 9.11648C23.0385 6.02273 21.3255 4.05398 18.8453 4.05398C16.9277 4.05398 16.3397 5.23011 16.0073 5.74148H15.8283V4.18182H14.3709V17.6818ZM15.8539 9.09091C15.8539 6.89205 16.8255 5.40909 18.6664 5.40909C20.584 5.40909 21.53 7.01989 21.53 9.09091C21.53 11.1875 20.5584 12.8494 18.6664 12.8494C16.851 12.8494 15.8539 11.3153 15.8539 9.09091ZM29.3283 14.2045C31.9874 14.2045 33.7772 12.1847 33.7772 9.14205C33.7772 6.07386 31.9874 4.05398 29.3283 4.05398C26.6692 4.05398 24.8794 6.07386 24.8794 9.14205C24.8794 12.1847 26.6692 14.2045 29.3283 14.2045ZM29.3283 12.8494C27.3084 12.8494 26.388 11.1108 26.388 9.14205C26.388 7.1733 27.3084 5.40909 29.3283 5.40909C31.3482 5.40909 32.2686 7.1733 32.2686 9.14205C32.2686 11.1108 31.3482 12.8494 29.3283 12.8494ZM40.0685 17.3494H41.5771V14.2045C44.2362 14.2045 46.0259 12.1847 46.0259 9.14205C46.0259 6.07386 44.2362 4.05398 41.5771 4.05398V0.909091H40.0685V4.05398C37.4094 4.05398 35.6197 6.07386 35.6197 9.14205C35.6197 12.1847 37.4094 14.2045 40.0685 14.2045V17.3494ZM41.5771 12.8494V5.40909C43.5969 5.40909 44.5174 7.1733 44.5174 9.14205C44.5174 11.1108 43.5969 12.8494 41.5771 12.8494ZM40.0685 12.8494C38.0487 12.8494 37.1282 11.1108 37.1282 9.14205C37.1282 7.1733 38.0487 5.40909 40.0685 5.40909V12.8494ZM52.4483 14.2045C54.4426 14.2045 55.9 13.2074 56.3603 11.7244L54.9029 11.3153C54.5194 12.3381 53.6309 12.8494 52.4483 12.8494C50.6777 12.8494 49.4569 11.7053 49.3865 9.60227H56.5137V8.96307C56.5137 5.30682 54.3404 4.05398 52.2949 4.05398C49.6358 4.05398 47.8716 6.15057 47.8716 9.16761C47.8716 12.1847 49.6103 14.2045 52.4483 14.2045ZM49.3865 8.2983C49.4888 6.7706 50.5691 5.40909 52.2949 5.40909C53.9313 5.40909 54.9796 6.63636 54.9796 8.2983H49.3865ZM62.7971 14.2045C64.9703 14.2045 66.4022 12.875 66.6578 11.1364H65.1493C64.8681 12.2102 63.9732 12.8494 62.7971 12.8494C61.0073 12.8494 59.8567 11.3665 59.8567 9.09091C59.8567 6.86648 61.0328 5.40909 62.7971 5.40909C64.1266 5.40909 64.9192 6.22727 65.1493 7.12216H66.6578C66.4022 5.28125 64.8425 4.05398 62.7715 4.05398C60.1124 4.05398 58.3482 6.15057 58.3482 9.14205C58.3482 12.0824 60.0357 14.2045 62.7971 14.2045ZM72.8517 14.2045C75.025 14.2045 76.4569 12.875 76.7125 11.1364H75.204C74.9228 12.2102 74.0279 12.8494 72.8517 12.8494C71.062 12.8494 69.9114 11.3665 69.9114 9.09091C69.9114 6.86648 71.0875 5.40909 72.8517 5.40909C74.1813 5.40909 74.9739 6.22727 75.204 7.12216H76.7125C76.4569 5.28125 74.8972 4.05398 72.8262 4.05398C70.1671 4.05398 68.4029 6.15057 68.4029 9.14205C68.4029 12.0824 70.0904 14.2045 72.8517 14.2045ZM80.4263 11.7756V4.18182H78.9178V14H80.682L85.3865 6.40625V14H86.8951V4.18182H85.1564L80.4263 11.7756ZM93.6467 14.2045C96.3058 14.2045 98.0955 12.1847 98.0955 9.14205C98.0955 6.07386 96.3058 4.05398 93.6467 4.05398C90.9876 4.05398 89.1978 6.07386 89.1978 9.14205C89.1978 12.1847 90.9876 14.2045 93.6467 14.2045ZM93.6467 12.8494C91.6268 12.8494 90.7063 11.1108 90.7063 9.14205C90.7063 7.1733 91.6268 5.40909 93.6467 5.40909C95.6665 5.40909 96.587 7.1733 96.587 9.14205C96.587 11.1108 95.6665 12.8494 93.6467 12.8494ZM101.907 4.18182H100.398V14H101.907V9.80682H106.611V14H108.12V4.18182H106.611V8.40057H101.907V4.18182ZM113.764 14.2301C115.477 14.2301 116.372 13.3097 116.679 12.6705H116.756V14H118.264V7.53125C118.264 4.41193 115.886 4.05398 114.633 4.05398C113.15 4.05398 111.463 4.56534 110.696 6.35511L112.128 6.86648C112.46 6.15057 113.246 5.38352 114.684 5.38352C116.072 5.38352 116.756 6.11861 116.756 7.37784V7.42898C116.756 8.15767 116.014 8.09375 114.224 8.32386C112.403 8.56037 110.415 8.96307 110.415 11.2131C110.415 13.1307 111.898 14.2301 113.764 14.2301ZM113.994 12.875C112.792 12.875 111.923 12.3381 111.923 11.2898C111.923 10.1392 112.971 9.78125 114.148 9.62784C114.787 9.55114 116.5 9.37216 116.756 9.06534V10.446C116.756 11.6733 115.784 12.875 113.994 12.875ZM120.148 14H120.659C122.833 14 123.459 12.3125 123.6 9.09091L123.753 5.58807H127.358V14H128.867V4.18182H122.321L122.142 8.52841C122.015 11.8267 121.682 12.5938 120.506 12.5938H120.148V14ZM133.143 7.7358V4.18182H131.635V14H135.751C138.052 14 139.305 12.5938 139.305 10.8295C139.305 9.03977 138.052 7.7358 135.751 7.7358H133.143ZM133.143 9.14205H135.751C136.946 9.14205 137.797 9.87074 137.797 10.9062C137.797 11.897 136.946 12.5938 135.751 12.5938H133.143V9.14205ZM143.11 4.18182H141.601V14H143.11V9.80682H147.814V14H149.323V4.18182H147.814V8.40057H143.11V4.18182ZM156.067 14.2045C158.726 14.2045 160.515 12.1847 160.515 9.14205C160.515 6.07386 158.726 4.05398 156.067 4.05398C153.407 4.05398 151.618 6.07386 151.618 9.14205C151.618 12.1847 153.407 14.2045 156.067 14.2045ZM156.067 12.8494C154.047 12.8494 153.126 11.1108 153.126 9.14205C153.126 7.1733 154.047 5.40909 156.067 5.40909C158.086 5.40909 159.007 7.1733 159.007 9.14205C159.007 11.1108 158.086 12.8494 156.067 12.8494ZM166.935 14.2045C168.929 14.2045 170.386 13.2074 170.847 11.7244L169.389 11.3153C169.006 12.3381 168.117 12.8494 166.935 12.8494C165.164 12.8494 163.943 11.7053 163.873 9.60227H171V8.96307C171 5.30682 168.827 4.05398 166.781 4.05398C164.122 4.05398 162.358 6.15057 162.358 9.16761C162.358 12.1847 164.097 14.2045 166.935 14.2045ZM163.873 8.2983C163.975 6.7706 165.055 5.40909 166.781 5.40909C168.418 5.40909 169.466 6.63636 169.466 8.2983H163.873ZM182.346 14.2045C184.519 14.2045 185.951 12.875 186.207 11.1364H184.698C184.417 12.2102 183.522 12.8494 182.346 12.8494C180.556 12.8494 179.406 11.3665 179.406 9.09091C179.406 6.86648 180.582 5.40909 182.346 5.40909C183.675 5.40909 184.468 6.22727 184.698 7.12216H186.207C185.951 5.28125 184.391 4.05398 182.32 4.05398C179.661 4.05398 177.897 6.15057 177.897 9.14205C177.897 12.0824 179.585 14.2045 182.346 14.2045ZM192.401 14.2045C195.06 14.2045 196.849 12.1847 196.849 9.14205C196.849 6.07386 195.06 4.05398 192.401 4.05398C189.741 4.05398 187.952 6.07386 187.952 9.14205C187.952 12.1847 189.741 14.2045 192.401 14.2045ZM192.401 12.8494C190.381 12.8494 189.46 11.1108 189.46 9.14205C189.46 7.1733 190.381 5.40909 192.401 5.40909C194.42 5.40909 195.341 7.1733 195.341 9.14205C195.341 11.1108 194.42 12.8494 192.401 12.8494ZM203.141 14.2045C205.8 14.2045 207.59 12.1847 207.59 9.14205C207.59 6.07386 205.8 4.05398 203.141 4.05398C200.482 4.05398 198.692 6.07386 198.692 9.14205C198.692 12.1847 200.482 14.2045 203.141 14.2045ZM203.141 12.8494C201.121 12.8494 200.2 11.1108 200.2 9.14205C200.2 7.1733 201.121 5.40909 203.141 5.40909C205.161 5.40909 206.081 7.1733 206.081 9.14205C206.081 11.1108 205.161 12.8494 203.141 12.8494ZM217.179 0.5C216.7 0.902698 215.984 0.902698 214.98 0.896306C214.654 0.896306 214.297 0.896306 213.907 0.909091C210.915 0.985795 209.432 3.26136 209.432 7.63352V8.68182C209.432 12.3125 211.196 14.2045 213.83 14.2045C216.457 14.2045 218.202 12.2997 218.202 9.21875C218.202 6.125 216.431 4.48864 214.137 4.48864C212.788 4.48864 211.529 5.05114 210.864 6.27841H210.736C210.941 3.74716 211.887 2.39205 213.932 2.31534C215.748 2.23864 217.051 2.28977 217.946 1.42045L217.179 0.5ZM213.83 12.8494C212.04 12.8494 210.941 11.4176 210.941 9.21875C210.973 7.07102 212.053 5.84375 213.804 5.84375C215.6 5.84375 216.694 7.07102 216.694 9.21875C216.694 11.4304 215.607 12.8494 213.83 12.8494ZM233.907 12.5938H232.45V4.18182H230.941V12.5938H227.234V4.18182H225.725V12.5938H222.018V4.18182H220.51V14H232.169V16.8125H233.728L233.907 12.5938ZM240.112 14.2045C242.107 14.2045 243.564 13.2074 244.024 11.7244L242.567 11.3153C242.183 12.3381 241.295 12.8494 240.112 12.8494C238.342 12.8494 237.121 11.7053 237.051 9.60227H244.178V8.96307C244.178 5.30682 242.004 4.05398 239.959 4.05398C237.3 4.05398 235.536 6.15057 235.536 9.16761C235.536 12.1847 237.274 14.2045 240.112 14.2045ZM237.051 8.2983C237.153 6.7706 238.233 5.40909 239.959 5.40909C241.595 5.40909 242.644 6.63636 242.644 8.2983H237.051ZM250.461 14.2045C252.634 14.2045 254.066 12.875 254.322 11.1364H252.813C252.532 12.2102 251.637 12.8494 250.461 12.8494C248.671 12.8494 247.521 11.3665 247.521 9.09091C247.521 6.86648 248.697 5.40909 250.461 5.40909C251.791 5.40909 252.583 6.22727 252.813 7.12216H254.322C254.066 5.28125 252.507 4.05398 250.436 4.05398C247.776 4.05398 246.012 6.15057 246.012 9.14205C246.012 12.0824 247.7 14.2045 250.461 14.2045ZM255.754 5.58807H259.001V14H260.509V5.58807H263.731V4.18182H255.754V5.58807ZM265.931 14H270.559C272.554 14 273.755 12.875 273.755 11.3665C273.755 9.82599 272.586 8.99503 271.505 8.83523C272.611 8.60511 273.397 7.98509 273.397 6.78977C273.397 5.22372 272.055 4.18182 269.946 4.18182H265.931V14ZM267.363 12.6193V9.60227H270.559C271.595 9.60227 272.221 10.2223 272.221 11.2386C272.221 12.0952 271.595 12.6193 270.559 12.6193H267.363ZM267.363 8.2983V5.5625H269.946C271.154 5.5625 271.889 6.06747 271.889 6.89205C271.889 7.76776 271.154 8.2983 269.946 8.2983H267.363ZM280.028 14.2045C282.687 14.2045 284.476 12.1847 284.476 9.14205C284.476 6.07386 282.687 4.05398 280.028 4.05398C277.368 4.05398 275.579 6.07386 275.579 9.14205C275.579 12.1847 277.368 14.2045 280.028 14.2045ZM280.028 12.8494C278.008 12.8494 277.087 11.1108 277.087 9.14205C277.087 7.1733 278.008 5.40909 280.028 5.40909C282.047 5.40909 282.968 7.1733 282.968 9.14205C282.968 11.1108 282.047 12.8494 280.028 12.8494ZM289.029 12.2102H287.393L287.316 12.9261C287.131 14.6584 286.766 16.3842 286.6 17.196H287.751C288.058 16.3267 288.71 14.358 288.927 12.9006L289.029 12.2102ZM5.36932 42.2045C8.02841 42.2045 9.81818 40.1847 9.81818 37.142C9.81818 34.0739 8.02841 32.054 5.36932 32.054C2.71023 32.054 0.920455 34.0739 0.920455 37.142C0.920455 40.1847 2.71023 42.2045 5.36932 42.2045ZM5.36932 40.8494C3.34943 40.8494 2.42898 39.1108 2.42898 37.142C2.42898 35.1733 3.34943 33.4091 5.36932 33.4091C7.3892 33.4091 8.30966 35.1733 8.30966 37.142C8.30966 39.1108 7.3892 40.8494 5.36932 40.8494ZM12.1209 42H13.6294V33.5881H18.334V42H19.8425V32.1818H12.1209V42ZM24.106 39.7756V32.1818H22.5975V42H24.3617L29.0662 34.4062V42H30.5748V32.1818H28.8361L24.106 39.7756ZM33.3377 45.6818H34.8462V40.4915H34.9741C35.3065 41.0284 35.9457 42.2045 37.8377 42.2045C40.2923 42.2045 42.0053 40.2358 42.0053 37.1165C42.0053 34.0227 40.2923 32.054 37.8121 32.054C35.8945 32.054 35.3065 33.2301 34.9741 33.7415H34.7951V32.1818H33.3377V45.6818ZM34.8207 37.0909C34.8207 34.892 35.7923 33.4091 37.6332 33.4091C39.5508 33.4091 40.4968 35.0199 40.4968 37.0909C40.4968 39.1875 39.5252 40.8494 37.6332 40.8494C35.8178 40.8494 34.8207 39.3153 34.8207 37.0909ZM47.1957 42.2301C48.9087 42.2301 49.8036 41.3097 50.1104 40.6705H50.1871V42H51.6957V35.5312C51.6957 32.4119 49.3178 32.054 48.065 32.054C46.582 32.054 44.8945 32.5653 44.1275 34.3551L45.5593 34.8665C45.8917 34.1506 46.6779 33.3835 48.1161 33.3835C49.5032 33.3835 50.1871 34.1186 50.1871 35.3778V35.429C50.1871 36.1577 49.4457 36.0938 47.6559 36.3239C45.8342 36.5604 43.8462 36.9631 43.8462 39.2131C43.8462 41.1307 45.3292 42.2301 47.1957 42.2301ZM47.4258 40.875C46.2241 40.875 45.3548 40.3381 45.3548 39.2898C45.3548 38.1392 46.4031 37.7812 47.5792 37.6278C48.2184 37.5511 49.9315 37.3722 50.1871 37.0653V38.446C50.1871 39.6733 49.2156 40.875 47.4258 40.875ZM55.2417 32.1818H53.7331V42H55.2417V37.8835H57.7601C58.0286 40.5107 59.7353 42.2045 62.1706 42.2045C64.8297 42.2045 66.6195 40.1847 66.6195 37.142C66.6195 34.0739 64.8297 32.054 62.1706 32.054C59.7097 32.054 57.9902 33.7862 57.7537 36.4773H55.2417V32.1818ZM62.1706 40.8494C60.1507 40.8494 59.2303 39.1108 59.2303 37.142C59.2303 35.1733 60.1507 33.4091 62.1706 33.4091C64.1905 33.4091 65.111 35.1733 65.111 37.142C65.111 39.1108 64.1905 40.8494 62.1706 40.8494ZM82.4718 40.5938H81.0144V32.1818H79.5059V40.5938H75.7985V32.1818H74.29V40.5938H70.5826V32.1818H69.074V42H80.7331V44.8125H82.2928L82.4718 40.5938ZM88.6768 42.2045C90.6712 42.2045 92.1286 41.2074 92.5888 39.7244L91.1314 39.3153C90.7479 40.3381 89.8594 40.8494 88.6768 40.8494C86.9062 40.8494 85.6854 39.7053 85.6151 37.6023H92.7422V36.9631C92.7422 33.3068 90.5689 32.054 88.5234 32.054C85.8643 32.054 84.1001 34.1506 84.1001 37.1676C84.1001 40.1847 85.8388 42.2045 88.6768 42.2045ZM85.6151 36.2983C85.7173 34.7706 86.7976 33.4091 88.5234 33.4091C90.1598 33.4091 91.2081 34.6364 91.2081 36.2983H85.6151ZM99.1534 42.2045C101.148 42.2045 102.605 41.2074 103.065 39.7244L101.608 39.3153C101.224 40.3381 100.336 40.8494 99.1534 40.8494C97.3828 40.8494 96.1619 39.7053 96.0916 37.6023H103.219V36.9631C103.219 33.3068 101.045 32.054 99 32.054C96.3409 32.054 94.5767 34.1506 94.5767 37.1676C94.5767 40.1847 96.3153 42.2045 99.1534 42.2045ZM96.0916 36.2983C96.1939 34.7706 97.2741 33.4091 99 33.4091C100.636 33.4091 101.685 34.6364 101.685 36.2983H96.0916ZM109.502 42.2045C111.675 42.2045 113.107 40.875 113.363 39.1364H111.854C111.573 40.2102 110.678 40.8494 109.502 40.8494C107.712 40.8494 106.562 39.3665 106.562 37.0909C106.562 34.8665 107.738 33.4091 109.502 33.4091C110.832 33.4091 111.624 34.2273 111.854 35.1222H113.363C113.107 33.2812 111.548 32.054 109.477 32.054C106.817 32.054 105.053 34.1506 105.053 37.142C105.053 40.0824 106.741 42.2045 109.502 42.2045ZM121.474 42H122.906V32.1818H118.866C116.751 32.1818 115.466 33.2876 115.466 35.0966C115.466 36.4453 116.143 37.4041 117.326 37.8068L114.929 42H116.565L118.841 38.0114H121.474V42ZM121.474 36.6051H118.688C117.62 36.6051 116.974 36.0362 116.974 35.0966C116.974 34.1442 117.69 33.5625 118.866 33.5625H121.474V36.6051ZM132.247 32.1818H130.738V42H132.247V37.8068H136.951V42H138.46V32.1818H136.951V36.4006H132.247V32.1818ZM144.104 42.2301C145.817 42.2301 146.712 41.3097 147.019 40.6705H147.095V42H148.604V35.5312C148.604 32.4119 146.226 32.054 144.973 32.054C143.49 32.054 141.803 32.5653 141.036 34.3551L142.468 34.8665C142.8 34.1506 143.586 33.3835 145.024 33.3835C146.411 33.3835 147.095 34.1186 147.095 35.3778V35.429C147.095 36.1577 146.354 36.0938 144.564 36.3239C142.742 36.5604 140.754 36.9631 140.754 39.2131C140.754 41.1307 142.237 42.2301 144.104 42.2301ZM144.334 40.875C143.132 40.875 142.263 40.3381 142.263 39.2898C142.263 38.1392 143.311 37.7812 144.487 37.6278C145.127 37.5511 146.84 37.3722 147.095 37.0653V38.446C147.095 39.6733 146.124 40.875 144.334 40.875ZM156.42 45.6818H157.928V40.4915H158.056C158.388 41.0284 159.028 42.2045 160.92 42.2045C163.374 42.2045 165.087 40.2358 165.087 37.1165C165.087 34.0227 163.374 32.054 160.894 32.054C158.977 32.054 158.388 33.2301 158.056 33.7415H157.877V32.1818H156.42V45.6818ZM157.903 37.0909C157.903 34.892 158.874 33.4091 160.715 33.4091C162.633 33.4091 163.579 35.0199 163.579 37.0909C163.579 39.1875 162.607 40.8494 160.715 40.8494C158.9 40.8494 157.903 39.3153 157.903 37.0909ZM171.505 42.2045C173.499 42.2045 174.957 41.2074 175.417 39.7244L173.96 39.3153C173.576 40.3381 172.688 40.8494 171.505 40.8494C169.734 40.8494 168.513 39.7053 168.443 37.6023H175.57V36.9631C175.57 33.3068 173.397 32.054 171.352 32.054C168.692 32.054 166.928 34.1506 166.928 37.1676C166.928 40.1847 168.667 42.2045 171.505 42.2045ZM168.443 36.2983C168.545 34.7706 169.626 33.4091 171.352 33.4091C172.988 33.4091 174.036 34.6364 174.036 36.2983H168.443ZM180.754 42.2301C182.467 42.2301 183.362 41.3097 183.669 40.6705H183.746V42H185.254V35.5312C185.254 32.4119 182.876 32.054 181.624 32.054C180.141 32.054 178.453 32.5653 177.686 34.3551L179.118 34.8665C179.45 34.1506 180.237 33.3835 181.675 33.3835C183.062 33.3835 183.746 34.1186 183.746 35.3778V35.429C183.746 36.1577 183.004 36.0938 181.214 36.3239C179.393 36.5604 177.405 36.9631 177.405 39.2131C177.405 41.1307 178.888 42.2301 180.754 42.2301ZM180.984 40.875C179.783 40.875 178.913 40.3381 178.913 39.2898C178.913 38.1392 179.962 37.7812 181.138 37.6278C181.777 37.5511 183.49 37.3722 183.746 37.0653V38.446C183.746 39.6733 182.774 40.875 180.984 40.875ZM187.138 42H187.65C189.823 42 190.449 40.3125 190.59 37.0909L190.743 33.5881H194.349V42H195.857V32.1818H189.312L189.133 36.5284C189.005 39.8267 188.672 40.5938 187.496 40.5938H187.138V42ZM200.133 35.7358V32.1818H198.625V42H202.741C205.042 42 206.295 40.5938 206.295 38.8295C206.295 37.0398 205.042 35.7358 202.741 35.7358H200.133ZM200.133 37.142H202.741C203.937 37.142 204.787 37.8707 204.787 38.9062C204.787 39.897 203.937 40.5938 202.741 40.5938H200.133V37.142ZM210.1 32.1818H208.592V42H210.1V37.8068H214.805V42H216.313V32.1818H214.805V36.4006H210.1V32.1818ZM223.057 42.2045C225.716 42.2045 227.506 40.1847 227.506 37.142C227.506 34.0739 225.716 32.054 223.057 32.054C220.398 32.054 218.608 34.0739 218.608 37.142C218.608 40.1847 220.398 42.2045 223.057 42.2045ZM223.057 40.8494C221.037 40.8494 220.116 39.1108 220.116 37.142C220.116 35.1733 221.037 33.4091 223.057 33.4091C225.077 33.4091 225.997 35.1733 225.997 37.142C225.997 39.1108 225.077 40.8494 223.057 40.8494ZM231.317 39.7756V32.1818H229.808V42H231.573L236.277 34.4062V42H237.786V32.1818H236.047L231.317 39.7756ZM235.05 28.9091C235.05 29.5739 234.692 30.1619 233.797 30.1619C232.902 30.1619 232.57 29.5739 232.57 28.9091H231.164C231.164 30.2898 232.186 31.2614 233.797 31.2614C235.433 31.2614 236.456 30.2898 236.456 28.9091H235.05ZM249.6 42.2045C251.773 42.2045 253.205 40.875 253.461 39.1364H251.952C251.671 40.2102 250.776 40.8494 249.6 40.8494C247.81 40.8494 246.659 39.3665 246.659 37.0909C246.659 34.8665 247.836 33.4091 249.6 33.4091C250.929 33.4091 251.722 34.2273 251.952 35.1222H253.461C253.205 33.2812 251.645 32.054 249.574 32.054C246.915 32.054 245.151 34.1506 245.151 37.142C245.151 40.0824 246.838 42.2045 249.6 42.2045ZM256.637 45.6562C257.999 45.6562 258.964 44.9339 259.527 43.4318L263.707 32.2074L262.058 32.1818L259.348 40.0057H259.245L256.535 32.1818H254.899L258.529 42.0511L258.248 42.8182C257.711 44.2884 257.021 44.429 255.922 44.1477L255.538 45.4773C255.691 45.554 256.126 45.6562 256.637 45.6562ZM263.828 44.8125H265.337V42H272.598V44.8125H274.107V40.5938H272.598V32.1818H266.36L266.027 36.0682C265.791 38.8168 265.439 39.7628 264.647 40.5938H263.828V44.8125ZM266.36 40.5938C267.05 39.6861 267.299 38.12 267.51 36.0682L267.766 33.5881H271.09V40.5938H266.36ZM280.226 42.2045C282.22 42.2045 283.677 41.2074 284.138 39.7244L282.68 39.3153C282.297 40.3381 281.408 40.8494 280.226 40.8494C278.455 40.8494 277.234 39.7053 277.164 37.6023H284.291V36.9631C284.291 33.3068 282.118 32.054 280.072 32.054C277.413 32.054 275.649 34.1506 275.649 37.1676C275.649 40.1847 277.388 42.2045 280.226 42.2045ZM277.164 36.2983C277.266 34.7706 278.346 33.4091 280.072 33.4091C281.709 33.4091 282.757 34.6364 282.757 36.2983H277.164ZM293.873 28.5C293.393 28.9027 292.677 28.9027 291.674 28.8963C291.348 28.8963 290.99 28.8963 290.6 28.9091C287.608 28.9858 286.126 31.2614 286.126 35.6335V36.6818C286.126 40.3125 287.89 42.2045 290.523 42.2045C293.15 42.2045 294.895 40.2997 294.895 37.2188C294.895 34.125 293.125 32.4886 290.83 32.4886C289.481 32.4886 288.222 33.0511 287.557 34.2784H287.43C287.634 31.7472 288.58 30.392 290.626 30.3153C292.441 30.2386 293.745 30.2898 294.64 29.4205L293.873 28.5ZM290.523 40.8494C288.733 40.8494 287.634 39.4176 287.634 37.2188C287.666 35.071 288.746 33.8438 290.498 33.8438C292.294 33.8438 293.387 35.071 293.387 37.2188C293.387 39.4304 292.3 40.8494 290.523 40.8494ZM298.711 32.1818H297.203V42H298.711V37.8068H303.416V42H304.925V32.1818H303.416V36.4006H298.711V32.1818ZM311.668 42.2045C314.327 42.2045 316.117 40.1847 316.117 37.142C316.117 34.0739 314.327 32.054 311.668 32.054C309.009 32.054 307.219 34.0739 307.219 37.142C307.219 40.1847 309.009 42.2045 311.668 42.2045ZM311.668 40.8494C309.648 40.8494 308.728 39.1108 308.728 37.142C308.728 35.1733 309.648 33.4091 311.668 33.4091C313.688 33.4091 314.608 35.1733 314.608 37.142C314.608 39.1108 313.688 40.8494 311.668 40.8494ZM319.928 39.7756V32.1818H318.42V42H320.184L324.888 34.4062V42H326.397V32.1818H324.658L319.928 39.7756ZM323.661 28.9091C323.661 29.5739 323.303 30.1619 322.408 30.1619C321.513 30.1619 321.181 29.5739 321.181 28.9091H319.775C319.775 30.2898 320.798 31.2614 322.408 31.2614C324.045 31.2614 325.067 30.2898 325.067 28.9091H323.661ZM5.36932 70.2045C7.54261 70.2045 8.97443 68.875 9.23011 67.1364H7.72159C7.44034 68.2102 6.54545 68.8494 5.36932 68.8494C3.57955 68.8494 2.42898 67.3665 2.42898 65.0909C2.42898 62.8665 3.60511 61.4091 5.36932 61.4091C6.69886 61.4091 7.49148 62.2273 7.72159 63.1222H9.23011C8.97443 61.2812 7.41477 60.054 5.34375 60.054C2.68466 60.054 0.920455 62.1506 0.920455 65.142C0.920455 68.0824 2.60795 70.2045 5.36932 70.2045ZM12.9439 67.7756V60.1818H11.4354V70H13.1996L17.9041 62.4062V70H19.4126V60.1818H17.674L12.9439 67.7756ZM26.1642 70.2045C28.3375 70.2045 29.7694 68.875 30.025 67.1364H28.5165C28.2353 68.2102 27.3404 68.8494 26.1642 68.8494C24.3745 68.8494 23.2239 67.3665 23.2239 65.0909C23.2239 62.8665 24.4 61.4091 26.1642 61.4091C27.4938 61.4091 28.2864 62.2273 28.5165 63.1222H30.025C29.7694 61.2812 28.2097 60.054 26.1387 60.054C23.4796 60.054 21.7154 62.1506 21.7154 65.142C21.7154 68.0824 23.4029 70.2045 26.1642 70.2045ZM31.4569 61.5881H34.704V70H36.2125V61.5881H39.4341V60.1818H31.4569V61.5881ZM45.2413 70.2045C47.2356 70.2045 48.693 69.2074 49.1532 67.7244L47.6958 67.3153C47.3123 68.3381 46.4238 68.8494 45.2413 68.8494C43.4707 68.8494 42.2498 67.7053 42.1795 65.6023H49.3066V64.9631C49.3066 61.3068 47.1333 60.054 45.0879 60.054C42.4288 60.054 40.6646 62.1506 40.6646 65.1676C40.6646 68.1847 42.4032 70.2045 45.2413 70.2045ZM42.1795 64.2983C42.2818 62.7706 43.362 61.4091 45.0879 61.4091C46.7243 61.4091 47.7726 62.6364 47.7726 64.2983H42.1795ZM56.9707 67.9545L53.5957 60.1818H51.6014V70H53.1099V62.3487L56.3571 70H57.5843L60.8315 62.4893V70H62.34V60.1818H60.3968L56.9707 67.9545ZM69.2179 70.2045C71.2122 70.2045 72.6696 69.2074 73.1298 67.7244L71.6724 67.3153C71.2889 68.3381 70.4004 68.8494 69.2179 68.8494C67.4473 68.8494 66.2264 67.7053 66.1561 65.6023H73.2832V64.9631C73.2832 61.3068 71.1099 60.054 69.0645 60.054C66.4054 60.054 64.6412 62.1506 64.6412 65.1676C64.6412 68.1847 66.3798 70.2045 69.2179 70.2045ZM66.1561 64.2983C66.2583 62.7706 67.3386 61.4091 69.0645 61.4091C70.7008 61.4091 71.7491 62.6364 71.7491 64.2983H66.1561ZM80.845 70H82.4302V64.1449H89.4103V70H90.9956V56.9091H89.4103V62.7386H82.4302V56.9091H80.845V70ZM95.4732 63.7358V60.1818H93.9647V70H98.0811C100.382 70 101.635 68.5938 101.635 66.8295C101.635 65.0398 100.382 63.7358 98.0811 63.7358H95.4732ZM95.4732 65.142H98.0811C99.2765 65.142 100.127 65.8707 100.127 66.9062C100.127 67.897 99.2765 68.5938 98.0811 68.5938H95.4732V65.142ZM104.724 60.1818H103.216V70H104.724V65.8835H107.243C107.511 68.5107 109.218 70.2045 111.653 70.2045C114.312 70.2045 116.102 68.1847 116.102 65.142C116.102 62.0739 114.312 60.054 111.653 60.054C109.192 60.054 107.473 61.7862 107.236 64.4773H104.724V60.1818ZM111.653 68.8494C109.633 68.8494 108.713 67.1108 108.713 65.142C108.713 63.1733 109.633 61.4091 111.653 61.4091C113.673 61.4091 114.593 63.1733 114.593 65.142C114.593 67.1108 113.673 68.8494 111.653 68.8494ZM124.181 63.6847H118.454V65.0909H124.181V63.6847ZM127.04 56.9091V70H128.574L135.708 59.7216H135.836V70H137.421V56.9091H135.887L128.728 67.2131H128.6V56.9091H127.04ZM133.483 53.6364C133.483 54.3011 133.126 54.8892 132.231 54.8892C131.336 54.8892 131.003 54.3011 131.003 53.6364H129.597C129.597 55.017 130.62 55.9886 132.231 55.9886C133.867 55.9886 134.89 55.017 134.89 53.6364H133.483ZM144.377 70.2045C147.036 70.2045 148.826 68.1847 148.826 65.142C148.826 62.0739 147.036 60.054 144.377 60.054C141.718 60.054 139.928 62.0739 139.928 65.142C139.928 68.1847 141.718 70.2045 144.377 70.2045ZM144.377 68.8494C142.357 68.8494 141.437 67.1108 141.437 65.142C141.437 63.1733 142.357 61.4091 144.377 61.4091C146.397 61.4091 147.317 63.1733 147.317 65.142C147.317 67.1108 146.397 68.8494 144.377 68.8494ZM151.129 73.6818H152.637V68.4915H152.765C153.097 69.0284 153.737 70.2045 155.629 70.2045C158.083 70.2045 159.796 68.2358 159.796 65.1165C159.796 62.0227 158.083 60.054 155.603 60.054C153.686 60.054 153.097 61.2301 152.765 61.7415H152.586V60.1818H151.129V73.6818ZM152.612 65.0909C152.612 62.892 153.583 61.4091 155.424 61.4091C157.342 61.4091 158.288 63.0199 158.288 65.0909C158.288 67.1875 157.316 68.8494 155.424 68.8494C153.609 68.8494 152.612 67.3153 152.612 65.0909ZM162.097 70H163.606V65.858H164.961L168.183 70H170.126L166.112 64.9119L170.075 60.1818H168.132L164.603 64.4517H163.606V60.1818H162.097V70ZM174.655 70.2301C176.368 70.2301 177.263 69.3097 177.569 68.6705H177.646V70H179.155V63.5312C179.155 60.4119 176.777 60.054 175.524 60.054C174.041 60.054 172.354 60.5653 171.586 62.3551L173.018 62.8665C173.351 62.1506 174.137 61.3835 175.575 61.3835C176.962 61.3835 177.646 62.1186 177.646 63.3778V63.429C177.646 64.1577 176.905 64.0938 175.115 64.3239C173.293 64.5604 171.305 64.9631 171.305 67.2131C171.305 69.1307 172.788 70.2301 174.655 70.2301ZM174.885 68.875C173.683 68.875 172.814 68.3381 172.814 67.2898C172.814 66.1392 173.862 65.7812 175.038 65.6278C175.677 65.5511 177.39 65.3722 177.646 65.0653V66.446C177.646 67.6733 176.675 68.875 174.885 68.875ZM188.479 67.7756V60.1818H186.971V70H188.735L193.439 62.4062V70H194.948V60.1818H193.209L188.479 67.7756ZM213.512 61C213.026 58.3153 210.878 56.7301 208.245 56.7301C204.895 56.7301 202.466 59.3125 202.466 63.4545C202.466 67.5966 204.895 70.179 208.245 70.179C210.878 70.179 213.026 68.5938 213.512 65.9091H211.927C211.543 67.7244 209.983 68.696 208.245 68.696C205.867 68.696 204.001 66.8551 204.001 63.4545C204.001 60.054 205.867 58.2131 208.245 58.2131C209.983 58.2131 211.543 59.1847 211.927 61H213.512ZM216.074 56.9091V70H230.034V56.9091H228.449V68.5426H223.846V56.9091H222.261V68.5426H217.659V56.9091H216.074ZM233.749 70L235.066 66.2926H240.358L241.675 70H243.337L238.53 56.9091H236.894L232.087 70H233.749ZM235.564 64.8864L237.661 58.9801H237.763L239.86 64.8864H235.564Z" fill="#2B2B2B"/>
</svg>
