<svg width="303" height="71" viewBox="0 0 303 71" fill="none" xmlns="http://www.w3.org/2000/svg">
<path d="M12.1193 5C11.6335 2.31534 9.4858 0.730113 6.85227 0.730113C3.50284 0.730113 1.07386 3.3125 1.07386 7.45455C1.07386 11.5966 3.50284 14.179 6.85227 14.179C9.4858 14.179 11.6335 12.5938 12.1193 9.90909H10.5341C10.1506 11.7244 8.59091 12.696 6.85227 12.696C4.47443 12.696 2.60795 10.8551 2.60795 7.45455C2.60795 4.05398 4.47443 2.21307 6.85227 2.21307C8.59091 2.21307 10.1506 3.18466 10.5341 5H12.1193ZM18.465 14.2045C21.1241 14.2045 22.9139 12.1847 22.9139 9.14205C22.9139 6.07386 21.1241 4.05398 18.465 4.05398C15.8059 4.05398 14.0162 6.07386 14.0162 9.14205C14.0162 12.1847 15.8059 14.2045 18.465 14.2045ZM18.465 12.8494C16.4451 12.8494 15.5247 11.1108 15.5247 9.14205C15.5247 7.1733 16.4451 5.40909 18.465 5.40909C20.4849 5.40909 21.4054 7.1733 21.4054 9.14205C21.4054 11.1108 20.4849 12.8494 18.465 12.8494ZM29.2053 14.2045C31.8643 14.2045 33.6541 12.1847 33.6541 9.14205C33.6541 6.07386 31.8643 4.05398 29.2053 4.05398C26.5462 4.05398 24.7564 6.07386 24.7564 9.14205C24.7564 12.1847 26.5462 14.2045 29.2053 14.2045ZM29.2053 12.8494C27.1854 12.8494 26.2649 11.1108 26.2649 9.14205C26.2649 7.1733 27.1854 5.40909 29.2053 5.40909C31.2251 5.40909 32.1456 7.1733 32.1456 9.14205C32.1456 11.1108 31.2251 12.8494 29.2053 12.8494ZM43.2438 0.5C42.7644 0.902698 42.0485 0.902698 41.0449 0.896306C40.7189 0.896306 40.361 0.896306 39.9711 0.909091C36.9796 0.985795 35.4966 3.26136 35.4966 7.63352V8.68182C35.4966 12.3125 37.2608 14.2045 39.8944 14.2045C42.5215 14.2045 44.2665 12.2997 44.2665 9.21875C44.2665 6.125 42.4959 4.48864 40.2012 4.48864C38.8525 4.48864 37.5932 5.05114 36.9284 6.27841H36.8006C37.0051 3.74716 37.9512 2.39205 39.9966 2.31534C41.812 2.23864 43.1159 2.28977 44.0108 1.42045L43.2438 0.5ZM39.8944 12.8494C38.1046 12.8494 37.0051 11.4176 37.0051 9.21875C37.0371 7.07102 38.1174 5.84375 39.8688 5.84375C41.665 5.84375 42.758 7.07102 42.758 9.21875C42.758 11.4304 41.6713 12.8494 39.8944 12.8494ZM59.9718 12.5938H58.5144V4.18182H57.0059V12.5938H53.2985V4.18182H51.79V12.5938H48.0826V4.18182H46.574V14H58.2331V16.8125H59.7928L59.9718 12.5938ZM66.1768 14.2045C68.1712 14.2045 69.6286 13.2074 70.0888 11.7244L68.6314 11.3153C68.2479 12.3381 67.3594 12.8494 66.1768 12.8494C64.4062 12.8494 63.1854 11.7053 63.1151 9.60227H70.2422V8.96307C70.2422 5.30682 68.0689 4.05398 66.0234 4.05398C63.3643 4.05398 61.6001 6.15057 61.6001 9.16761C61.6001 12.1847 63.3388 14.2045 66.1768 14.2045ZM63.1151 8.2983C63.2173 6.7706 64.2976 5.40909 66.0234 5.40909C67.6598 5.40909 68.7081 6.63636 68.7081 8.2983H63.1151ZM76.5256 14.2045C78.6989 14.2045 80.1307 12.875 80.3864 11.1364H78.8778C78.5966 12.2102 77.7017 12.8494 76.5256 12.8494C74.7358 12.8494 73.5852 11.3665 73.5852 9.09091C73.5852 6.86648 74.7614 5.40909 76.5256 5.40909C77.8551 5.40909 78.6477 6.22727 78.8778 7.12216H80.3864C80.1307 5.28125 78.571 4.05398 76.5 4.05398C73.8409 4.05398 72.0767 6.15057 72.0767 9.14205C72.0767 12.0824 73.7642 14.2045 76.5256 14.2045ZM81.8182 5.58807H85.0653V14H86.5739V5.58807H89.7955V4.18182H81.8182V5.58807ZM91.9959 14H96.6238C98.6181 14 99.8198 12.875 99.8198 11.3665C99.8198 9.82599 98.65 8.99503 97.5698 8.83523C98.6756 8.60511 99.4618 7.98509 99.4618 6.78977C99.4618 5.22372 98.1195 4.18182 96.0101 4.18182H91.9959V14ZM93.4277 12.6193V9.60227H96.6238C97.6593 9.60227 98.2857 10.2223 98.2857 11.2386C98.2857 12.0952 97.6593 12.6193 96.6238 12.6193H93.4277ZM93.4277 8.2983V5.5625H96.0101C97.2182 5.5625 97.9533 6.06747 97.9533 6.89205C97.9533 7.76776 97.2182 8.2983 96.0101 8.2983H93.4277ZM106.092 14.2045C108.751 14.2045 110.541 12.1847 110.541 9.14205C110.541 6.07386 108.751 4.05398 106.092 4.05398C103.433 4.05398 101.643 6.07386 101.643 9.14205C101.643 12.1847 103.433 14.2045 106.092 14.2045ZM106.092 12.8494C104.072 12.8494 103.152 11.1108 103.152 9.14205C103.152 7.1733 104.072 5.40909 106.092 5.40909C108.112 5.40909 109.032 7.1733 109.032 9.14205C109.032 11.1108 108.112 12.8494 106.092 12.8494ZM115.094 12.2102H113.457L113.381 12.9261C113.195 14.6584 112.831 16.3842 112.665 17.196H113.815C114.122 16.3267 114.774 14.358 114.991 12.9006L115.094 12.2102ZM122.951 14H124.46V9.85795H125.815L129.036 14H130.979L126.965 8.91193L130.928 4.18182H128.985L125.457 8.4517H124.46V4.18182H122.951V14ZM136.203 14.2045C138.862 14.2045 140.652 12.1847 140.652 9.14205C140.652 6.07386 138.862 4.05398 136.203 4.05398C133.544 4.05398 131.754 6.07386 131.754 9.14205C131.754 12.1847 133.544 14.2045 136.203 14.2045ZM136.203 12.8494C134.183 12.8494 133.263 11.1108 133.263 9.14205C133.263 7.1733 134.183 5.40909 136.203 5.40909C138.223 5.40909 139.144 7.1733 139.144 9.14205C139.144 11.1108 138.223 12.8494 136.203 12.8494ZM141.672 5.58807H144.919V14H146.427V5.58807H149.649V4.18182H141.672V5.58807ZM155.328 14.2045C157.987 14.2045 159.777 12.1847 159.777 9.14205C159.777 6.07386 157.987 4.05398 155.328 4.05398C152.669 4.05398 150.879 6.07386 150.879 9.14205C150.879 12.1847 152.669 14.2045 155.328 14.2045ZM155.328 12.8494C153.308 12.8494 152.388 11.1108 152.388 9.14205C152.388 7.1733 153.308 5.40909 155.328 5.40909C157.348 5.40909 158.269 7.1733 158.269 9.14205C158.269 11.1108 157.348 12.8494 155.328 12.8494ZM162.08 17.6818H163.588V12.4915H163.716C164.049 13.0284 164.688 14.2045 166.58 14.2045C169.034 14.2045 170.748 12.2358 170.748 9.11648C170.748 6.02273 169.034 4.05398 166.554 4.05398C164.637 4.05398 164.049 5.23011 163.716 5.74148H163.537V4.18182H162.08V17.6818ZM163.563 9.09091C163.563 6.89205 164.534 5.40909 166.375 5.40909C168.293 5.40909 169.239 7.01989 169.239 9.09091C169.239 11.1875 168.267 12.8494 166.375 12.8494C164.56 12.8494 163.563 11.3153 163.563 9.09091ZM177.037 14.2045C179.696 14.2045 181.486 12.1847 181.486 9.14205C181.486 6.07386 179.696 4.05398 177.037 4.05398C174.378 4.05398 172.588 6.07386 172.588 9.14205C172.588 12.1847 174.378 14.2045 177.037 14.2045ZM177.037 12.8494C175.017 12.8494 174.097 11.1108 174.097 9.14205C174.097 7.1733 175.017 5.40909 177.037 5.40909C179.057 5.40909 179.978 7.1733 179.978 9.14205C179.978 11.1108 179.057 12.8494 177.037 12.8494ZM187.905 14.2045C189.9 14.2045 191.357 13.2074 191.817 11.7244L190.36 11.3153C189.976 12.3381 189.088 12.8494 187.905 12.8494C186.135 12.8494 184.914 11.7053 184.844 9.60227H191.971V8.96307C191.971 5.30682 189.797 4.05398 187.752 4.05398C185.093 4.05398 183.329 6.15057 183.329 9.16761C183.329 12.1847 185.067 14.2045 187.905 14.2045ZM184.844 8.2983C184.946 6.7706 186.026 5.40909 187.752 5.40909C189.388 5.40909 190.437 6.63636 190.437 8.2983H184.844ZM203.317 14.2045C205.976 14.2045 207.765 12.1847 207.765 9.14205C207.765 6.07386 205.976 4.05398 203.317 4.05398C200.657 4.05398 198.868 6.07386 198.868 9.14205C198.868 12.1847 200.657 14.2045 203.317 14.2045ZM203.317 12.8494C201.297 12.8494 200.376 11.1108 200.376 9.14205C200.376 7.1733 201.297 5.40909 203.317 5.40909C205.336 5.40909 206.257 7.1733 206.257 9.14205C206.257 11.1108 205.336 12.8494 203.317 12.8494ZM208.785 5.58807H212.032V14H213.541V5.58807H216.762V4.18182H208.785V5.58807ZM220.471 7.7358V4.18182H218.963V14H223.079C225.38 14 226.633 12.5938 226.633 10.8295C226.633 9.03977 225.38 7.7358 223.079 7.7358H220.471ZM228.193 14H229.701V4.18182H228.193V14ZM220.471 9.14205H223.079C224.275 9.14205 225.125 9.87074 225.125 10.9062C225.125 11.897 224.275 12.5938 223.079 12.5938H220.471V9.14205ZM238.522 4.18182H232.463V14H233.971V5.58807H238.522V4.18182ZM240.724 17.6818H242.233V12.4915H242.361C242.693 13.0284 243.332 14.2045 245.224 14.2045C247.679 14.2045 249.392 12.2358 249.392 9.11648C249.392 6.02273 247.679 4.05398 245.199 4.05398C243.281 4.05398 242.693 5.23011 242.361 5.74148H242.182V4.18182H240.724V17.6818ZM242.207 9.09091C242.207 6.89205 243.179 5.40909 245.02 5.40909C246.938 5.40909 247.884 7.01989 247.884 9.09091C247.884 11.1875 246.912 12.8494 245.02 12.8494C243.205 12.8494 242.207 11.3153 242.207 9.09091ZM253.202 7.7358V4.18182H251.693V14H255.81C258.111 14 259.364 12.5938 259.364 10.8295C259.364 9.03977 258.111 7.7358 255.81 7.7358H253.202ZM260.923 14H262.432V4.18182H260.923V14ZM253.202 9.14205H255.81C257.005 9.14205 257.855 9.87074 257.855 10.9062C257.855 11.897 257.005 12.5938 255.81 12.5938H253.202V9.14205ZM265.193 14H269.821C271.815 14 273.017 12.875 273.017 11.3665C273.017 9.82599 271.847 8.99503 270.767 8.83523C271.873 8.60511 272.659 7.98509 272.659 6.78977C272.659 5.22372 271.317 4.18182 269.207 4.18182H265.193V14ZM266.625 12.6193V9.60227H269.821C270.857 9.60227 271.483 10.2223 271.483 11.2386C271.483 12.0952 270.857 12.6193 269.821 12.6193H266.625ZM266.625 8.2983V5.5625H269.207C270.415 5.5625 271.151 6.06747 271.151 6.89205C271.151 7.76776 270.415 8.2983 269.207 8.2983H266.625ZM278.19 14.2301C279.903 14.2301 280.798 13.3097 281.105 12.6705H281.181V14H282.69V7.53125C282.69 4.41193 280.312 4.05398 279.059 4.05398C277.576 4.05398 275.889 4.56534 275.122 6.35511L276.553 6.86648C276.886 6.15057 277.672 5.38352 279.11 5.38352C280.497 5.38352 281.181 6.11861 281.181 7.37784V7.42898C281.181 8.15767 280.44 8.09375 278.65 8.32386C276.828 8.56037 274.84 8.96307 274.84 11.2131C274.84 13.1307 276.323 14.2301 278.19 14.2301ZM278.42 12.875C277.218 12.875 276.349 12.3381 276.349 11.2898C276.349 10.1392 277.397 9.78125 278.573 9.62784C279.213 9.55114 280.926 9.37216 281.181 9.06534V10.446C281.181 11.6733 280.21 12.875 278.42 12.875ZM289.56 14.2045C291.554 14.2045 293.011 13.2074 293.472 11.7244L292.014 11.3153C291.631 12.3381 290.742 12.8494 289.56 12.8494C287.789 12.8494 286.568 11.7053 286.498 9.60227H293.625V8.96307C293.625 5.30682 291.452 4.05398 289.406 4.05398C286.747 4.05398 284.983 6.15057 284.983 9.16761C284.983 12.1847 286.722 14.2045 289.56 14.2045ZM286.498 8.2983C286.6 6.7706 287.68 5.40909 289.406 5.40909C291.043 5.40909 292.091 6.63636 292.091 8.2983H286.498ZM295.006 5.58807H298.253V14H299.761V5.58807H302.983V4.18182H295.006V5.58807ZM7.44034 32.1818H1.38068V42H2.8892V33.5881H7.44034V32.1818ZM13.1213 42.2045C15.7804 42.2045 17.5701 40.1847 17.5701 37.142C17.5701 34.0739 15.7804 32.054 13.1213 32.054C10.4622 32.054 8.67241 34.0739 8.67241 37.142C8.67241 40.1847 10.4622 42.2045 13.1213 42.2045ZM13.1213 40.8494C11.1014 40.8494 10.1809 39.1108 10.1809 37.142C10.1809 35.1733 11.1014 33.4091 13.1213 33.4091C15.1412 33.4091 16.0616 35.1733 16.0616 37.142C16.0616 39.1108 15.1412 40.8494 13.1213 40.8494ZM19.8729 45.6818H21.3814V40.4915H21.5092C21.8416 41.0284 22.4808 42.2045 24.3729 42.2045C26.8274 42.2045 28.5405 40.2358 28.5405 37.1165C28.5405 34.0227 26.8274 32.054 24.3473 32.054C22.4297 32.054 21.8416 33.2301 21.5092 33.7415H21.3303V32.1818H19.8729V45.6818ZM21.3558 37.0909C21.3558 34.892 22.3274 33.4091 24.1683 33.4091C26.0859 33.4091 27.032 35.0199 27.032 37.0909C27.032 39.1875 26.0604 40.8494 24.1683 40.8494C22.353 40.8494 21.3558 39.3153 21.3558 37.0909ZM34.8303 42.2045C37.4893 42.2045 39.2791 40.1847 39.2791 37.142C39.2791 34.0739 37.4893 32.054 34.8303 32.054C32.1712 32.054 30.3814 34.0739 30.3814 37.142C30.3814 40.1847 32.1712 42.2045 34.8303 42.2045ZM34.8303 40.8494C32.8104 40.8494 31.8899 39.1108 31.8899 37.142C31.8899 35.1733 32.8104 33.4091 34.8303 33.4091C36.8501 33.4091 37.7706 35.1733 37.7706 37.142C37.7706 39.1108 36.8501 40.8494 34.8303 40.8494ZM40.5336 44.8125H42.0421V42H49.3034V44.8125H50.812V40.5938H49.3034V32.1818H43.0648L42.7324 36.0682C42.4959 38.8168 42.1444 39.7628 41.3517 40.5938H40.5336V44.8125ZM43.0648 40.5938C43.7551 39.6861 44.0044 38.12 44.2154 36.0682L44.4711 33.5881H47.7949V40.5938H43.0648ZM56.8029 42.2045C58.9762 42.2045 60.408 40.875 60.6637 39.1364H59.1552C58.8739 40.2102 57.979 40.8494 56.8029 40.8494C55.0131 40.8494 53.8626 39.3665 53.8626 37.0909C53.8626 34.8665 55.0387 33.4091 56.8029 33.4091C58.1325 33.4091 58.9251 34.2273 59.1552 35.1222H60.6637C60.408 33.2812 58.8484 32.054 56.7773 32.054C54.1183 32.054 52.354 34.1506 52.354 37.142C52.354 40.0824 54.0415 42.2045 56.8029 42.2045ZM62.869 42H64.3775V37.858H65.7326L68.9542 42H70.8974L66.8832 36.9119L70.8462 32.1818H68.9031L65.3746 36.4517H64.3775V32.1818H62.869V42ZM76.1213 42.2045C78.7804 42.2045 80.5701 40.1847 80.5701 37.142C80.5701 34.0739 78.7804 32.054 76.1213 32.054C73.4622 32.054 71.6724 34.0739 71.6724 37.142C71.6724 40.1847 73.4622 42.2045 76.1213 42.2045ZM76.1213 40.8494C74.1014 40.8494 73.1809 39.1108 73.1809 37.142C73.1809 35.1733 74.1014 33.4091 76.1213 33.4091C78.1412 33.4091 79.0616 35.1733 79.0616 37.142C79.0616 39.1108 78.1412 40.8494 76.1213 40.8494ZM86.9893 42.2045C88.9837 42.2045 90.4411 41.2074 90.9013 39.7244L89.4439 39.3153C89.0604 40.3381 88.1719 40.8494 86.9893 40.8494C85.2188 40.8494 83.9979 39.7053 83.9276 37.6023H91.0547V36.9631C91.0547 33.3068 88.8814 32.054 86.8359 32.054C84.1768 32.054 82.4126 34.1506 82.4126 37.1676C82.4126 40.1847 84.1513 42.2045 86.9893 42.2045ZM83.9276 36.2983C84.0298 34.7706 85.1101 33.4091 86.8359 33.4091C88.4723 33.4091 89.5206 34.6364 89.5206 36.2983H83.9276ZM98.4119 42H99.9205V33.5881H104.625V42H106.134V32.1818H98.4119V42ZM108.888 45.6818H110.397V40.4915H110.525C110.857 41.0284 111.496 42.2045 113.388 42.2045C115.843 42.2045 117.556 40.2358 117.556 37.1165C117.556 34.0227 115.843 32.054 113.363 32.054C111.445 32.054 110.857 33.2301 110.525 33.7415H110.346V32.1818H108.888V45.6818ZM110.371 37.0909C110.371 34.892 111.343 33.4091 113.184 33.4091C115.102 33.4091 116.048 35.0199 116.048 37.0909C116.048 39.1875 115.076 40.8494 113.184 40.8494C111.369 40.8494 110.371 39.3153 110.371 37.0909ZM122.746 42.2301C124.46 42.2301 125.354 41.3097 125.661 40.6705H125.738V42H127.246V35.5312C127.246 32.4119 124.869 32.054 123.616 32.054C122.133 32.054 120.445 32.5653 119.678 34.3551L121.11 34.8665C121.442 34.1506 122.229 33.3835 123.667 33.3835C125.054 33.3835 125.738 34.1186 125.738 35.3778V35.429C125.738 36.1577 124.996 36.0938 123.207 36.3239C121.385 36.5604 119.397 36.9631 119.397 39.2131C119.397 41.1307 120.88 42.2301 122.746 42.2301ZM122.977 40.875C121.775 40.875 120.906 40.3381 120.906 39.2898C120.906 38.1392 121.954 37.7812 123.13 37.6278C123.769 37.5511 125.482 37.3722 125.738 37.0653V38.446C125.738 39.6733 124.766 40.875 122.977 40.875ZM130 42H134.628C136.622 42 137.824 40.875 137.824 39.3665C137.824 37.826 136.654 36.995 135.574 36.8352C136.68 36.6051 137.466 35.9851 137.466 34.7898C137.466 33.2237 136.123 32.1818 134.014 32.1818H130V42ZM131.432 40.6193V37.6023H134.628C135.663 37.6023 136.29 38.2223 136.29 39.2386C136.29 40.0952 135.663 40.6193 134.628 40.6193H131.432ZM131.432 36.2983V33.5625H134.014C135.222 33.5625 135.957 34.0675 135.957 34.892C135.957 35.7678 135.222 36.2983 134.014 36.2983H131.432ZM141.616 39.7756V32.1818H140.107V42H141.871L146.576 34.4062V42H148.085V32.1818H146.346L141.616 39.7756ZM149.512 33.5881H152.759V42H154.267V33.5881H157.489V32.1818H149.512V33.5881ZM163.296 42.2045C165.29 42.2045 166.748 41.2074 167.208 39.7244L165.751 39.3153C165.367 40.3381 164.479 40.8494 163.296 40.8494C161.525 40.8494 160.305 39.7053 160.234 37.6023H167.361V36.9631C167.361 33.3068 165.188 32.054 163.143 32.054C160.483 32.054 158.719 34.1506 158.719 37.1676C158.719 40.1847 160.458 42.2045 163.296 42.2045ZM160.234 36.2983C160.336 34.7706 161.417 33.4091 163.143 33.4091C164.779 33.4091 165.827 34.6364 165.827 36.2983H160.234ZM168.787 42H169.298C171.471 42 172.098 40.3125 172.238 37.0909L172.392 33.5881H175.997V42H177.506V32.1818H170.96L170.781 36.5284C170.653 39.8267 170.321 40.5938 169.145 40.5938H168.787V42ZM181.782 35.7358V32.1818H180.273V42H184.39C186.691 42 187.944 40.5938 187.944 38.8295C187.944 37.0398 186.691 35.7358 184.39 35.7358H181.782ZM181.782 37.142H184.39C185.585 37.142 186.435 37.8707 186.435 38.9062C186.435 39.897 185.585 40.5938 184.39 40.5938H181.782V37.142ZM194.229 42.2045C196.402 42.2045 197.834 40.875 198.089 39.1364H196.581C196.3 40.2102 195.405 40.8494 194.229 40.8494C192.439 40.8494 191.288 39.3665 191.288 37.0909C191.288 34.8665 192.464 33.4091 194.229 33.4091C195.558 33.4091 196.351 34.2273 196.581 35.1222H198.089C197.834 33.2812 196.274 32.054 194.203 32.054C191.544 32.054 189.78 34.1506 189.78 37.142C189.78 40.0824 191.467 42.2045 194.229 42.2045ZM199.521 33.5881H202.768V42H204.277V33.5881H207.499V32.1818H199.521V33.5881ZM209.699 42H214.327C216.321 42 217.523 40.875 217.523 39.3665C217.523 37.826 216.353 36.995 215.273 36.8352C216.379 36.6051 217.165 35.9851 217.165 34.7898C217.165 33.2237 215.823 32.1818 213.713 32.1818H209.699V42ZM211.131 40.6193V37.6023H214.327C215.362 37.6023 215.989 38.2223 215.989 39.2386C215.989 40.0952 215.362 40.6193 214.327 40.6193H211.131ZM211.131 36.2983V33.5625H213.713C214.921 33.5625 215.656 34.0675 215.656 34.892C215.656 35.7678 214.921 36.2983 213.713 36.2983H211.131ZM223.795 42.2045C226.454 42.2045 228.244 40.1847 228.244 37.142C228.244 34.0739 226.454 32.054 223.795 32.054C221.136 32.054 219.346 34.0739 219.346 37.142C219.346 40.1847 221.136 42.2045 223.795 42.2045ZM223.795 40.8494C221.775 40.8494 220.855 39.1108 220.855 37.142C220.855 35.1733 221.775 33.4091 223.795 33.4091C225.815 33.4091 226.735 35.1733 226.735 37.142C226.735 39.1108 225.815 40.8494 223.795 40.8494ZM0.460227 70H0.946023C3.83523 70 4.4169 67.6477 4.5767 63.5312L4.78125 58.3153H9.66477V70H11.25V56.9091H3.27273L3.04261 63.2244C2.90199 67.0852 2.48011 68.5426 0.84375 68.5426H0.460227V70ZM18.2013 70.2045C20.8604 70.2045 22.6502 68.1847 22.6502 65.142C22.6502 62.0739 20.8604 60.054 18.2013 60.054C15.5423 60.054 13.7525 62.0739 13.7525 65.142C13.7525 68.1847 15.5423 70.2045 18.2013 70.2045ZM18.2013 68.8494C16.1815 68.8494 15.261 67.1108 15.261 65.142C15.261 63.1733 16.1815 61.4091 18.2013 61.4091C20.2212 61.4091 21.1417 63.1733 21.1417 65.142C21.1417 67.1108 20.2212 68.8494 18.2013 68.8494ZM28.9416 70.2045C31.1149 70.2045 32.5467 68.875 32.8024 67.1364H31.2939C31.0126 68.2102 30.1177 68.8494 28.9416 68.8494C27.1518 68.8494 26.0012 67.3665 26.0012 65.0909C26.0012 62.8665 27.1774 61.4091 28.9416 61.4091C30.2711 61.4091 31.0637 62.2273 31.2939 63.1222H32.8024C32.5467 61.2812 30.987 60.054 28.916 60.054C26.2569 60.054 24.4927 62.1506 24.4927 65.142C24.4927 68.0824 26.1802 70.2045 28.9416 70.2045ZM40.6326 63.6847H34.9054V65.0909H40.6326V63.6847ZM54.0256 61C53.5398 58.3153 51.392 56.7301 48.7585 56.7301C45.4091 56.7301 42.9801 59.3125 42.9801 63.4545C42.9801 67.5966 45.4091 70.179 48.7585 70.179C51.392 70.179 53.5398 68.5938 54.0256 65.9091H52.4403C52.0568 67.7244 50.4972 68.696 48.7585 68.696C46.3807 68.696 44.5142 66.8551 44.5142 63.4545C44.5142 60.054 46.3807 58.2131 48.7585 58.2131C50.4972 58.2131 52.0568 59.1847 52.4403 61H54.0256ZM59.2718 70.2301C60.9849 70.2301 61.8798 69.3097 62.1866 68.6705H62.2633V70H63.7718V63.5312C63.7718 60.4119 61.394 60.054 60.1412 60.054C58.6582 60.054 56.9707 60.5653 56.2037 62.3551L57.6355 62.8665C57.9679 62.1506 58.7541 61.3835 60.1923 61.3835C61.5794 61.3835 62.2633 62.1186 62.2633 63.3778V63.429C62.2633 64.1577 61.5218 64.0938 59.7321 64.3239C57.9103 64.5604 55.9224 64.9631 55.9224 67.2131C55.9224 69.1307 57.4054 70.2301 59.2718 70.2301ZM59.502 68.875C58.3002 68.875 57.4309 68.3381 57.4309 67.2898C57.4309 66.1392 58.4792 65.7812 59.6554 65.6278C60.2946 65.5511 62.0076 65.3722 62.2633 65.0653V66.446C62.2633 67.6733 61.2917 68.875 59.502 68.875ZM68.0337 60.1818H66.5252V70H68.0337V65.8068H72.7383V70H74.2468V60.1818H72.7383V64.4006H68.0337V60.1818ZM75.6658 61.5881H78.913V70H80.4215V61.5881H83.6431V60.1818H75.6658V61.5881ZM89.3224 70.2045C91.9815 70.2045 93.7713 68.1847 93.7713 65.142C93.7713 62.0739 91.9815 60.054 89.3224 60.054C86.6634 60.054 84.8736 62.0739 84.8736 65.142C84.8736 68.1847 86.6634 70.2045 89.3224 70.2045ZM89.3224 68.8494C87.3026 68.8494 86.3821 67.1108 86.3821 65.142C86.3821 63.1733 87.3026 61.4091 89.3224 61.4091C91.3423 61.4091 92.2628 63.1733 92.2628 65.142C92.2628 67.1108 91.3423 68.8494 89.3224 68.8494ZM100.063 70.2045C102.236 70.2045 103.668 68.875 103.923 67.1364H102.415C102.134 68.2102 101.239 68.8494 100.063 68.8494C98.2729 68.8494 97.1223 67.3665 97.1223 65.0909C97.1223 62.8665 98.2985 61.4091 100.063 61.4091C101.392 61.4091 102.185 62.2273 102.415 63.1222H103.923C103.668 61.2812 102.108 60.054 100.037 60.054C97.378 60.054 95.6138 62.1506 95.6138 65.142C95.6138 68.0824 97.3013 70.2045 100.063 70.2045ZM109.018 70.2301C110.731 70.2301 111.626 69.3097 111.933 68.6705H112.009V70H113.518V63.5312C113.518 60.4119 111.14 60.054 109.887 60.054C108.404 60.054 106.717 60.5653 105.95 62.3551L107.382 62.8665C107.714 62.1506 108.5 61.3835 109.938 61.3835C111.325 61.3835 112.009 62.1186 112.009 63.3778V63.429C112.009 64.1577 111.268 64.0938 109.478 64.3239C107.656 64.5604 105.669 64.9631 105.669 67.2131C105.669 69.1307 107.151 70.2301 109.018 70.2301ZM109.248 68.875C108.046 68.875 107.177 68.3381 107.177 67.2898C107.177 66.1392 108.225 65.7812 109.401 65.6278C110.041 65.5511 111.754 65.3722 112.009 65.0653V66.446C112.009 67.6733 111.038 68.875 109.248 68.875Z" fill="#2B2B2B"/>
</svg>
